<mxfile host="app.diagrams.net" agent="Mozilla/5.0 (Macintosh; Intel Mac OS X 10_15_7) AppleWebKit/605.1.15 (KHTML, like Gecko) Version/18.0.1 Safari/605.1.15" version="24.8.0" pages="2">
  <diagram name="Rx reminders" id="kjPHvDq8bQ6p-spazFbV">
    <mxGraphModel dx="1178" dy="687" grid="1" gridSize="10" guides="1" tooltips="1" connect="1" arrows="1" fold="1" page="1" pageScale="1" pageWidth="850" pageHeight="1100" math="0" shadow="0">
      <root>
        <mxCell id="0" />
        <mxCell id="1" parent="0" />
        <mxCell id="_oLkYh-6_BTDg69lf94G-1" value="" style="verticalLabelPosition=bottom;verticalAlign=top;html=1;shadow=0;dashed=0;strokeWidth=1;shape=mxgraph.android.phone2;strokeColor=#6c8ebf;fillColor=#dae8fc;" vertex="1" parent="1">
          <mxGeometry x="320" y="160" width="200" height="390" as="geometry" />
        </mxCell>
        <mxCell id="_oLkYh-6_BTDg69lf94G-2" value="" style="shape=image;verticalLabelPosition=bottom;labelBackgroundColor=default;verticalAlign=top;aspect=fixed;imageAspect=0;image=data:image/png,iVBORw0KGgoAAAANSUhEUgAAAlYAAADoCAYAAAAt+qozAAAKs2lDQ1BJQ0MgUHJvZmlsZQAASImVlwdUE+kWgP+ZSSehJBABKaGGIkgngJQQWgAF6WAjJAECIcRAUBEbIq7gWlARwYquiii4FkAWGxZsi4Bi1wURBWVdLNhQeRM4BHffee+dd8+5ud/cuXP/+98zf84dACh6PKlUDKsDkCHJlkUE+jLi4hMY+D5AAghQA1RgyONnSdnh4aEAlXH7d/lwB0AKe8tGkevf7/9X0RAIs/gAQOEoJwmy+Bkon0D1A18qywYAOYz6TRZkSxXchrKmDC0Q5WcKThnjTwpOGmUMeTQmKoKDMgMAApnHk6UAQJ6C+hk5/BQ0D1mxBzuJQCRBOQ9lr4yMTAHKTShboDFSlBX5WUk/5En5W84kZU4eL0XJY3sZFYKfKEsq5i36P9vxvyVDLB9fg4kqOVUWFIFaKtqzZ+mZIUqWJM0IG2eRYDR+lFPlQdHjzM/iJIxzljiSO84Cnl+IMo94Rug4J4sClDGibG7UOAuz/CPHWZYZoVw3WcZhjzNPNlGDPD1a6U8VcpX5c1OjYsc5RxQzQ1lbemTIRAxH6ZfJI5R7EUoCfSfWDVD2ISPrh72LuMpns1OjgpR94E3UL5SwJ3JmxSlrEwj9/CdiopXx0mxf5VpScbgyXigOVPqzciKVz2ajL+fEs+HKHqbxgsPHGXBAJhCjKgMMEIpe+QGQLVyYrdgIJ1O6SCZKSc1msNHTJmRwJXzbKQwHOwcnABRnd+zVeEcfPZMQ/dqEL/8xAJ7xIyMjTRO+ULQfJ/oAIA1M+JjVAFDOAHBlFV8uyxnzYRQ/WPRfQQ1oAh1gAEyABbABDsAFeAAf4A+CQRiIAvFgLuCDVJCBVr4A5IEVoBAUgw1gCygHu8BecBAcAcdAPWgC58FlcB20gU7wEHSBXvAKDIIPYBiCIDxEgWiQDmQImUHWkAPEgrwgfygUioDioUQoBZJAcigPWgkVQyVQObQHqoJ+hU5B56GrUDt0H+qG+qG30BcYgcmwJqwPm8NTYRbMhkPgKHgOnALPh3PhAngdXAZXwofhOvg8fB3uhLvgV/AQAhAVhI4YITYIC+EgYUgCkozIkKVIEVKKVCI1SCPSgtxCupAB5DMGh6FhGBgbjAcmCBON4WPmY5Zi1mLKMQcxdZiLmFuYbswg5juWgtXDWmPdsVxsHDYFuwBbiC3F7seexF7CdmJ7sR9wOBwdx8S54oJw8bg03GLcWtwOXC3uHK4d14MbwuPxOnhrvCc+DM/DZ+ML8dvwh/Fn8R34XvwnggrBkOBACCAkECSEfEIp4RDhDKGD8IIwTFQnmhHdiWFEAXERcT1xH7GReJPYSxwmaZCYJE9SFCmNtIJURqohXSI9Ir1TUVExVnFTmakiUlmuUqZyVOWKSrfKZzKVbEXmkGeT5eR15APkc+T75HcUCsWc4kNJoGRT1lGqKBcoTyifVGmqtqpcVYHqMtUK1TrVDtXXakQ1MzW22ly1XLVSteNqN9UG1Inq5uocdZ76UvUK9VPqd9WHNGga9hphGhkaazUOaVzV6KPiqeZUf6qAWkDdS71A7aEhNBMah8anraTto12i9WriNJmaXM00zWLNI5qtmoNaVC0nrRithVoVWqe1uugI3ZzOpYvp6+nH6HfoXybpT2JPEk5aM6lmUsekj9qTtX20hdpF2rXandpfdBg6/jrpOht16nUe62J0rXRn6i7Q3al7SXdgsuZkj8n8yUWTj01+oAfrWelF6C3W26t3Q29I30A/UF+qv03/gv6AAd3AxyDNYLPBGYN+Q5qhl6HIcLPhWcOXDC0GmyFmlDEuMgaN9IyCjORGe4xajYaNmcbRxvnGtcaPTUgmLJNkk80mzSaDpoam003zTKtNH5gRzVhmqWZbzVrMPpozzWPNV5vXm/cxtZlcZi6zmvnIgmLhbTHfotLitiXOkmWZbrnDss0KtnK2SrWqsLppDVu7WIusd1i3T8FOcZsimVI55a4N2YZtk2NTbdNtS7cNtc23rbd9PdV0asLUjVNbpn63c7YT2+2ze2hPtQ+2z7dvtH/rYOXAd6hwuO1IcQxwXObY4PjGydpJ6LTT6Z4zzXm682rnZudvLq4uMpcal35XU9dE1+2ud1marHDWWtYVN6ybr9sytya3z+4u7tnux9z/8rDxSPc45NE3jTlNOG3ftB5PY0+e5x7PLi+GV6LXbq8ubyNvnnel91MfEx+Bz36fF2xLdhr7MPu1r52vzPek70eOO2cJ55wf4hfoV+TX6k/1j/Yv938SYByQElAdMBjoHLg48FwQNigkaGPQXa4+l8+t4g4GuwYvCb4YQg6JDCkPeRpqFSoLbZwOTw+evmn6oxlmMyQz6sNAGDdsU9jjcGb4/PDfZuJmhs+smPk8wj4iL6IlkhY5L/JQ5Ico36j1UQ+jLaLl0c0xajGzY6piPsb6xZbEdsVNjVsSdz1eN14U35CAT4hJ2J8wNMt/1pZZvbOdZxfOvjOHOWfhnKtzdeeK556epzaPN+94IjYxNvFQ4ldeGK+SN5TETdqeNMjn8LfyXwl8BJsF/UJPYYnwRbJncklyX4pnyqaU/lTv1NLUARFHVC56kxaUtivtY3pY+oH0EXGsuDaDkJGYcUpClaRLLmYaZC7MbJdaSwulXfPd52+ZPygLke3PgrLmZDVka6JD0g25hXyVvDvHK6ci59OCmAXHF2oslCy8schq0ZpFL3IDcn9ZjFnMX9ycZ5S3Iq97CXvJnqXQ0qSlzctMlhUs610euPzgCtKK9BW/59vll+S/Xxm7srFAv2B5Qc+qwFXVhaqFssK7qz1W7/oJ85Pop9Y1jmu2rfleJCi6VmxXXFr8dS1/7bWf7X8u+3lkXfK61vUu63duwG2QbLiz0XvjwRKNktySnk3TN9VtZmwu2vx+y7wtV0udSndtJW2Vb+0qCy1r2Ga6bcO2r+Wp5Z0VvhW12/W2r9n+cYdgR8dOn501u/R3Fe/6slu0+96ewD11leaVpXtxe3P2Pt8Xs6/lF9YvVft19xfv/3ZAcqDrYMTBi1WuVVWH9A6tr4ar5dX9h2cfbjvid6ShxqZmTy29tvgoOCo/+vLXxF/vHAs51nycdbzmhNmJ7SdpJ4vqoLpFdYP1qfVdDfEN7aeCTzU3ejSe/M32twNNRk0Vp7VOrz9DOlNwZuRs7tmhc9JzA+dTzvc0z2t+eCHuwu2LMy+2Xgq5dOVywOULLeyWs1c8rzRddb966hrrWv11l+t1N5xvnPzd+feTrS6tdTddbza0ubU1tk9rP9Ph3XH+lt+ty7e5t693zuhsvxN9597d2Xe77gnu9d0X33/zIOfB8MPlj7CPih6rPy59ovek8g/LP2q7XLpOd/t133ga+fRhD7/n1bOsZ197C55Tnpe+MHxR1efQ19Qf0N/2ctbL3lfSV8MDhX9q/Ln9tcXrE3/5/HVjMG6w943szcjbte903h147/S+eSh86MmHjA/DH4s+6Xw6+Jn1ueVL7JcXwwu+4r+WfbP81vg95PujkYyRESlPxhsdBRBU4eRkAN4eQOeEeABo6FxOmjU2W48KNPY9MErgP/HY/D0qLgDUoEYxFnHOAXAUVfPlaG70WjESRfkA2NFRqeNz8OjMrhAc+vWy20dBndqC5eAfMjbP/1D3Py1QZHUC/7T/AqgHDBuHvzFvAAAAOGVYSWZNTQAqAAAACAABh2kABAAAAAEAAAAaAAAAAAACoAIABAAAAAEAAAJWoAMABAAAAAEAAADoAAAAAJB/8SsAAEAASURBVHgB7Z0FvAVF2YcHpUQQlVAJAZEUAYNORVKQUkIkDBQQTEBBKZEuCSUE6ZQSQUCRVkLEIFTSAExCKUFlv/cZnf3m7N065+w5d8+5//n97t09u5PPzM6+O/POO9Mk5pycCIiACIiACIiACIhA3wRe1ncMikAEREAEREAEREAERMATkGClhiACIiACIiACIiACDRGQYNUQSEUjAiIgAiIgAiIgAhKs1AZEQAREQAREQAREoCECEqwaAqloREAEREAEREAERECCldqACIiACIiACIiACDREQIJVQyAVjQiIgAiIgAiIgAhIsFIbEAEREAEREAEREIGGCEiwagikohEBERABERABERCBaYVgNAj87Gc/c6effrq7//773dxzz+022mgjt956641G5oeYS3EaImwl1TcBtde+ESoCEWgfAba0qXKHHHJIMs0003T1d9ZZZ1VFW+v+t771ra7SJZ9HHXVUrbgH7eld73pXrbxPN910yV/+8pfC7Jx55pnJtNNOy9ZDHX+77757YZipeEOcqmu9l2c5fvZf/vKXJ69+9auT+eabL3nrW9+arLLKKsnHP/7x5NRTT01+9atfJS+99FJ1JuTDExiH9tpUH6cmIQLjRMDVKcw3vvGN5LWvfW3HSz37ks/+Xn755etEXenn7W9/e1fp0ul/85vfrIx3GB4+9rGPJQsuuGDCyyjLJ/v7kUceyc3SX//612SWWWYpDP+jH/0oN9xUuyhO9Wq8l2c521bLfr/pTW/yz98LL7xQL0NT1Ne4tNcm+rgp2gRU7DEmUEvHascdd3SPP/64e/TRR90BBxzgXvay6mC33nqru+OOO6wP7t3dcsst7s4776wVwW677eZ+97vfuSeffNLZw14rzKA9mYDnHnjgAffnP//ZrbXWWj0lB8enn366MOw111xTeG/Ub/zzn/90m266qVt11VXd3/72t9LiTGVOpWAyN8OzbIK8++xnP5u5m/9z8cUXdzYC7a6//np3yimnuI9+9KNugQUWyPX80EMPue23394tvPDC7uc//3muH110blzaaxN9nNqDCIwbgWoJKSrxXHPN5fbcc0+38847R1eLT4899tjimzXu1A2/7rrrukMPPdS98Y1vrBHr8L3MNttsbpdddhlIwlUCx0ASHVKkMLv44ovdTTfd5AXmfpIdZ069cEFP74gjjnArrLBCZfB9993XbbXVVm611VZzH/nIR9zJJ5/s7r777tKwfOTg/4YbbqiMXx4mEhi19jrIPm4iHV0RgXYT6EqwCkVZaaWVwmnp8fzzz3c25F3qp+jmn/70J3fhhRcW3e64jmDVdseLrBc3xxxzlAZbbLHFSu+P6k3T2fEv8Lr5n6qc6vLJ82e6U2799dfPu9Vxbc011+z4zY+ZZprJXX755e4tb3nLhHvhwj/+8Q+35ZZbuueeey5c0vF/BMaxvfbax6lRiMC4EehJsHrDG95Qi4PpWbiTTjqplt+sJ8L961//8pdf//rXZ293/K6bn45AQ/5hyuc9pbjMMsu4FVdcMTcsXDbffPPce6N8kSmkT37yk10VYSpy6gpQged555234M7/XzYdwf//EZ2Z3qXbe++9oysTT//4xz+6uiPPE0OP75VxbK+99nHjW8sq2VQl0JNgFcNaZJFF4p8Tzk844QT373//e8L1sgsIVCeeeKL3svLKK7sll1yyzLt7zWteU3p/lG+iz3bBBRe4d7/73R3FgPsVV1zheLmNk/v73//u3v/+97vnn3++q2JNNU5dwSnxPPvss5fcrb61zjrruKoX6mWXXVYd0RTzofY6xSpcxZ1SBPoWrHbYYQdn5gIKoaEke+mllxbez7uBXs1jjz3mb3U7cpEX36hfY4j9hz/8oUMx+KqrrvL6Lffcc4+zFZOjXrSO/L/44otuiy22cA8++GDH9bo/pgqnujyG4e9Vr3qVQ/eyzN13331lt6fsPbXXKVv1KviYE+hbsKJzYOVWmet2KuC4447z0THVVRV3Wbrjdo+VWGuvvbbXaymanhnVMjNK+YEPfMALjv2WYZw59ctmEOFRXC5zKGKzwlMun4Daaz4XXRWBUSXQm+JPprSf+tSn3HnnnZe5+v8/b7zxRvfLX/6yckqPEOjX3HzzzT4wZhPKRsP+P4XezsyYobdk/uyzz7r555+/72k1pq8YocPkA0LhPPPMU8s0RW+57y0Uo0KMBppBUjfjjDO66aef3ped814d5f3DH/7gdeLQd3vd617nuhH8yBO6Ym2bMmJaEhMjsGK6izrlQ+IVr3hFr6hqhcM8x+9//3tnNtm8WYOqqbZakQ7QU9UzynRjr+2r6We0DANmTdjZYIYZZvDcUdCvcqg5MMJKH7LQQgs5szlXFWTo95tsT8Pu44ZZ//Td9I2sLudZlxOBXgk0IlixZPud73xnqd0qRq2weVLlvv71r3svvEw+8YlPVHnv+v5vfvMbh94X9rHYTiK2EcUL4EMf+pA3jWCGDmvHja4To2w/+MEP3H/+85803KyzzurMKrX7whe+kF6re0KcZpm50vuBBx7oqvJK509cF110kZ9SzI4esDqMlwJmNFhO/8pXvrI0XUYgsGd0zjnn+OnJZ555psM/QhXC1bLLLus+/OEP+613ioQDhJeNN97YXXfddR1xZH8w5RyvpEKhH4G+SU6kSVlog7DCDpvZsOvICoKoWZv2q9223nrrQsG5Tr7QszGDnV6AQsn7a1/7mn9GEFSDg9ub3/xm34a23XZbR121zT311FOlWaJv6Mb184x2y53nH7MTtGderLHjBYutL2x/IWzFjmd9//339/aowiIb7ptFet9/0DbzBM46+SOe7HNdJ9wg2xPpN93HUc4810/9m8HkWoslAl/6wqOPPtqb63niiSfS7NB3oee79NJLp9d0IgK1CfRi/NRGoFJL4KZY7aM444wz0muW+IRz+8pPrOGWJmdGSBP8EX6TTTZJ/ZpxzQnxxWmYkczUb9nJ8ccfn9hXaGlcxGuCQXL44YeXReXv2Us4MZ2gyvhs5Cqp4mOdekd6ttqqMl7yWlV2081KzCTDhLgoI1uVxBw5t2mdpMiau71AEtN5S+wlMyFcNp74t339JaGddBTSfuy7775dxRXiNaVpH1VTnIjs3HPPTchrSKPquNRSSyW33367z0f2X918mf5RctdddyVzzjlnZbpsH0MdNOm+973vVaZrZhMKkzRTCokJEKVx7LXXXoXhszf6fUa74c6zY8J6ad5pA2zdY8Kjz6p9CCQbbLBBZRhbXJLY6Ee2eEnd/GWf67rhmm5Pg+zjJsCxC/3WPzsLVD233Icv1u9tdWahf/oCM/uTl01dE4FSArW2tMnGkCdYmeSf2ChFYSOlMR922GHZqDp+cz88FHHH0q9ghcCW1xnaJsaJTWEldB5m+DRNO+TBRm868hf/sKH/ZPXVV58QJoTt9pgVrBBCzz777MT0L0rTiDnF+eOc/dsQoOK88JvrlNlGSRKbuuu4j19TSE5uu+22juhsus4Lu3Fc7BdnCw0Sm2pIuH/vvfcmpic1IT7C8PK1r/yOOPlx8MEH5/qP08k7D4J3E5zIx1e+8pXcfCD40UbM4GViIxcT/CCoI5xknY06Jd/97neTqi2Zvv3tbyc2Ujoh3rwyc81GtbJJ9fW7X8HqyiuvLM077S3blvIy3NQzCnezr5XYiENpvngGbGS21E9cB9tss43/MLQVyrXDBOE/Lm+v7XUy2tOg+7iYS1P1byOQyfe///3KvpkPvbwPzrjOOUdQkxOBbgk0JliRcNVXlekxJTZVlptHrgchggYfu34FK9PfmdAZmomGjq8R0n/HO94xwR+bQOc5mzab4Dc8lLadR/Kd73wnsakk/2CSVrhXdMwKViHNq6++ujRskWCFwJM3IrXHHnuEqP2xqBxmdLXDHxs+Z/O+6667dvgJP2yaboJfwrLnoemwBG/pEfYI5tn449+//vWvfdvBL39Z1ysn4jGbablpb7jhhh3JIDwuscQSE/wiNJoOYYff8IONieNyFJ3blF9ihji9QGBTOoVh2AuTF15Trh/ByqaYEzOHUphXylpXEGz6GTUdtdJ8hXqg7sxCfEIfE0bLw734yLNkW/ukcTIiZcZVKz8mGQXNc72212G2p6K+AS5N9nHwabr+TV1hwkdlXJ91z2EgJwLdEmhUsDJF38ppAQSOPMfXfWjsxxxzTIeXfgQrpsJCvPGRBznrTBdqgl+EAVNe7vD629/+NjFdmwl+iZ+pNEaCYof/qqmeIsEKpnG+s+d5ghWjUWb4cUI4XsrZzXF58WXj5PfMM8/sR6FCOeKXSvAPA9vaJHhJj6eddlpunIQz/aXUX3yC0BLizTsyxVHmeuFEfNRt3gbjCDdM0WWd6ZXl5pNpujxnyreVzwQfFHFapv+Rm0bgEvvNS7Oba70KVtS76caV5nO77barlZVBPKMkbDqOpfkzq/HJL37xizSPjKgGxkVHRihN9yahXnFM99mChsJwpmuVxh+f9Npeh9WehtnHDar+y+ol1C8fgQiJ4Xf2+MUvfjGuNp2LQC0CfZtbsIaYOuzZsGS+zBWZXgjX7YXutt1227Ioat9DqbRoj748a+Y2YjUhbpRbbUqu4/p+++3nTBDouBZ+2CjOhBUlKLQeeeSRwUtXx15WoLFRNqv0sg6la5SvY2dTNfHP9NyEs3R/PlYV2TRfei+cwCCYxgjXOJYp0w9qY95eOJFXG4lzNj3DaYdDYdxGpzqu8aPIdhj7GeYtNkDZPKv4HEeKqQJsk8VpsdiBhQ9Fzl56RbcGcp2FHjbl50xgdjZl6hV6ye8ll1ySmx6r6VAOrrPrwqCeUTJW1ibYWJp9DGPjw+95z3tcmekIVjbaNJNfkEK94lgFy4KXImcjTLm3yvKWG+B/F4fVnobVx01W/YOTxSc8t7fccotbdNFFc7FnDTPnetJFEcgSqCV+ZTzl6VgFL9ZIC6V/S9vfQxcndrYKJJ22spWA8S1/3uuIla3+K8zLtddeOyEdlLZDHuOjrXpM/TIlldVbiv3ypZfnmCqK/WXPi0as0MnI+o1/Z0esYFk0mpY3WgSHOL5wjr5ccGaYNNcPft/73vcGb+mR0YwQT/aIsmie63fEqltO5ME61cJ85pWLMExD2ksxNxzMUG7OOkb/shzC77w6IXyZUq19hGST6Pl3nRGrkNeqo31Y+cUNRc9AXiYH8YyGdMoWIpx11lnBW8exTG/SdgTo8Bt+mEBdWL/2kRG8dRx7aa8hgkG3p2H2cYOsf/s4KqwXZiKYLgwOPdHllluuw//nP//5cFtHEeiKQKMjVtbxuuWXX96xD1aZy45ysLzdcu2DNGlp/Sc/+UlhNvK+TIts0GCWwV6oPi6bskzPs5ETJ6NTk+lgWTSaZkPeE7KGqYzs6B3LtuMRNtONK9w2CDMN3Tisx7fFYVKhyDFiledgU1RmRvZYht+NKxq5KGqLxI2JijY6RoB4trt5BgbxjNZhkx25DWGKRi64XxSmbFupomcxpNf0sYn2NMw+brLqf4011ugYnTRVDW86g5F5RmdtsYqzleFNV4/imyIEGhes4IYNlzJnpgecLeH2XphyYooBZ3oqzpY2+/Mm/mEPpcixQTTG4OK/2KZVHA5bJ/YV5y+VCQamdB8Hm5Rz078pTDdvXzimN+hIsOODQVamxn784x+7D37wg2k8TD8wrZOd0kLgsq+61F+dkyBA1/E7aD9sC1TkyvafLBN6yuIsSivvOgJcWxw2tsqmd0M+beVc4UdH8JM9DuIZzabRze8i4aksjqLp9LIww77XTXsaZh83WfVP35Xn6MPZ/xIbZnIi0CuBRgyEZhPfbLPN3G677ebMBkj2lv8dhCkEsFjI2mmnnXL993qxbI8yDMB147CEbcqu3iBmUTiMYk62y9OFCnkqEgjY7w3DoPwVOTZGxtAjhgKxRI7uwaqrrpoarERXghELW5zQOgvqRWUqE4LKLIWXGVAti7MoH22/Tnltdaw3jFomGKOr8tWvftXts88+tYs0iGe0duLymEugTLBquo+brPpnVwM5ERgUgYF8FvPVV2U1nSkrtivgiDN9iEb3BWS6BAGgKRdG2Mo6HZR2J9OZLRjHdFSR434/jq88pmpRbLUl6l6oYnQLgRglXjMX4KeCEELb7rAWzmhlkSsTrMrqeRwFKxhR33U+fBCsbr311iKsHdcH9Yx2JKIfXRMYVh+n+u+6ahRgRAgMZMSKsrMFyUEHHVSo78OXii1lTVebbb/99rlbQPTKEUGIKayiL2xG1N73vvfVjp7VYAiCzL0XuSL9hiL/TV8vG60iLVOQ99vM9Jsu+4WxAo6VnKao3hEdQgfTRtnrHZ5a8CPeNiYvO0XTwvgtq+cHHnggL7qxuHbIIYc4U3Z3Dz/8cGF52D6JVXKs/mSFb5kbxDNalp7uVRMYZh+n+q+uD/kYTQIDE6wYgcL0QtZUQYzJLK37n+yHxp56TTpejEVCFenQ6Ztxw66SZLqL0bgihVReKpPpyF+ZM9s5Zbcr78GT/R4ZscqO9jCdaNbrHQIyozZME7bZhcUIRXks07EqCzvOUwxMCaKLh+Jv2bPFpsRM8zN9WOYG8YyWpad71QRo28Pq41T/1fUhH6NJYCBTgQFFkQ2pcD8cGTmy/fTCz0aOZS9GEujFnpJZaXZFmwkTJyM5k+nKVjSRrzJF0ap80+GyoTJTvFmhilEqdK+wv1S2QqoqjWHeZ1StbOSJBQtFzvbHK7rl9fAKb47BDWyhMRpd5WzLGL+RdZm/QTyjZenpXjWBYfZxqv/q+pCP0SQwUMHK7II4/qpckyYWQlpVL3hMKPTiipbaE5dtNdJLlI2FwUBr2YjJ+eefXzjaVpYJRsK23HJLd/rpp+d6u/DCC7se/cuNaIgXWSVVJoiyarTITWXBCiaHHnqoK1pVFTNjFDorhMf3B/WMxmnovHsCw+rjVP/d141CjAaBgQpWIKgyvcDy1kFYt8U0QJ7dplAtWK82A3HhZ+1jkX0jIiDOyXZYlC5ylPfSSy8tul14HXMYtllw7n2WJdu+grn32n6RVZ5Frmz0caoLVkyjn3zyyemK0CKGWLRnF4WiacNBPaNF+dH1egSG1cep/uvVh3yNHoG+BasyfRNwsEyfFWNFbscddyy61fd17GKVueOPP77str9ne4n57TkwEYEr63Rsg+HCl4gPPIR/8RYdecnV2WYkG67M6CUGYUfVYT6iyKHoX+Sw65TnWCyBwdWp4NCzqqMXaTsDONuPshDJIJ7RwsR0oxaBYfZxqv9aVSJPI0agJ8EqVt4uslUVOKAIWaSTwZdvnX0BWalS5opWeFWt+qPDLzMNgLFN9g/70pe+5Pbdd1+fhbXXXrswK4xy3Hbbbbn3ywx3EqCqjLmR5lzEYGfWkGfszTY8dazuKnOYbNhggw38Hlrky7a9KfSex69sRV1hRBU3YkEHsxFLL720t5VWEaz0NoJBkeHLotV9lC2vzCTE3mNVgm1phibhZtGzE2elyA+LT+pYWd9jjz1cUfsfxDMa513n3RMYZh83yPov61PL7nVPTCFEoJNAT4JV/JIregHFyaDwjICVdVtttZVjNVmVy9tQOA5TpMeBcFA23cNUBVZ2s8vHmbpgNeNKK63kpwvnnXdebxqCNLm28cYbx8l3nNvO9x2/+YHwyebMZa5IQI2F2Lzw2Q6Cr82qtDBzUbRiixVdKChffvnl7uCDD/YjcGX6RrfffnuH7SxMPnz0ox/Ny6q/VjQthM5TmQXrm2++OY0TQZ2RxFjg65YTkaG8Hjb/TiP/3wmb5+bFyYrHvDLQjosE1rLVmtn6C/kous79snshfN1j0bMThy8aocPgLKtEqxztB0v+ee1oEM9oyE9e/YV7RQyLrhOu6F7R9bIwZXkrC8e9QbenYfZxg6z/sun8XtRAYC8nArUI2Euia8dmpBa5/zNl6cTskVTGYV/zaZgQlo2Jq5yZCEhspcqEsCEOjmaYsjCaq666qnTTZMKb0JeQvwMPPDCxlW2JbauTpsc9G4XqiN9scJXmyYSy1L+9iBPT9Urji/Mdn5vV88TMNaThwknVptbnnHNO8JoeTYk+sZGE0jTZSNq+TJOjjjoqIQ04mcCS2Ao/H84EtMSEPR9nVVzwMmHOb8hso2Wl6VJmMyqa2ChGYgJtmmdObBSqMCzx2iKHxEaEvB8TxBLbZywN3wunENgE5dx08zY7NqE01+8RRxwRous4wjCu5+y5Ca8d/sOPUM6sf37DoSm3+uqrl+aP9ChzmTMTG5VxEM+nP/3p3GgG8YzaKFtpnswwcW5ebNeIwnA2ep0bxhZ1FIah/zDBa0K4XtvrsNrTMPu4QdS/CfGl/X5RXU6oKF0QgR4I8PVd2yFA7bXXXonpknR0JEsttVRiU0wJjbnI2chGRxibWy/yml7/0Y9+lNiGzh3h8l40XEMgincrTyOxE5vyqxVHNm7KaSNQcVTpuRkYLY3T9HcSGy1L6ggaIV1TBE9M5yxNgx3X11tvvdJ0TNclV7A1vajErIeXhg3pZo+2urBD6CkSPLLhwu+66W6++eZpWTmh7CGOqmP8ku6HE+naCGyy4IILTkjbbLElNqqJF+8QkvOEfOrIRhGCt/TIS3C77babEG9cNgQo8h8700ua8IzFYUxnManzURLHmT0nb5/73OdK8xbSNPtVCUKmjQBko/G/zYJ2YqO6lXHxPNlCiNw4mnxG+UBB+Az5zzuaLlyC8BW7O+64I5l11lkLw/Es4yd2tJ0q4dQU/eMgvr57ea6H3Z6G0ccFME3WP4Ls/vvvX1iPtAfaIgKx6QiHLOgoAo0RqCVY7b333gmdOaMEeZ1UuMZ9W4bd8VKOc0pnFvyee+658a30nIZuK9sSm2ZI/YYwdY62l1WS7ciI3CxG1+r8Qxq227kPk2Ys58SWnZd+FYW4eBmfcMIJtcoDPxz+zWZWrTC8+Gxqb0IOr7vuutIXRchffDTzGIlNg3XEZfavasfD6JVNJyY2xVqad1tqPWEkkBEom1IrDUdeV1xxxcR0nXwem+BERAg3eUI8I3hbbLFFwkhGXt7Mynhi0zodvPjRTb4Y1TjggAN8HG9729sqyx/qixd6t84WbCRzzDFH7TRCWhx5vhH+bcuaCcleffXVteNcYoklEtOTmxBHE88oz0Hd8tlUcHLcccf5fNjeobXyzwuZkV4c/WJVnxj4LbDAAsmNN97YVbuIn+vJak+D7OM8xOhfE/Vve5X6d1XgXnXkPWOr0qNc6FQE+idQS7CyPcJqdTo0Yjoe22sqN2dMW+GHkYC8lxGBEKzo8KoeiLL7Rx55ZG76jLgx3UUei8LTUW600UbpNFhuRNFFRhcQworiM1tJCQIOX9GxHzr/9ddfPzFlc9+5mxkEP7Vl+iw+dqaIYv9V54cffniUq/8/5SvXDHtWCoAIpKeeemrutAWxUQamB4vyYUrgCS/tMKpx0003JUwT5/lntJLRnzz305/+NJl99tlzwzF9aYsIOqZMm+JEXqgjpojK6jOUh3o1PbS8Ivhr3ebLzJL4cEVlD+nGRz5AunXd5itOL5ybvltusqZbl1tvIVw48sFQNLrc7zPabfloTzg+aEL+qo6Bezf9InEiOHSbv/BcdxuuyfY0qD4urxH1W/+MiFbVX/Y+7yM5EWiSwDREZg1tSjlWOdkL3NmwvrMpFa80jUkIFL833HBD1+0O7picYNUTGxKzKhBlVlaboQTKxsQmyCHAepte2NZipSH2u4bpWEmHdXTKbcKWYwNU+4r2q9hYyWYjJQ4L6mXOBA+HMdA777zTK/yzbZGNPjgbpfKGYLPK5+yreN555/n9IGES/LGhb5lD6ZQ0YMmegxg+Za9GG1Vo3EJ/Xj6oTxMMHSsoWajBZt5Y3Ke89gJ2No3jbPo7L6iuNUSg6We0oWxN2WiG3cep/qdsUxuLgk9JwWosak6FEAEREAEREAERaB2BnswttK4UypAIiIAIiIAIiIAItICABKsWVIKyIAIiIAIiIAIiMB4EJFiNRz2qFCIgAiIgAiIgAi0gIMGqBZWgLIiACIiACIiACIwHAQlW41GPKoUIiIAIiIAIiEALCEiwakElKAsiIAIiIAIiIALjQUCC1XjUo0ohAiIgAiIgAiLQAgISrFpQCcqCCIiACIiACIjAeBCQYDUe9ahSiIAIiIAIiIAItICABKsWVIKyIAIiIAIiIAIiMB4EJFiNRz2qFCIgAiIgAiIgAi0gIMGqBZWgLIiACIiACIiACIwHAQlW41GPKoUIiIAIiIAIiEALCEiwakElKAsiIAIiIAIiIALjQUCC1XjUo0ohAiIgAiIgAiLQAgISrFpQCcqCCIiACIiACIjAeBCQYDUe9ahSiIAIiIAIiIAItICABKsWVIKyIAIiIAIiIAIiMB4EJFiNRz2qFCIgAiIgAiIgAi0gIMGqBZWgLIiACIiACIiACIwHAQlW41GPKoUIiIAIiIAIiEALCEiwakElKAsiIAIiIAIiIALjQUCC1XjUo0ohAiIgAiIgAiLQAgISrFpQCcqCCIiACIiACIjAeBCQYDUe9ahSiIAIiIAIiIAItICABKsWVIKyIAIiIAIiIAIiMB4EJFiNRz2qFCIgAiIgAiIgAi0gIMGqBZWgLIiACIiACIiACIwHAQlW41GPKoUIiIAIiIAIiEALCEiwakElKAsiIAIiIAIiIALjQUCC1XjUo0ohAiIgAiIgAiLQAgISrFpQCcqCCIiACIiACIjAeBCQYDUe9ahSiIAIiIAIiIAItICABKsWVIKyIAIiIAIiIAIiMB4EJFiNRz2qFCIgAiIgAiIgAi0gIMGqBZWgLIiACIiACIiACIwHAQlW41GPKoUIiIAIiIAIiEALCEiwakElKAsiIAIiIAIiIALjQUCC1XjUo0ohAiIgAiIgAiLQAgISrFpQCcqCCIiACIiACIjAeBCQYDUe9ahSiIAIiIAIiIAItICABKsWVIKyIAIiIAIiIAIiMB4EJFiNRz2qFCIgAiIgAiIgAi0gIMGqBZWgLIiACIiACIiACIwHAQlW41GPKoUIiIAIiIAIiEALCEiwakElKAsiIAIiIAIiIALjQUCC1XjUo0ohAiIgAiIgAiLQAgISrFpQCcqCCIiACIiACIjAeBCQYDUe9ahSiIAIiIAIiIAItICABKsWVIKyIAIiIAIiIAIiMB4EJFiNRz2qFCIgAiIgAiIgAi0gIMGqBZWgLIiACIiACIiACIwHAQlW41GPKoUIiIAIiIAIiEALCEiwakElKAsiIAIiIAIiIALjQUCC1XjUo0ohAiIgAiIgAiLQAgIjKVj96U9/agE6ZSEQ+Pe//+0eeOCB8LPj+MILL7jf//73HddG4ceo5nsU2CqP40mgrB8YzxKPXqnUrw2nzqatk8x3vvMdd/PNN9fxWupn1llndV/+8pdL/eTdfPrpp90Pf/hDd8UVV7grr7zSveY1r3F33XVXntfWXKOTgdvVV1/tfv3rX7vf/va37oknnnB//etf3Ste8YrW5LPXjDz55JNpnXz3u99173jHO3xZ4/juvfdet/rqq/sy77jjju4b3/hGfLu156Oa79YCHZGMbbrppu7GG290b3jDG9zrX/969573vMd94hOfcPRb4+r4ILrwwgvdj3/8Y99H/e53v3Of+cxn3H777VeryHX6gVoRydPACYxyv/aLX/zCrbDCCv655Nl805ve5HinrLTSSgPn1lMCSQ1nnUtikff9N9tss9VIrdOLPeDJdNNN15H2Ekss0empZb+eeuqpZM0110zzPMsssyTbbLNN8v3vfz956aWXWpbb7rNz/PHHJy972cvS8tE21ltvvQkRHXDAAamfaaedNnn++ecn+GnjhVHNdxtZjlKeHnrooeTII49M7GMgbbevetWrEvugG6Vi1M7rt7/97cQ+8tKyvu1tb0sOP/zw5I9//GOtOOr2A7Uik6eBExjlfu3FF1/0zyGyyJxzzpm22XXWWSf517/+NXB23Sbg6gRAKODlyctxiy22SC644ILEvuySe+65J7ERmbSQ+Nltt92SX/3qV8ltt92WXH755cnee++dgnjlK19ZJ7kOPwC1UZ7kC1/4QppO2wWrzTbbLM2rfQUnzz33XEeZRv2HjcYlf/vb35IPf/jDaTk33HDDCcX63ve+l95fbrnlJtxv64VRzXdbeY5ivhCwwsfk7LPPnpj6wSgWozDP9N3TTDONLyPC1fXXX1/ot+hG3X6gKLyuD5fAuPRrjz32WLLoooumz6fNgg0XZI3UaglWH/jAB3wh+JrJOpviSgtIR/S1r30t6yWxIchk+umnT17+8pdPuFf3wk9/+tM0nTYLVoxIMTIHCxuyHDuhKq6vc889N60TBMg8d8sttySnnHJK8ve//z3v9qRc44XACNv9999fmH4b812YWd0YCIGtttoqbd+nnXbaQNKoG2mdNls3Lvwdc8wxadmOOuqoboJO8FunH5gQSBcaJ1CnjYxLv0bfHT585p9//sZZ9hthLeV1m8Lxegef/exnrSzdu8UWW8x96EMfcv/5z3+cVX73EViIGWaYoadwww509913u8cff9wnu+yyy46FPlURw1hXzITmXG/LL7+8+8hHPuJsSiX3/mRc3GuvvZx9vTkUOYtcG/NdlFddHwyBNdZYI40YHY/JdHXabDf5sxGq1Ptqq62WnvdyUqcf6CVehemOQJ02Mi792pvf/Gb3xje+0QNCf/kf//hHd7AG7LuWYPXPf/7Trb322s70anrOjk0V+bBlL7OeI29RQJsiS3OzwAILpOfjftJP2xgmGxTtDz744GEmqbRGlAAfhMFNZsc9iDY7qH5qVPqBUK/jchxEG2k7m7Y8n3mcaq0KPProo93MM8+cF772NQSz6667zpmeVRqG0as//OEP/rcN5zmb80/vjeqJDSGmWR+H8qSFsRPKxmgcqzKzI1RVZWXUM/6yjePNnuPXFBJrj3LVbUesLP3gBz/oy5FNs+h3N/m2aWDfhqtYxGlRTpwt0Egv8yHDC8qmz9NrgzppIv26/AdVhjrx0na7qRfijP1Tt006VtOZroibb775SvvWXtpsnXz200/10w+EvPXyrBAWgZD055hjjhBV5bEu66KISPPVr361Mx3jIi+l13tpe6URZm720ka66dcyybXm5yCfz34LWWsIavHFF0+H3XpNkKk8W23jg2M24Z3vfKebccYZ/bJJlk7ysmZ584MPPthVEnTq6667rrNVeBP+Pvaxj02IC9MHu+yyizNlav/iJl2Gwk2HYoLfXi502wHbChx32GGHOdMb80fSvOqqq9x2223nGO5EGFlmmWX8tZAfHnTMVrzlLW/xU6SmyOc+/vGPuz//+c/By4RjP+W+7LLL3AYbbOBMidd3aDCD+c9//vMJ6cQXbOGB40vq/e9/v++YykYrWe7NdDFlQYhnibut/nA77bRToR2sbtrRxRdf7N773ve6Z555Js2iLTLwS3hZxhubE+km34SjnWFuYqaZZvLlXHnllX2+77vvvjSt+ATBCVMctijE87TVWX6K/OSTT3brr7++fxZgvfnmmzuGuZt2TaXfDf9QhmG1d15mtmrNbbLJJm6eeebxdUPbsgUX7pFHHgnZqX3s9rnOi5jnFlMGPD+vfe1r/TPPFPkiiyziDjrooAlBummzEwJXXOilPL32AyErvTwrhKW9Yv4BYYo/+gX+Nt54Y8ezlveMdMs65DEcTRfJMRUc+jzqibQ+97nPOdMpc6bj4/sShDbaWuyabntx3NnzbtpInX5tWM9nP++jLAN+99Ke8+Jp7Jo1gr6cNepUicwylau8HifAKkH88XfiiScmf/nLXxLTS0pMePDXzIZMYtDjIP4cPyFcVnndbLEk9hD4+yjJsyrPbCb51YlxRJdeemmC6QOWa+LHXlyJdXBpvCbY9W0SIF4laZ1onHzHuQlP3iQDCv2hXLCxEZX0d7jO0aTzBMXDW2+9NV1lGd/nfMUVV0xMeOlIhx/9lPsrX/mKT5tl5zaFltxwww3J6aefntg0Z0c+yXdwrDjadtttExOOOvxYBxm8pEd7IJJDDz3Urzidd955/XJ3Vq98+tOfTsOStglxaRhOum1Hph+Y2KhpGie8Vl11VX+N63DtJt8s8f3Sl77kzU6YQJV88Ytf9G1/yy23TEww9OmYUOyXr5tuYZr3/fffP2F1bFx3KA9bp91xLdw3gS3J45ZG2OVJU+l3y3+Y7R1zJ/Yh4HnC1XT8ElalBqb0AfZCqiRHmwhhtt5660r/ZR7MSG4y99xz+/jM9k5y5513+pW1X//61/2iHtKxl3ZHFHXabEeALn7Yx0RaNnhVuV76gRBnr88K4ekfQl2+733v86vNf/Ob3/jV56FuzKZhSMofe2EdR8DzSL/M83vsscf6trLRRhulvEK64cgK+OCaanshvqpjnTZSp18b5vPZz/so5oGphVAHNiAT35r0c6Ttvlw3gpUpgKYg3v3ud3ekG6/6sxGAjnv8KBOszjnnHP8gLLTQQgnx5LmLLrrICwj2ddixdBohDkErVNDnP//5vOC1ryF0hLgwEVHkbCTHm5BgKXfwz5GHmZeWjeAk11xzTYIQGe6bsp6/z8v2hBNOSOhQsCWDGYzg56yzzupIsp9yIywQLy8ihLrY2ZdNYl+PabqxYPWzn/0s+eY3v5nYaEF6n3jyBAReJtx761vfmrCMNjg6VFP+T8MjBAXXTzuyIf00zuzD2E2+ERwDc4TN2LF0Pba9Rn0GhykSXlJB+ApxwHLffff1L45TTz21w76QjWSF4H0fm0i/F/7Dau82gp28/e1v93WTXaEcC+sI/aaGUMoTu1ahfvjo6sfZ6EoaF6ZqYhcEBz6e8vJU1mbjeLo5jz+MbFqoNGiv/UCItNdnhfDhQ5U+zkbkQ5T+GPqObJ/fD2viCh+78WpJhMOscE574u/RRx/1+Wmy7XUUtMaPsjZSp18b1vPZz/soiyGYgeIZtdHQ7O1J/T1Uweqkk05KOxebFuwoOMvxQydmSmkd9/hRJFgx2kGHZNN5iQ3LTgjHBV7ooSPJvgS5v/vuu6dpm25LgrDYq9t5553TuHhBVrlPfvKTqX/MM9x+++0dQfiyDVw4IsBkR6V23XXX1A/xBddPuRkFZPSPNOlY89yee+6ZpsvS9KzD9k+c96xgxShU6MRuuummbHA/6hjCU3/B9dOO4g6IF2eeq8r3tddem5aLhzvPmV5i6gchi/YbO5uWTO8j7D/88MPx7SRe6l828tkRqIsf/aTfD/9BtneKH/L2rne9awINU0Dv+AhhJKvMIdwHARhBjN+9urnmmiut76zNKEYdQjs///zzJyRRp81OCFRywabJ0vRMx6vEZ5L02w/0+6wwKgwbniHbuaIjrwih9NfZj75+WAchlzSzzyyjnKGeGHWOR6LJWJNtr6OgNX7UaSNV/RrJDPL57Od9lIfAVGjS+sDuXJtcLR0ra0yNOBTYMUePsxGIjjjRTwmO+fEqZ52cMyHGmVDkzGipM6vmXr8lLxxbqdiLyysfMlfO0un4D32H4Ii3Snco+M0e77jjDmfClL+MjhB6SFUO/YrgbLjZ61OF3xzNGrIzu1jpJRvtmKDUvPTSS6f3bWo1Pe+n3CZMOebkURBk64A8h85KcPjLujjf2Xv8pv4wwWFTmF5/Ievnox/9qK9bdMnManB6u6l2lJdnEqnKN3oywWFKIs+xFQq6NDj72nV77LFHh7fwHHDR7MS5+W3xRuzQ+woOfYSmXT/p98N/kO0dhVyWnOPQC42fcc5NkHb20k1R2kdLep53QvuwDxl/yz78nL3k87zVumZTif5ZQmcnXs1E4G76vqI2WysT5slePl7HNPi3qetwmnvstx/o91kJqwx5htBljFdnojvHavOYH4Xoh7VN66Uc0OOKHf1UcM8++6xj+5/gmm57Id5ejkVtpKpfI61BPp/9vI/yONjUsLPZFH/riCOO8O/4PH+Tcq1fKa+bqUDSYrQlO9zNMJ4pa6fSJ1+JWRePWJmyexLmvPnqrPqSjOdiDXKaTtE5ukR1HWljrOyQQw5JDYPyFciXWh133HHHpfnZYYcdcoPYSyL1wxdk1jFtGMqCvlBwvZabOgojSeiFFDnmykO6png+wRtD4+E+x3jEitHFcM8U1CeErbrQazuKv+xM2M5NpizfjHqEfHO0zjU3Di7GW0HxFR07prtDPHmWg3/wgx+k99ETatr1m36v/AfZ3mOdqMC27Mi0e5Wjza611lppXTBCyfNWNX2WFy9T3XE4RmDQ4VlwwQXT+POMMNdps3npxdeYEWBLLQzjwoQRIPob+3iKvXWc99sPNPGsmMJ8yoZ8wwodzCrXC2v68jBCSVpMoWUd757QpkxYT28Pou2lkdc4qdNGyvq1kMQgn89e30chb3lH2geqKtQJqjLobWfli7xwg77W2/pRK0WvjiXkfGlYh+XOOOMMZx2LM6HJr8CoGydfnvzhTFHRf4UVSen4CV/8Sy21VK3Vf8HwGGGrHKuOTMDwq/P4umWlijWgjuXzVXFU3c9+kWX9x8vyGQEKrtdym/DmR5KIxxTKQ3SlxzL+eQFNoTK9THvo1jXRjrrNM3mM883y67K82wvZ2YPui8bSelNsLRxVzZa/l7xl4+jnd1X6TfAvyl+/7Z144Y6B3jIXPzdF/ljNzEbqjEbznF9yySV+hNU+PPzoSVVe43jZ3BnHBvKm/+VMN9SvTDYBL/ZWel5VL3mBGYE3vTPfT66yyirOpk38akn7AMzznl7rtx9o4llhlSyryW361OeLVeMmHPprvDtYTZ3nemENW1amU88425LNxbMBXLMPTf/uoc7ikcfQ1+KnqbZHXL24XtpIN+lUtfn4uWrifVSWN5u69SabWLHKKmVmCnDMEBx44IFlQQd6b+iCFaVhuswUev2yZ5bYn3feeX6ZfTd2QvBrErgzBW9nSr+OKbI8hwAXhmwZRs4+KHlhurlG520Kj75yTTHPT/+QRl2BpE5a3XAJ8fVT7riTiB+MEHfesduHOe50bS/IvCgrr/XbjrrNMxlCQAoONkxRFO0KkBXQ+RjgBTcurl/+RRx6ae/EZavF0igx5dLUs/700097S/103qb8723x2cq+Cbbc0sQLTvgItAUtzvSo/JSkrQh0pkvnvvrVr/q/gmAdl3tps0xJYyqAaS7TZfRtlrZJHxWm2joS+d+PfvuBJp4VyovJFtQ9eHEGh6CFiRPMVGACIet6ZY1JliBYYa7DdI7SKX0bwUs/0jHbYaN+abKDantpAl2c9NJGuoi+J3te/byPqvL2y1/+0vHuNf1p73XhhRf2qgBV4QZ5f6g6Vugvbb/99n6LEx46W3XhzjzzTG+PqZtC8pVCZxQc51deeWX42XGkkw4dNQIWFdykQzLmITalcy8c8jWIXS5bHdhkMl3H1U+5w5Y8JBqE0q4zUBEgfvhtL8kK3523m2pHcR46Uyj+hY5McDacXGoTKdZjIkys3xPiGMVjU/ybLjvCVHCxUBCu9XLEXhF6J/vss48ztQf/XNsUnh/FKhKo89JhxAt7dHxE0n8h5KCf100cxNtLm2VkylYieuOattjH/eQnP/G25RBM0BUqcv32A009KzY950ePmOGI9Z7QAbVV3A77b7HrhzWCrq1i9NHxjkLQ4iPQppe8rikfgXwc2ZRtnKS3yRguNNX2QnzdHntpI92m0a3/ft5HZWnttttuXl8bu4CMbCLg8seAzWS6oQpWtmoifQgYsosVG7uFgNI6w8Q4XnCApOPLOioUQQfHC8HMEWS9dPzmqwRFaZRVu3F0mljARdmckTQMWw5KKKmTr37KjWHS4FCGr2O0tduHOR5GZ9SxyJhmyAdfI0Exv6l21G2eyQuK9LHja6nIxW0IxdGsoFUUru3Xm+LfdDn5Ug0OAYYXb5mj3TEaUuZ4yWI0kZEd03vzitHxVEdZ2HAPxWYWKNB+iYepRaaUenG9tNmQDoq+vIjCRx9ThIygFbl++4EmnhX6HoQaHErpCLqUganY4DD4HD6Y+2XNFB/GojG4jMNQKIIwI3wYbmZ2xPSpJuwiMYi2F8rX7bGfNtJtWnX99/M+KkqDBWtBwEWR/cILL3RxPRSFG8b1vgUrhJq6jjnx4MLegeF3t0caD18wQU+Ar0hW1eV9gcWr13gwePjyHGVhiJch4PjrN89v3jW+rMIqoueee86ZAnuet6Fd67XcrKiKndnMin82ch7njSk1LMkXOSw2o1fBCw7XVDtiGq9bh4AUjzwx4lrkYgvfTU1LFaU1zOtN8W86z3GbYhVw0G/LS4cVgfQXjDYXOV7ovFhxSy65pN+tochv2XV0dcJHH6oDQf+nLEzRvV7abDYuptVYHY0rEyz77QeaeFYYjQovT/JLvhl1Y1qW/haHUBXqqQnWCNxnn322X4WInhk6cWFbHEYu4ylAnwH713TbC/H2cmyijfSSblWYmFET7+ELLrggTZLR31jYTm9M0knfghX6B7ErElrwE3diZlMjDubipc+MGtUR2NAdYDuQ8AXJkmpGrrJhw9cHCZoxNz8MzoOSdTw0bFdgdqG6HqIPccXKlLEeUbjfyzFm2s1D02u5X/e61zmzA5Rm1Yx9+gUG6YX/ncR1FoSe2A8jd7GLfzNNwJYRwVGPmFeI/XCPDpMFAoxwsvgA1087Cp0x8dAW8lw2D9nfsRBIRx5G0rJxxS+tYAYg+Mm20XA9HOvqtgX/3R77Sb8f/nXy2Wt7R3hl5Dg4zCPwFZt1CEwovTKCQ5srcnGbzo6+FIXJux6PXDOVxMh57OLnKC578FOnzQa/dY68gMKIMXUZb/MUh2+iH2jiWWGaJ/s88KEVm4EJI1b9sqYu+OinH6ffs1WI/txW3cVoJpw33fYmJFBxoU4byfZj2d8VSaS34zY6jPdRmnDmJNbh6+f5zETbzE/rYPty9vLwSx0tN/5ojb0wPrarCf7sxZrYy9RbSjcbFEl8Dz8sqbWXVrotTWxSwFZidRhnO+aYY9J4CctScuu8OvIRW/HGj410JRi4xCAfVszZZoLrbI1jjaUjbDc/WNJMPPzZEHVlUKxwB//2QOf6j9lgZT7rbAoyjcM6zI7bvZbbOhhveDXkDev0pjDq2bAMGwu68dYsGFDE6nu8vYM1/DRfxGOdXkfebC48MR2TDj82/eDrD6OtbGFhI5N+Ga11/mnYmEe37QjDkaFMWE3GYW0Za/YsD8dV5ds6+WT55ZdP48Eqd7bNmH5KYoK/92MjBD7e+N+mm26ahje9w/iWP4dlyCftvWnXT/r98B90ezcF55Rb4Gd7VSZsHWPTg34rFJZn29REgkmLMhf3OUWGYMvCh3s2ctaRJyyRm55TwlJxttUK+eTIjhQm7CSnnHJKCJ7UabOp55onbH8V0qWtFrl++4F+n5Vg9T22gh7yGowx24d1+uz2yzpYbac/M6E7MbUQv7vFt771rcRGsRK2frEP5lwzFU22vVDGusc6baSqXyOtQT+fvb6P8jjEZlBsYVCel0m7xuhOT85GqhK2ZrDNlNMHlAeVTosODCuvWYcF6fAwx0denjZv3vGy4j7XsZRuXyPe5kocBmEodmaMsyNu07/qsKCOHSybJ+/wE8fHuY2IFFpvj9MqO7dh5DSNKvtMvMjtSyf1z4s4u2+XDXem98kjwldsewYhJ7YBhh8ecDo0XD/lxpqt6YR0pG9fRul2Ldl79iXs92AkXQSNeD858oW9ppAv/ODosGzatSMN/IY/6syUUf/r+X//e21HBM+GZSsZ2hlCNq5uvrEnZtNDaT55WYaHmy0uwnNBh2ejFD7u8I+XahC6KCdCK51ecGy1wxY+gQFHXsLZj4Xgv9tjv+lnGYZ8Vj3Hw2jvsGBbqpCnvCNCFVayqxz29UJ4nrFeHYIS/WKIKz5ilym2IB3u8YEXXJZ3ts0Gf90c470pbcS1NGg//QAR9/OsBMGKtgUn+kcbafECTrDdhA3B4PplnX2PhPrIHvmgy/vIbarthfLUPVa1kTr92jCez37eR1kWfNCGerGp9uztSf3dk2DFCyQUqOxoQ/EdhTO9o8Sm6jrCIsHyFYCzId8EQ4rEafOxvuHyMi568dJZYaTNVubl+uFhpMEFx8trNdv6JisQMGpi04ATtooJ4bo5xqNHRQY/iY8RGQwUZvkhuLCRL4JrPDIQ++NryvTL/GhbXhz4jQ1S9lNuW22ZMIoUpz///PN7QZgRR64z2mN6N+leXnR0RXXGKBejXbEzBXAvVMf1QrnYa5DtN7Kul3YU4qBjpm2F8phNlnTj8G7zjcDPqBcCZYjPpk/8OQYYEdZ4CcSOD4jgN3tEEL3uuus6RgpjP2wc3q9rIv1e+A+zvcOITdjjDdYDR/YRZBSmjuPDMYQz3cs6QQr9sOdd/DzznNM3YbiTl14YnaXdM4oVb99S1mYLE6y4Yfas0rLlfQRng/fSD8Rx9PKsEB7BCuEzsKOPCM8bm7azN2vW9cPaFtEksRHQUP9FR0bIsq6JtpeNs+p3WRup068N8/ns530Uc2B0N9RLdjYk9jcZ59OQqGVuqA49A2z6sNLCHpiOtFnJgw4Ec9uDcugUsCQXPS90DfgLelr9pol9FRul8NGgv5FdCtxv/P2E76fcbDPEMlZWtoW6oR75yyq59ppH8ofpBXRAUBbOUxKN4+61HdHkUUi1F5qzzZ/7rnsWKrDCCv0M8s4ydvTBul1KH5dtFM575T/MsrGKzCxoe8OstKluVmY2/Syj08JSfNofq5ey7YN+j+217ONjAqKm2yxL04PdH9ItM3QbZ6bffqDbZwUdXlaUmcDp+xrqExasquT9YYJWnL30vFfWLJRB/w5laLb7YdEBZifIN7pFHFkoxcpA2hXGoItM/fTT9tKCdHHSdBvpIumevPbzPiLBXttwT5ntMtCkCFZd5nGkvLM8OCxTZr8309MYqfwrsyIgAv8lwN5mGIjEsYrJRrX/e2MM/mO6IJiewfwDuwRMdUdfzT6YCLd8+PORVOb4cGbJP4Kp3PAJsLiChUPUE0JaLyv5B5XrfHF/UKlNgXgZzWHFG45RMR5QORFoggCjHTb93dcfy8flqgmYLqC35hx8LrfccuF0LI5xebAEP9Wd6Rc506/yL2hWIVcJVfBitIwtgnp1ep57Jecco8lhNTajv20SqijVtL0XTSGLCLAjPCYbmGqyeWDHcuFgKqAojK6LQBUBXvZ8mfXjiEOunIDpq3gDv8EOna2gc6abWR5oxO5isPToo492CNq2gMRbNGdErm0vqGFh5UWNcIVD5QGVlCL1EKbc2GGDLZ3YSqVXp+e5N3IY6qX94phOx+5k25ymAgdUI2yyuv/++/v5eJKgc8ZuE3skojMgJwIi0C4CF198sd8YGQvbGBrmOcWiMy/QYFCzXTnuLzcYsMWgMfsH4hhpZ9SGbcf6GYnpL1eTExqbZeydGD482MYI/SlGQxZaaCGv44VOLrqUbJ5tCtjOTGL4vR4nJ8dTK1V0+w4++GC/a4GtLPSFR8eObfEYYWybk2A1wBrBaJ3Z4/LGNfkyRPkRi75FX0IDzIqiFgERqCCAhW+M+qLgbitfndk06tibriL4yN5mSgpr4/RRGAxlNADF7anmEKwRNDFQXebY0JqXPBtxyw2HAHpszAKxVyTPJ/rLLBKzlf/DyUCXqUiw6hKYvIuACIiACIwnAUaijjvuOL9iEivu7NDBikn2m2VV6XbbbZdarR9PAipVEwQkWDVBUXGIgAiIgAiIgAiIgBHQqkA1AxEQAREQAREQARFoiIAEq4ZAKhoREAEREAEREAERkGClNiACIiACIiACIiAIwqJUAAAUB0lEQVQCDRGQYNUQSEUjAiIgAiIgAiIgAhKs1AZEQAREQAREQAREoCECEqwaAqloREAEREAEREAERECCldqACIiACIiACIiACDREQIJVQyAVjQiIgAiIgAiIgAhIsFIbEAEREAEREAEREIGGCEiwagikohEBERABERABERABCVZqAyIgAiIgAiIgAiLQEAEJVg2BVDQiIAIiIAIiIAIiIMFKbUAEREAEREAEREAEGiIgwaohkIpGBERABERABERABCRYqQ2IgAiIgAiIgAiIQEMEJFg1BFLRiIAIiIAIiIAIiIAEK7UBERABERABERABEWiIgASrhkAqGhEQAREQAREQARGQYKU2IAIiIAIiIAIiIAINEZBg1RBIRSMCIiACIiACIiACEqzUBkRABERABERABESgIQISrBoCqWhEQAREQAREQAREQIKV2oAIiIAIiIAIiIAINERAglVDIBWNCIiACIiACIiACEiwUhsQAREQAREQAREQgYYISLBqCKSiEQEREAEREAEREAEJVmoDIiACIiACIiACItAQAQlWDYFUNCIgAiIgAiIgAiIgwUptQAREQAREQAREQAQaIiDBqiGQikYEREAEREAEREAEJFipDYiACIiACIiACIhAQwQkWDUEUtGIgAiIgAiIgAiIwLS9IkiSpNegCpchMM0002Su9PZTddIbt3EJ1VQ7GhceKocIiIAITAaBaexlXFtCynoNv8NxMgowqmmGl2A4hnJkf4frRccs+/A7HIvC6fp4EAjtJRxDqbK/w3UdRUAEREAEBkugtmAVXtTx8aWXXnL8DtfIanw+2KyPXuzxy45z/l72spf5I6UJ98OxqoSBdXxUnVRRG/37cfvgnL9+2tHoE1EJREAERKA9BGoJVvGL+z//+Y/j71//+pf797//7c/Dy5xi4Tf4b08xJz8n4QVITsKL8OUvf7mbdtpp3XTTTec45497wY8/KfgXGHNUnRRAGsPLTbejMUSkIomACIjApBKoFKyCoMQRQeqFF17wR4SAGWec0U0//fSpMDCpJRmxxOH54osvun/+859eMELAmmGGGbygFV6eQcjKFk11kiUydX/3046mLjWVXAREQAQGR6BUsKLTxjEiglD13HPP+Rf/q171qsHlaIrG/I9//MNzfsUrXuEZI7jissKV6mSKNpCaxa7bjmpGJ28iIAIiIAJdEig0txBe4BwRrJ599lk/QiWhqkvCNb3DlRErOMM75h+iiK+pTgIVHWMCddpR7F/nIiACIiACzRIoFKxIJghVzz//vB9FmWmmmZpNXbF1EIAvU4LwjoWr2JPqJKah8zwCddpRXjhdEwEREAER6J9ApWDFFCCK6hqp6h92nRjgHBYGhBGqOBzXVCcxEZ3nEahqR3lhdE0EREAERKB/ArmCVXihc0TBmlVrWV2f/pNWDHkE4AxvuMf1EJ+rTvLI6VpMoKgdxX50LgIiIAIi0DyBXMGKZHiRY0aB0RNW/8kNjwC84R6bsSB11cnw6mAcUipqR+NQNpVBBERABNpKoJZghVJ1290f//hHd+aZZ7rvfve7bc9qZf7gXSVYjUKdVBa0ZR7GqQ2BtqgdtQy7siMCIiACY0WgcK/AMDqCPk+/04BPPvmk+9SnPtUVuG9+85tdjZQ9+OCD7oADDnALLLCA22CDDbpKq22e4Q33ohGrJuqEMv/5z392u+66qy/+nnvu6RZbbLFCFEcffbS744473Oabb+7WX3/9Qn+DuqE21D3ZonbUfUwKIQIiIAIiUJdAoWBVN4I6/jCC+ZOf/KSO19SPpiBTFAM7YfVhqJfddtvNXXzxxd7ga16C9913n/e78sor593u6tpjjz3mPv7xj3uB/ZJLLvErIasiUBuqIqT7IiACIiACbSBQKVgxatKvm2OOOdxZZ53VEc1f/vIX97nPfc5fO+GEE9zMM8+c3udL+5WvfGX6eyqelHEvu9crqwceeMAdeeSR7otf/GKvUdQOh5BEejjMSmBiosqpDVURyr8/iLaSn5KuioAIiIAIQKD0jcZ0IH/9Ol6c73znOzuiYdQiuLe//e2V5hx4AQdr5CFck8de4+81XFXei9gXXa+Kr879008/3a2++upu+eWXr+M91094kbMpcJOuiTYU2DWdt1DOXttCr+FCumXHUOYyP7onAiIgAiLQHIFKwSq8KJtLsn5Mv/rVr9yxxx7rfv3rXzsUi1//+te7xRdf3H34wx+eIKiVxXr44Ye766+/3mE48etf/7pj9APHyMlFF13kbrrpJnf77bf7UbMVV1zRrbHGGm7NNdfsiPKaa65xX/va19zb3vY2t+222/p8oXP01FNPuTe+8Y1uiy22cFtvvbVr6qUNd16KWce1QdTJKqus4jkwYnXZZZdVCrpxvuB4/vnnu9tuu83rYXEPQXq55ZbzOlnxqtKNNtrIPfPMM2lwfiMwb7jhhm777bdPrzd1gj4a+nrXXnutu//++320Cy+8sM8ben+YtqjjmmhDpPORj3zEMVp76KGHuptvvtn94Ac/cPfee6+bZZZZ3FJLLeX22GMPN//889fJUi0/Re2oVmB5EgEREAER6JpAqWDVdWwNBrj66qvd5z//ea/ETbSscEK44g9BCGXqd73rXZUpHnLIIe7UU0/1QhMv2CBUIaDsvvvu7vvf/76Pg5c7eyFeeuml/u/AAw90m2yySRo/AhTTV4TjhUg+GEVhtOHhhx92Bx10kHv88cfT6c004IicfPWrX/Xl/dOf/uT2228/d8QRR9TKOeVnShfBBRcES37zh7CFcBxGGx955BEv0IbIH330Ua9rBd+mHXnbcsst3V133eWjpr4QNH75y1/6P66fdNJJhXplIT9NtSHie+ihhxyMmXalHQVelP+GG25wd955p7vqqqvcbLPNFpLXUQREQAREYIQINDtf01DBefnx4mG0gdGj6667zv385z/3ytWMgmAgEyGpyjEqgFA166yzutNOO82PNoUwRx11lBeq2PSYF/9Pf/pT96Mf/SgdNdl77739Sy74D0dWH04//fQ+L7yg0R1bbbXV/G3SYhPcUXSzzz6723///X3Wr7jiCsdfHYcAigAFE0Z1EKT445xr3MNPcIzyMSIWHMrzv/jFLxzK8027yy+/3AtVCOXHH3+8r89bb701zQ/n5KfMDaINkR5C1Wc+8xlHHmh3X/7yl71e4dNPP+2+9a1vlWVJ90RABERABFpMoLWCFWYAEHgYOXnDG97gRzWYBtxxxx09TkYbXnjhhUK0hOMF9drXvtadccYZbokllkj9IrgFZXpenEz7MV3FKAGjZOuss44X6ngx5zlGOcgLow1MeR122GFeiGAlIyMSo+re/e53u80228xnn1ErRlbKHCNCTKXi9tprL2+GgSkt/jDJwDUcfvA7bLfooov6NnTOOef40U0EPbZ6YSQy6PyVCVaDbEOYBNlhhx18fl7zmte4D33oQ350DUZMfcuJgAiIgAiMJoFWClZM2SDsBIEnoEWXZ+655/Y/EWJiXZ3ghyOjUYxo8cLCaOgiiywS3/bCD9N+CFMIE1kX9Kvuueee7C2f/nzzzddxnZf1XHPN5a+hPzPKDh0fdMYYeeM8T88rlA8hkjpBTymeNg33ucY9/EyGwEm9U5dvectbQpa8gEfZGKHDPfHEE+m9+GSQbYh0VlpppTg5fx7siI16G5pQMF0QAREQgSlEoLU6VoxwnH322e7GG290KLH//e9/T/WtyuoHfacTTzzRe1lwwQUdf1l39913+0u88OOXbtYfghX5CPpB3J933nmz3vxvRmlwZYKI99Dyf0yNMgKHbtItt9ziR/tQ1s9zgSNGWWNGwS/XuIcNLPwutNBC4dbQjoz+nHvuuX7KjxE4BOqqOhp0G6Lw88wzzwQGweRIVf4mBNQFERABERCB1hBopWCFwMMKsWC8Eh0ZRh8YGWI6ByXfOo5pHoSzrbbaqsM7hjGDW3bZZcNpenz22We9ovrSSy894SXcrxX6NJEWn7A6jSlXVlCi65Y3ukL20XXDUSdFLqy6C36L/A3iOgsT0N0KU8aMdoZ2dL2tEq3jBtGGSHcqtKM6fOVHBERABMaNQCsFKxR6EarQYWL1H6YAwpJ9tjZZYYUVSusBwYupQPSoWK3HyzTo1BAQ/Sjcq1/9aj8i43+07N9kv3h32mknv/oSBX2Ek7CaMsYUOIbVktk8o8uGsj+ubGQwjrPJc0YuEapYXMCWPfEULor6CN1FbhzaEGXL1klReXVdBERABESgGQKVOlaT0TGzQg+35JJLTtCz+vGPf1xacqaeXve613kL4ssss4yfPvz0pz/doYiNUjN6XCxxZ0Va1nEdu1ZhmX72/mT/HkadMI2HYj8CLVOxTMlmHQJr0KHKu49ZjKCDhd88xxTvIBzpYh8Kt80223QIVVxjmrPITYU2VFR2XRcBERABEeiPQKlgNYwXeF72g14UejnouwTH6AkbLddxCE4Y9MSoKPaldtlll3TqiqnFYCLhk5/8pNcBCnFin+oTn/iEfxmz+m8yXbBxFOdhmHWCoUoU2IscU4Crr766v/2FL3whFWS4gFDDNRx+wpQgvxkpDA6zDoPQKUIgDAsdSCOsSsSEB6sV6yjTj0MbgnNeOwr8dRQBERABEWiWQKVgNRmdMlN/2J7iJbjeeuu5jTfe2K211lreFAB6VnUd5hOOOeYYrwPE6NM+++yTBmU0hlVYf/vb39z73vc+//JnCTzpMIqFmQZML0yWK+KOYFV0bxB53XzzzVMhNC9+jGcyzccoH6sAEaL445xr3MNP7GDLykMc99jYeRBCLCYfcGwuzfQx1vEZxfz2t7+dpu89lPwb5TZEsYbZVkow6pYIiIAITBkCpYIVFAY1QhLHG5+TJi8ztkh561vf6tNnKur3v/+9f2HzAg7+w5Ew4QUSjlzDMZ0YBKpLLrkktbvEJs/Ehd0mXvKsGGPLE/SC1l13Xb+SLN5aJMQbp/nfFP77P9wPx/heL+dF6RBX2b1u0grxhGNRWAx8Igzhsn7ZJihwRIcJjvxxDlvu4SfrGE1k1BBejCgi4Hbr4rzE5yEeDHDuvPPOXkjHxAJGZhnJQr8KW2W4uL7CeTiGeJpqQ8QX8plNg3vhWjhyrV8X0us3HoUXAREQARGoR2Aam4ZJsl65hIDBSi5eethoarKzz6ZX9pvl8UzPzTnnnN7wZJnffu5hO4jVgkwfMQU0mY5pK8qMgMl0W2DfljopY/PXv/7V385Tds8Lhy4UNskQvvJMNuSF6eUam37DlfoNPHuJpyxMm9oQ+cxrRxK0ympQ90RABESgfwKlghUvPAwoYmgT+0ZywyGAMIlSN9zRTQqCAIKV6mQ4dTAOqeS1IwlW41CzKoMIiECbCRROBdIB80JnxIT9y+SGRwCL8kGgil+EqpPh1cE4pFTUjsahbCqDCIiACLSVQK5gxQs8/CFYMUWWM2PY1jKNdL7gDG+4hzrIHlUnI13FQ8l8UTsaSuJKRAREQASmMIFcwSrw4IXOyAl/QXcm3NNxMATgHJjDP+tUJ1ki+p1HoKod5YXRNREQAREQgf4JlApWTAWiyM0KOrZ5weq53OAIwBfO8IZ70K2KU1SdxDR0nkegTjvKC6drIiACIiAC/RMoFKzC9BMvcgxqYj+KFYKsrtK0YP/g4xjgySpA+MIZ3nAPdRD8ht+qk0BEx5hA3XYUh9G5CIiACIhAswRyVwXGSdBZs2yb1Wjo/rBajdVGs8wyi1+1xugKL3q57ghg/BSOGNFkcQDmBjCKyupLpgIxPYAgledUJ3lUpua1ftrR1CSmUouACIjAYAlUClYkj2CFQ7hiU1sELIQC/vjNff4wB4DjxS/XSSAISQihCE38MTKFQIUwxZHfCFW4KptOqpNOvlPlV9PtaKpwUzlFQAREYFgEaglWZAahKYyU8FLnSxlBi2O4x30JVcVVF6byOAbhCkEKfarwm3t1RwAD9yDYqk6K2Y/Tnabb0TixUVlEQAREYLIJ1BasyChCUxiV4hhe7LFAJcEqv0p5GQYXvxgRooIgxTH2F/yXHVUnZXTG717cPppsR+NHSiUSAREQgckh0JVgFWcxCFXxNZ13T4CXYxCsug/dGUJ10sljKv1qsh1NJW4qqwiIgAg0TaBnwarpjCg+ERABERABERABERh1AlrON+o1qPyLgAiIgAiIgAi0hoAEq9ZUhTIiAiIgAiIgAiIw6gQkWI16DSr/IiACIiACIiACrSEgwao1VaGMiIAIiIAIiIAIjDoBCVajXoPKvwiIgAiIgAiIQGsISLBqTVUoIyIgAiIgAiIgAqNOQILVqNeg8i8CIiACIiACItAaAhKsWlMVyogIiIAIiIAIiMCoE5BgNeo1qPyLgAiIgAiIgAi0hoAEq9ZUhTIiAiIgAiIgAiIw6gQkWI16DSr/IiACIiACIiACrSEgwao1VaGMiIAIiIAIiIAIjDoBCVajXoPKvwiIgAiIgAiIQGsISLBqTVUoIyIgAiIgAiIgAqNOQILVqNeg8i8CIiACIiACItAaAhKsWlMVyogIiIAIiIAIiMCoE5BgNeo1qPyLgAiIgAiIgAi0hoAEq9ZUhTIiAiIgAiIgAiIw6gQkWI16DSr/IiACIiACIiACrSEgwao1VaGMiIAIiIAIiIAIjDoBCVajXoPKvwiIgAiIgAiIQGsISLBqTVUoIyIgAiIgAiIgAqNOQILVqNeg8i8CIiACIiACItAaAhKsWlMVyogIiIAIiIAIiMCoE5BgNeo1qPyLgAiIgAiIgAi0hoAEq9ZUhTIiAiIgAiIgAiIw6gQkWI16DSr/IiACIiACIiACrSHwf06E2ccBG3e1AAAAAElFTkSuQmCC;" vertex="1" parent="1">
          <mxGeometry x="331" y="255.94" width="178" height="69.06" as="geometry" />
        </mxCell>
        <mxCell id="_oLkYh-6_BTDg69lf94G-3" value="" style="shape=image;verticalLabelPosition=bottom;labelBackgroundColor=default;verticalAlign=top;aspect=fixed;imageAspect=0;image=data:image/png,iVBORw0KGgoAAAANSUhEUgAAAlYAAADoCAYAAAAt+qozAAAKs2lDQ1BJQ0MgUHJvZmlsZQAASImVlwdUE+kWgP+ZSSehJBABKaGGIkgngJQQWgAF6WAjJAECIcRAUBEbIq7gWlARwYquiii4FkAWGxZsi4Bi1wURBWVdLNhQeRM4BHffee+dd8+5ud/cuXP/+98zf84dACh6PKlUDKsDkCHJlkUE+jLi4hMY+D5AAghQA1RgyONnSdnh4aEAlXH7d/lwB0AKe8tGkevf7/9X0RAIs/gAQOEoJwmy+Bkon0D1A18qywYAOYz6TRZkSxXchrKmDC0Q5WcKThnjTwpOGmUMeTQmKoKDMgMAApnHk6UAQJ6C+hk5/BQ0D1mxBzuJQCRBOQ9lr4yMTAHKTShboDFSlBX5WUk/5En5W84kZU4eL0XJY3sZFYKfKEsq5i36P9vxvyVDLB9fg4kqOVUWFIFaKtqzZ+mZIUqWJM0IG2eRYDR+lFPlQdHjzM/iJIxzljiSO84Cnl+IMo94Rug4J4sClDGibG7UOAuz/CPHWZYZoVw3WcZhjzNPNlGDPD1a6U8VcpX5c1OjYsc5RxQzQ1lbemTIRAxH6ZfJI5R7EUoCfSfWDVD2ISPrh72LuMpns1OjgpR94E3UL5SwJ3JmxSlrEwj9/CdiopXx0mxf5VpScbgyXigOVPqzciKVz2ajL+fEs+HKHqbxgsPHGXBAJhCjKgMMEIpe+QGQLVyYrdgIJ1O6SCZKSc1msNHTJmRwJXzbKQwHOwcnABRnd+zVeEcfPZMQ/dqEL/8xAJ7xIyMjTRO+ULQfJ/oAIA1M+JjVAFDOAHBlFV8uyxnzYRQ/WPRfQQ1oAh1gAEyABbABDsAFeAAf4A+CQRiIAvFgLuCDVJCBVr4A5IEVoBAUgw1gCygHu8BecBAcAcdAPWgC58FlcB20gU7wEHSBXvAKDIIPYBiCIDxEgWiQDmQImUHWkAPEgrwgfygUioDioUQoBZJAcigPWgkVQyVQObQHqoJ+hU5B56GrUDt0H+qG+qG30BcYgcmwJqwPm8NTYRbMhkPgKHgOnALPh3PhAngdXAZXwofhOvg8fB3uhLvgV/AQAhAVhI4YITYIC+EgYUgCkozIkKVIEVKKVCI1SCPSgtxCupAB5DMGh6FhGBgbjAcmCBON4WPmY5Zi1mLKMQcxdZiLmFuYbswg5juWgtXDWmPdsVxsHDYFuwBbiC3F7seexF7CdmJ7sR9wOBwdx8S54oJw8bg03GLcWtwOXC3uHK4d14MbwuPxOnhrvCc+DM/DZ+ML8dvwh/Fn8R34XvwnggrBkOBACCAkECSEfEIp4RDhDKGD8IIwTFQnmhHdiWFEAXERcT1xH7GReJPYSxwmaZCYJE9SFCmNtIJURqohXSI9Ir1TUVExVnFTmakiUlmuUqZyVOWKSrfKZzKVbEXmkGeT5eR15APkc+T75HcUCsWc4kNJoGRT1lGqKBcoTyifVGmqtqpcVYHqMtUK1TrVDtXXakQ1MzW22ly1XLVSteNqN9UG1Inq5uocdZ76UvUK9VPqd9WHNGga9hphGhkaazUOaVzV6KPiqeZUf6qAWkDdS71A7aEhNBMah8anraTto12i9WriNJmaXM00zWLNI5qtmoNaVC0nrRithVoVWqe1uugI3ZzOpYvp6+nH6HfoXybpT2JPEk5aM6lmUsekj9qTtX20hdpF2rXandpfdBg6/jrpOht16nUe62J0rXRn6i7Q3al7SXdgsuZkj8n8yUWTj01+oAfrWelF6C3W26t3Q29I30A/UF+qv03/gv6AAd3AxyDNYLPBGYN+Q5qhl6HIcLPhWcOXDC0GmyFmlDEuMgaN9IyCjORGe4xajYaNmcbRxvnGtcaPTUgmLJNkk80mzSaDpoam003zTKtNH5gRzVhmqWZbzVrMPpozzWPNV5vXm/cxtZlcZi6zmvnIgmLhbTHfotLitiXOkmWZbrnDss0KtnK2SrWqsLppDVu7WIusd1i3T8FOcZsimVI55a4N2YZtk2NTbdNtS7cNtc23rbd9PdV0asLUjVNbpn63c7YT2+2ze2hPtQ+2z7dvtH/rYOXAd6hwuO1IcQxwXObY4PjGydpJ6LTT6Z4zzXm682rnZudvLq4uMpcal35XU9dE1+2ud1marHDWWtYVN6ybr9sytya3z+4u7tnux9z/8rDxSPc45NE3jTlNOG3ftB5PY0+e5x7PLi+GV6LXbq8ubyNvnnel91MfEx+Bz36fF2xLdhr7MPu1r52vzPek70eOO2cJ55wf4hfoV+TX6k/1j/Yv938SYByQElAdMBjoHLg48FwQNigkaGPQXa4+l8+t4g4GuwYvCb4YQg6JDCkPeRpqFSoLbZwOTw+evmn6oxlmMyQz6sNAGDdsU9jjcGb4/PDfZuJmhs+smPk8wj4iL6IlkhY5L/JQ5Ico36j1UQ+jLaLl0c0xajGzY6piPsb6xZbEdsVNjVsSdz1eN14U35CAT4hJ2J8wNMt/1pZZvbOdZxfOvjOHOWfhnKtzdeeK556epzaPN+94IjYxNvFQ4ldeGK+SN5TETdqeNMjn8LfyXwl8BJsF/UJPYYnwRbJncklyX4pnyqaU/lTv1NLUARFHVC56kxaUtivtY3pY+oH0EXGsuDaDkJGYcUpClaRLLmYaZC7MbJdaSwulXfPd52+ZPygLke3PgrLmZDVka6JD0g25hXyVvDvHK6ci59OCmAXHF2oslCy8schq0ZpFL3IDcn9ZjFnMX9ycZ5S3Iq97CXvJnqXQ0qSlzctMlhUs610euPzgCtKK9BW/59vll+S/Xxm7srFAv2B5Qc+qwFXVhaqFssK7qz1W7/oJ85Pop9Y1jmu2rfleJCi6VmxXXFr8dS1/7bWf7X8u+3lkXfK61vUu63duwG2QbLiz0XvjwRKNktySnk3TN9VtZmwu2vx+y7wtV0udSndtJW2Vb+0qCy1r2Ga6bcO2r+Wp5Z0VvhW12/W2r9n+cYdgR8dOn501u/R3Fe/6slu0+96ewD11leaVpXtxe3P2Pt8Xs6/lF9YvVft19xfv/3ZAcqDrYMTBi1WuVVWH9A6tr4ar5dX9h2cfbjvid6ShxqZmTy29tvgoOCo/+vLXxF/vHAs51nycdbzmhNmJ7SdpJ4vqoLpFdYP1qfVdDfEN7aeCTzU3ejSe/M32twNNRk0Vp7VOrz9DOlNwZuRs7tmhc9JzA+dTzvc0z2t+eCHuwu2LMy+2Xgq5dOVywOULLeyWs1c8rzRddb966hrrWv11l+t1N5xvnPzd+feTrS6tdTddbza0ubU1tk9rP9Ph3XH+lt+ty7e5t693zuhsvxN9597d2Xe77gnu9d0X33/zIOfB8MPlj7CPih6rPy59ovek8g/LP2q7XLpOd/t133ga+fRhD7/n1bOsZ197C55Tnpe+MHxR1efQ19Qf0N/2ctbL3lfSV8MDhX9q/Ln9tcXrE3/5/HVjMG6w943szcjbte903h147/S+eSh86MmHjA/DH4s+6Xw6+Jn1ueVL7JcXwwu+4r+WfbP81vg95PujkYyRESlPxhsdBRBU4eRkAN4eQOeEeABo6FxOmjU2W48KNPY9MErgP/HY/D0qLgDUoEYxFnHOAXAUVfPlaG70WjESRfkA2NFRqeNz8OjMrhAc+vWy20dBndqC5eAfMjbP/1D3Py1QZHUC/7T/AqgHDBuHvzFvAAAAOGVYSWZNTQAqAAAACAABh2kABAAAAAEAAAAaAAAAAAACoAIABAAAAAEAAAJWoAMABAAAAAEAAADoAAAAAJB/8SsAAEAASURBVHgB7Z0FvAVF2YcHpUQQlVAJAZEUAYNORVKQUkIkDBQQTEBBKZEuCSUE6ZQSQUCRVkLEIFTSAExCKUFlv/cZnf3m7N065+w5d8+5//n97t09u5PPzM6+O/POO9Mk5pycCIiACIiACIiACIhA3wRe1ncMikAEREAEREAEREAERMATkGClhiACIiACIiACIiACDRGQYNUQSEUjAiIgAiIgAiIgAhKs1AZEQAREQAREQAREoCECEqwaAqloREAEREAEREAERECCldqACIiACIiACIiACDREQIJVQyAVjQiIgAiIgAiIgAhIsFIbEAEREAEREAEREIGGCEiwagikohEBERABERABERCBaYVgNAj87Gc/c6effrq7//773dxzz+022mgjt956641G5oeYS3EaImwl1TcBtde+ESoCEWgfAba0qXKHHHJIMs0003T1d9ZZZ1VFW+v+t771ra7SJZ9HHXVUrbgH7eld73pXrbxPN910yV/+8pfC7Jx55pnJtNNOy9ZDHX+77757YZipeEOcqmu9l2c5fvZf/vKXJ69+9auT+eabL3nrW9+arLLKKsnHP/7x5NRTT01+9atfJS+99FJ1JuTDExiH9tpUH6cmIQLjRMDVKcw3vvGN5LWvfW3HSz37ks/+Xn755etEXenn7W9/e1fp0ul/85vfrIx3GB4+9rGPJQsuuGDCyyjLJ/v7kUceyc3SX//612SWWWYpDP+jH/0oN9xUuyhO9Wq8l2c521bLfr/pTW/yz98LL7xQL0NT1Ne4tNcm+rgp2gRU7DEmUEvHascdd3SPP/64e/TRR90BBxzgXvay6mC33nqru+OOO6wP7t3dcsst7s4776wVwW677eZ+97vfuSeffNLZw14rzKA9mYDnHnjgAffnP//ZrbXWWj0lB8enn366MOw111xTeG/Ub/zzn/90m266qVt11VXd3/72t9LiTGVOpWAyN8OzbIK8++xnP5u5m/9z8cUXdzYC7a6//np3yimnuI9+9KNugQUWyPX80EMPue23394tvPDC7uc//3muH110blzaaxN9nNqDCIwbgWoJKSrxXHPN5fbcc0+38847R1eLT4899tjimzXu1A2/7rrrukMPPdS98Y1vrBHr8L3MNttsbpdddhlIwlUCx0ASHVKkMLv44ovdTTfd5AXmfpIdZ069cEFP74gjjnArrLBCZfB9993XbbXVVm611VZzH/nIR9zJJ5/s7r777tKwfOTg/4YbbqiMXx4mEhi19jrIPm4iHV0RgXYT6EqwCkVZaaWVwmnp8fzzz3c25F3qp+jmn/70J3fhhRcW3e64jmDVdseLrBc3xxxzlAZbbLHFSu+P6k3T2fEv8Lr5n6qc6vLJ82e6U2799dfPu9Vxbc011+z4zY+ZZprJXX755e4tb3nLhHvhwj/+8Q+35ZZbuueeey5c0vF/BMaxvfbax6lRiMC4EehJsHrDG95Qi4PpWbiTTjqplt+sJ8L961//8pdf//rXZ293/K6bn45AQ/5hyuc9pbjMMsu4FVdcMTcsXDbffPPce6N8kSmkT37yk10VYSpy6gpQged555234M7/XzYdwf//EZ2Z3qXbe++9oysTT//4xz+6uiPPE0OP75VxbK+99nHjW8sq2VQl0JNgFcNaZJFF4p8Tzk844QT373//e8L1sgsIVCeeeKL3svLKK7sll1yyzLt7zWteU3p/lG+iz3bBBRe4d7/73R3FgPsVV1zheLmNk/v73//u3v/+97vnn3++q2JNNU5dwSnxPPvss5fcrb61zjrruKoX6mWXXVYd0RTzofY6xSpcxZ1SBPoWrHbYYQdn5gIKoaEke+mllxbez7uBXs1jjz3mb3U7cpEX36hfY4j9hz/8oUMx+KqrrvL6Lffcc4+zFZOjXrSO/L/44otuiy22cA8++GDH9bo/pgqnujyG4e9Vr3qVQ/eyzN13331lt6fsPbXXKVv1KviYE+hbsKJzYOVWmet2KuC4447z0THVVRV3Wbrjdo+VWGuvvbbXaymanhnVMjNK+YEPfMALjv2WYZw59ctmEOFRXC5zKGKzwlMun4Daaz4XXRWBUSXQm+JPprSf+tSn3HnnnZe5+v8/b7zxRvfLX/6yckqPEOjX3HzzzT4wZhPKRsP+P4XezsyYobdk/uyzz7r555+/72k1pq8YocPkA0LhPPPMU8s0RW+57y0Uo0KMBppBUjfjjDO66aef3ped814d5f3DH/7gdeLQd3vd617nuhH8yBO6Ym2bMmJaEhMjsGK6izrlQ+IVr3hFr6hqhcM8x+9//3tnNtm8WYOqqbZakQ7QU9UzynRjr+2r6We0DANmTdjZYIYZZvDcUdCvcqg5MMJKH7LQQgs5szlXFWTo95tsT8Pu44ZZ//Td9I2sLudZlxOBXgk0IlixZPud73xnqd0qRq2weVLlvv71r3svvEw+8YlPVHnv+v5vfvMbh94X9rHYTiK2EcUL4EMf+pA3jWCGDmvHja4To2w/+MEP3H/+85803KyzzurMKrX7whe+kF6re0KcZpm50vuBBx7oqvJK509cF110kZ9SzI4esDqMlwJmNFhO/8pXvrI0XUYgsGd0zjnn+OnJZ555psM/QhXC1bLLLus+/OEP+613ioQDhJeNN97YXXfddR1xZH8w5RyvpEKhH4G+SU6kSVlog7DCDpvZsOvICoKoWZv2q9223nrrQsG5Tr7QszGDnV6AQsn7a1/7mn9GEFSDg9ub3/xm34a23XZbR121zT311FOlWaJv6Mb184x2y53nH7MTtGderLHjBYutL2x/IWzFjmd9//339/aowiIb7ptFet9/0DbzBM46+SOe7HNdJ9wg2xPpN93HUc4810/9m8HkWoslAl/6wqOPPtqb63niiSfS7NB3oee79NJLp9d0IgK1CfRi/NRGoFJL4KZY7aM444wz0muW+IRz+8pPrOGWJmdGSBP8EX6TTTZJ/ZpxzQnxxWmYkczUb9nJ8ccfn9hXaGlcxGuCQXL44YeXReXv2Us4MZ2gyvhs5Cqp4mOdekd6ttqqMl7yWlV2081KzCTDhLgoI1uVxBw5t2mdpMiau71AEtN5S+wlMyFcNp74t339JaGddBTSfuy7775dxRXiNaVpH1VTnIjs3HPPTchrSKPquNRSSyW33367z0f2X918mf5RctdddyVzzjlnZbpsH0MdNOm+973vVaZrZhMKkzRTCokJEKVx7LXXXoXhszf6fUa74c6zY8J6ad5pA2zdY8Kjz6p9CCQbbLBBZRhbXJLY6Ee2eEnd/GWf67rhmm5Pg+zjJsCxC/3WPzsLVD233Icv1u9tdWahf/oCM/uTl01dE4FSArW2tMnGkCdYmeSf2ChFYSOlMR922GHZqDp+cz88FHHH0q9ghcCW1xnaJsaJTWEldB5m+DRNO+TBRm868hf/sKH/ZPXVV58QJoTt9pgVrBBCzz777MT0L0rTiDnF+eOc/dsQoOK88JvrlNlGSRKbuuu4j19TSE5uu+22juhsus4Lu3Fc7BdnCw0Sm2pIuH/vvfcmpic1IT7C8PK1r/yOOPlx8MEH5/qP08k7D4J3E5zIx1e+8pXcfCD40UbM4GViIxcT/CCoI5xknY06Jd/97neTqi2Zvv3tbyc2Ujoh3rwyc81GtbJJ9fW7X8HqyiuvLM077S3blvIy3NQzCnezr5XYiENpvngGbGS21E9cB9tss43/MLQVyrXDBOE/Lm+v7XUy2tOg+7iYS1P1byOQyfe///3KvpkPvbwPzrjOOUdQkxOBbgk0JliRcNVXlekxJTZVlptHrgchggYfu34FK9PfmdAZmomGjq8R0n/HO94xwR+bQOc5mzab4Dc8lLadR/Kd73wnsakk/2CSVrhXdMwKViHNq6++ujRskWCFwJM3IrXHHnuEqP2xqBxmdLXDHxs+Z/O+6667dvgJP2yaboJfwrLnoemwBG/pEfYI5tn449+//vWvfdvBL39Z1ysn4jGbablpb7jhhh3JIDwuscQSE/wiNJoOYYff8IONieNyFJ3blF9ihji9QGBTOoVh2AuTF15Trh/ByqaYEzOHUphXylpXEGz6GTUdtdJ8hXqg7sxCfEIfE0bLw734yLNkW/ukcTIiZcZVKz8mGQXNc72212G2p6K+AS5N9nHwabr+TV1hwkdlXJ91z2EgJwLdEmhUsDJF38ppAQSOPMfXfWjsxxxzTIeXfgQrpsJCvPGRBznrTBdqgl+EAVNe7vD629/+NjFdmwl+iZ+pNEaCYof/qqmeIsEKpnG+s+d5ghWjUWb4cUI4XsrZzXF58WXj5PfMM8/sR6FCOeKXSvAPA9vaJHhJj6eddlpunIQz/aXUX3yC0BLizTsyxVHmeuFEfNRt3gbjCDdM0WWd6ZXl5pNpujxnyreVzwQfFHFapv+Rm0bgEvvNS7Oba70KVtS76caV5nO77barlZVBPKMkbDqOpfkzq/HJL37xizSPjKgGxkVHRihN9yahXnFM99mChsJwpmuVxh+f9Npeh9WehtnHDar+y+ol1C8fgQiJ4Xf2+MUvfjGuNp2LQC0CfZtbsIaYOuzZsGS+zBWZXgjX7YXutt1227Ioat9DqbRoj748a+Y2YjUhbpRbbUqu4/p+++3nTBDouBZ+2CjOhBUlKLQeeeSRwUtXx15WoLFRNqv0sg6la5SvY2dTNfHP9NyEs3R/PlYV2TRfei+cwCCYxgjXOJYp0w9qY95eOJFXG4lzNj3DaYdDYdxGpzqu8aPIdhj7GeYtNkDZPKv4HEeKqQJsk8VpsdiBhQ9Fzl56RbcGcp2FHjbl50xgdjZl6hV6ye8ll1ySmx6r6VAOrrPrwqCeUTJW1ibYWJp9DGPjw+95z3tcmekIVjbaNJNfkEK94lgFy4KXImcjTLm3yvKWG+B/F4fVnobVx01W/YOTxSc8t7fccotbdNFFc7FnDTPnetJFEcgSqCV+ZTzl6VgFL9ZIC6V/S9vfQxcndrYKJJ22spWA8S1/3uuIla3+K8zLtddeOyEdlLZDHuOjrXpM/TIlldVbiv3ypZfnmCqK/WXPi0as0MnI+o1/Z0esYFk0mpY3WgSHOL5wjr5ccGaYNNcPft/73vcGb+mR0YwQT/aIsmie63fEqltO5ME61cJ85pWLMExD2ksxNxzMUG7OOkb/shzC77w6IXyZUq19hGST6Pl3nRGrkNeqo31Y+cUNRc9AXiYH8YyGdMoWIpx11lnBW8exTG/SdgTo8Bt+mEBdWL/2kRG8dRx7aa8hgkG3p2H2cYOsf/s4KqwXZiKYLgwOPdHllluuw//nP//5cFtHEeiKQKMjVtbxuuWXX96xD1aZy45ysLzdcu2DNGlp/Sc/+UlhNvK+TIts0GCWwV6oPi6bskzPs5ETJ6NTk+lgWTSaZkPeE7KGqYzs6B3LtuMRNtONK9w2CDMN3Tisx7fFYVKhyDFiledgU1RmRvZYht+NKxq5KGqLxI2JijY6RoB4trt5BgbxjNZhkx25DWGKRi64XxSmbFupomcxpNf0sYn2NMw+brLqf4011ugYnTRVDW86g5F5RmdtsYqzleFNV4/imyIEGhes4IYNlzJnpgecLeH2XphyYooBZ3oqzpY2+/Mm/mEPpcixQTTG4OK/2KZVHA5bJ/YV5y+VCQamdB8Hm5Rz078pTDdvXzimN+hIsOODQVamxn784x+7D37wg2k8TD8wrZOd0kLgsq+61F+dkyBA1/E7aD9sC1TkyvafLBN6yuIsSivvOgJcWxw2tsqmd0M+beVc4UdH8JM9DuIZzabRze8i4aksjqLp9LIww77XTXsaZh83WfVP35Xn6MPZ/xIbZnIi0CuBRgyEZhPfbLPN3G677ebMBkj2lv8dhCkEsFjI2mmnnXL993qxbI8yDMB147CEbcqu3iBmUTiMYk62y9OFCnkqEgjY7w3DoPwVOTZGxtAjhgKxRI7uwaqrrpoarERXghELW5zQOgvqRWUqE4LKLIWXGVAti7MoH22/Tnltdaw3jFomGKOr8tWvftXts88+tYs0iGe0duLymEugTLBquo+brPpnVwM5ERgUgYF8FvPVV2U1nSkrtivgiDN9iEb3BWS6BAGgKRdG2Mo6HZR2J9OZLRjHdFSR434/jq88pmpRbLUl6l6oYnQLgRglXjMX4KeCEELb7rAWzmhlkSsTrMrqeRwFKxhR33U+fBCsbr311iKsHdcH9Yx2JKIfXRMYVh+n+u+6ahRgRAgMZMSKsrMFyUEHHVSo78OXii1lTVebbb/99rlbQPTKEUGIKayiL2xG1N73vvfVjp7VYAiCzL0XuSL9hiL/TV8vG60iLVOQ99vM9Jsu+4WxAo6VnKao3hEdQgfTRtnrHZ5a8CPeNiYvO0XTwvgtq+cHHnggL7qxuHbIIYc4U3Z3Dz/8cGF52D6JVXKs/mSFb5kbxDNalp7uVRMYZh+n+q+uD/kYTQIDE6wYgcL0QtZUQYzJLK37n+yHxp56TTpejEVCFenQ6Ztxw66SZLqL0bgihVReKpPpyF+ZM9s5Zbcr78GT/R4ZscqO9jCdaNbrHQIyozZME7bZhcUIRXks07EqCzvOUwxMCaKLh+Jv2bPFpsRM8zN9WOYG8YyWpad71QRo28Pq41T/1fUhH6NJYCBTgQFFkQ2pcD8cGTmy/fTCz0aOZS9GEujFnpJZaXZFmwkTJyM5k+nKVjSRrzJF0ap80+GyoTJTvFmhilEqdK+wv1S2QqoqjWHeZ1StbOSJBQtFzvbHK7rl9fAKb47BDWyhMRpd5WzLGL+RdZm/QTyjZenpXjWBYfZxqv/q+pCP0SQwUMHK7II4/qpckyYWQlpVL3hMKPTiipbaE5dtNdJLlI2FwUBr2YjJ+eefXzjaVpYJRsK23HJLd/rpp+d6u/DCC7se/cuNaIgXWSVVJoiyarTITWXBCiaHHnqoK1pVFTNjFDorhMf3B/WMxmnovHsCw+rjVP/d141CjAaBgQpWIKgyvcDy1kFYt8U0QJ7dplAtWK82A3HhZ+1jkX0jIiDOyXZYlC5ylPfSSy8tul14HXMYtllw7n2WJdu+grn32n6RVZ5Frmz0caoLVkyjn3zyyemK0CKGWLRnF4WiacNBPaNF+dH1egSG1cep/uvVh3yNHoG+BasyfRNwsEyfFWNFbscddyy61fd17GKVueOPP77str9ne4n57TkwEYEr63Rsg+HCl4gPPIR/8RYdecnV2WYkG67M6CUGYUfVYT6iyKHoX+Sw65TnWCyBwdWp4NCzqqMXaTsDONuPshDJIJ7RwsR0oxaBYfZxqv9aVSJPI0agJ8EqVt4uslUVOKAIWaSTwZdvnX0BWalS5opWeFWt+qPDLzMNgLFN9g/70pe+5Pbdd1+fhbXXXrswK4xy3Hbbbbn3ywx3EqCqjLmR5lzEYGfWkGfszTY8dazuKnOYbNhggw38Hlrky7a9KfSex69sRV1hRBU3YkEHsxFLL720t5VWEaz0NoJBkeHLotV9lC2vzCTE3mNVgm1phibhZtGzE2elyA+LT+pYWd9jjz1cUfsfxDMa513n3RMYZh83yPov61PL7nVPTCFEoJNAT4JV/JIregHFyaDwjICVdVtttZVjNVmVy9tQOA5TpMeBcFA23cNUBVZ2s8vHmbpgNeNKK63kpwvnnXdebxqCNLm28cYbx8l3nNvO9x2/+YHwyebMZa5IQI2F2Lzw2Q6Cr82qtDBzUbRiixVdKChffvnl7uCDD/YjcGX6RrfffnuH7SxMPnz0ox/Ny6q/VjQthM5TmQXrm2++OY0TQZ2RxFjg65YTkaG8Hjb/TiP/3wmb5+bFyYrHvDLQjosE1rLVmtn6C/kous79snshfN1j0bMThy8aocPgLKtEqxztB0v+ee1oEM9oyE9e/YV7RQyLrhOu6F7R9bIwZXkrC8e9QbenYfZxg6z/sun8XtRAYC8nArUI2Euia8dmpBa5/zNl6cTskVTGYV/zaZgQlo2Jq5yZCEhspcqEsCEOjmaYsjCaq666qnTTZMKb0JeQvwMPPDCxlW2JbauTpsc9G4XqiN9scJXmyYSy1L+9iBPT9Urji/Mdn5vV88TMNaThwknVptbnnHNO8JoeTYk+sZGE0jTZSNq+TJOjjjoqIQ04mcCS2Ao/H84EtMSEPR9nVVzwMmHOb8hso2Wl6VJmMyqa2ChGYgJtmmdObBSqMCzx2iKHxEaEvB8TxBLbZywN3wunENgE5dx08zY7NqE01+8RRxwRous4wjCu5+y5Ca8d/sOPUM6sf37DoSm3+uqrl+aP9ChzmTMTG5VxEM+nP/3p3GgG8YzaKFtpnswwcW5ebNeIwnA2ep0bxhZ1FIah/zDBa0K4XtvrsNrTMPu4QdS/CfGl/X5RXU6oKF0QgR4I8PVd2yFA7bXXXonpknR0JEsttVRiU0wJjbnI2chGRxibWy/yml7/0Y9+lNiGzh3h8l40XEMgincrTyOxE5vyqxVHNm7KaSNQcVTpuRkYLY3T9HcSGy1L6ggaIV1TBE9M5yxNgx3X11tvvdJ0TNclV7A1vajErIeXhg3pZo+2urBD6CkSPLLhwu+66W6++eZpWTmh7CGOqmP8ku6HE+naCGyy4IILTkjbbLElNqqJF+8QkvOEfOrIRhGCt/TIS3C77babEG9cNgQo8h8700ua8IzFYUxnManzURLHmT0nb5/73OdK8xbSNPtVCUKmjQBko/G/zYJ2YqO6lXHxPNlCiNw4mnxG+UBB+Az5zzuaLlyC8BW7O+64I5l11lkLw/Es4yd2tJ0q4dQU/eMgvr57ea6H3Z6G0ccFME3WP4Ls/vvvX1iPtAfaIgKx6QiHLOgoAo0RqCVY7b333gmdOaMEeZ1UuMZ9W4bd8VKOc0pnFvyee+658a30nIZuK9sSm2ZI/YYwdY62l1WS7ciI3CxG1+r8Qxq227kPk2Ys58SWnZd+FYW4eBmfcMIJtcoDPxz+zWZWrTC8+Gxqb0IOr7vuutIXRchffDTzGIlNg3XEZfavasfD6JVNJyY2xVqad1tqPWEkkBEom1IrDUdeV1xxxcR0nXwem+BERAg3eUI8I3hbbLFFwkhGXt7Mynhi0zodvPjRTb4Y1TjggAN8HG9729sqyx/qixd6t84WbCRzzDFH7TRCWhx5vhH+bcuaCcleffXVteNcYoklEtOTmxBHE88oz0Hd8tlUcHLcccf5fNjeobXyzwuZkV4c/WJVnxj4LbDAAsmNN97YVbuIn+vJak+D7OM8xOhfE/Vve5X6d1XgXnXkPWOr0qNc6FQE+idQS7CyPcJqdTo0Yjoe22sqN2dMW+GHkYC8lxGBEKzo8KoeiLL7Rx55ZG76jLgx3UUei8LTUW600UbpNFhuRNFFRhcQworiM1tJCQIOX9GxHzr/9ddfPzFlc9+5mxkEP7Vl+iw+dqaIYv9V54cffniUq/8/5SvXDHtWCoAIpKeeemrutAWxUQamB4vyYUrgCS/tMKpx0003JUwT5/lntJLRnzz305/+NJl99tlzwzF9aYsIOqZMm+JEXqgjpojK6jOUh3o1PbS8Ivhr3ebLzJL4cEVlD+nGRz5AunXd5itOL5ybvltusqZbl1tvIVw48sFQNLrc7zPabfloTzg+aEL+qo6Bezf9InEiOHSbv/BcdxuuyfY0qD4urxH1W/+MiFbVX/Y+7yM5EWiSwDREZg1tSjlWOdkL3NmwvrMpFa80jUkIFL833HBD1+0O7picYNUTGxKzKhBlVlaboQTKxsQmyCHAepte2NZipSH2u4bpWEmHdXTKbcKWYwNU+4r2q9hYyWYjJQ4L6mXOBA+HMdA777zTK/yzbZGNPjgbpfKGYLPK5+yreN555/n9IGES/LGhb5lD6ZQ0YMmegxg+Za9GG1Vo3EJ/Xj6oTxMMHSsoWajBZt5Y3Ke89gJ2No3jbPo7L6iuNUSg6We0oWxN2WiG3cep/qdsUxuLgk9JwWosak6FEAEREAEREAERaB2BnswttK4UypAIiIAIiIAIiIAItICABKsWVIKyIAIiIAIiIAIiMB4EJFiNRz2qFCIgAiIgAiIgAi0gIMGqBZWgLIiACIiACIiACIwHAQlW41GPKoUIiIAIiIAIiEALCEiwakElKAsiIAIiIAIiIALjQUCC1XjUo0ohAiIgAiIgAiLQAgISrFpQCcqCCIiACIiACIjAeBCQYDUe9ahSiIAIiIAIiIAItICABKsWVIKyIAIiIAIiIAIiMB4EJFiNRz2qFCIgAiIgAiIgAi0gIMGqBZWgLIiACIiACIiACIwHAQlW41GPKoUIiIAIiIAIiEALCEiwakElKAsiIAIiIAIiIALjQUCC1XjUo0ohAiIgAiIgAiLQAgISrFpQCcqCCIiACIiACIjAeBCQYDUe9ahSiIAIiIAIiIAItICABKsWVIKyIAIiIAIiIAIiMB4EJFiNRz2qFCIgAiIgAiIgAi0gIMGqBZWgLIiACIiACIiACIwHAQlW41GPKoUIiIAIiIAIiEALCEiwakElKAsiIAIiIAIiIALjQUCC1XjUo0ohAiIgAiIgAiLQAgISrFpQCcqCCIiACIiACIjAeBCQYDUe9ahSiIAIiIAIiIAItICABKsWVIKyIAIiIAIiIAIiMB4EJFiNRz2qFCIgAiIgAiIgAi0gIMGqBZWgLIiACIiACIiACIwHAQlW41GPKoUIiIAIiIAIiEALCEiwakElKAsiIAIiIAIiIALjQUCC1XjUo0ohAiIgAiIgAiLQAgISrFpQCcqCCIiACIiACIjAeBCQYDUe9ahSiIAIiIAIiIAItICABKsWVIKyIAIiIAIiIAIiMB4EJFiNRz2qFCIgAiIgAiIgAi0gIMGqBZWgLIiACIiACIiACIwHAQlW41GPKoUIiIAIiIAIiEALCEiwakElKAsiIAIiIAIiIALjQUCC1XjUo0ohAiIgAiIgAiLQAgISrFpQCcqCCIiACIiACIjAeBCQYDUe9ahSiIAIiIAIiIAItICABKsWVIKyIAIiIAIiIAIiMB4EJFiNRz2qFCIgAiIgAiIgAi0gIMGqBZWgLIiACIiACIiACIwHAQlW41GPKoUIiIAIiIAIiEALCEiwakElKAsiIAIiIAIiIALjQUCC1XjUo0ohAiIgAiIgAiLQAgISrFpQCcqCCIiACIiACIjAeBCQYDUe9ahSiIAIiIAIiIAItICABKsWVIKyIAIiIAIiIAIiMB4EJFiNRz2qFCIgAiIgAiIgAi0gIMGqBZWgLIiACIiACIiACIwHAQlW41GPKoUIiIAIiIAIiEALCEiwakElKAsiIAIiIAIiIALjQUCC1XjUo0ohAiIgAiIgAiLQAgIjKVj96U9/agE6ZSEQ+Pe//+0eeOCB8LPj+MILL7jf//73HddG4ceo5nsU2CqP40mgrB8YzxKPXqnUrw2nzqatk8x3vvMdd/PNN9fxWupn1llndV/+8pdL/eTdfPrpp90Pf/hDd8UVV7grr7zSveY1r3F33XVXntfWXKOTgdvVV1/tfv3rX7vf/va37oknnnB//etf3Ste8YrW5LPXjDz55JNpnXz3u99173jHO3xZ4/juvfdet/rqq/sy77jjju4b3/hGfLu156Oa79YCHZGMbbrppu7GG290b3jDG9zrX/969573vMd94hOfcPRb4+r4ILrwwgvdj3/8Y99H/e53v3Of+cxn3H777VeryHX6gVoRydPACYxyv/aLX/zCrbDCCv655Nl805ve5HinrLTSSgPn1lMCSQ1nnUtikff9N9tss9VIrdOLPeDJdNNN15H2Ekss0empZb+eeuqpZM0110zzPMsssyTbbLNN8v3vfz956aWXWpbb7rNz/PHHJy972cvS8tE21ltvvQkRHXDAAamfaaedNnn++ecn+GnjhVHNdxtZjlKeHnrooeTII49M7GMgbbevetWrEvugG6Vi1M7rt7/97cQ+8tKyvu1tb0sOP/zw5I9//GOtOOr2A7Uik6eBExjlfu3FF1/0zyGyyJxzzpm22XXWWSf517/+NXB23Sbg6gRAKODlyctxiy22SC644ILEvuySe+65J7ERmbSQ+Nltt92SX/3qV8ltt92WXH755cnee++dgnjlK19ZJ7kOPwC1UZ7kC1/4QppO2wWrzTbbLM2rfQUnzz33XEeZRv2HjcYlf/vb35IPf/jDaTk33HDDCcX63ve+l95fbrnlJtxv64VRzXdbeY5ivhCwwsfk7LPPnpj6wSgWozDP9N3TTDONLyPC1fXXX1/ot+hG3X6gKLyuD5fAuPRrjz32WLLoooumz6fNgg0XZI3UaglWH/jAB3wh+JrJOpviSgtIR/S1r30t6yWxIchk+umnT17+8pdPuFf3wk9/+tM0nTYLVoxIMTIHCxuyHDuhKq6vc889N60TBMg8d8sttySnnHJK8ve//z3v9qRc44XACNv9999fmH4b812YWd0YCIGtttoqbd+nnXbaQNKoG2mdNls3Lvwdc8wxadmOOuqoboJO8FunH5gQSBcaJ1CnjYxLv0bfHT585p9//sZZ9hthLeV1m8Lxegef/exnrSzdu8UWW8x96EMfcv/5z3+cVX73EViIGWaYoadwww509913u8cff9wnu+yyy46FPlURw1hXzITmXG/LL7+8+8hHPuJsSiX3/mRc3GuvvZx9vTkUOYtcG/NdlFddHwyBNdZYI40YHY/JdHXabDf5sxGq1Ptqq62WnvdyUqcf6CVehemOQJ02Mi792pvf/Gb3xje+0QNCf/kf//hHd7AG7LuWYPXPf/7Trb322s70anrOjk0V+bBlL7OeI29RQJsiS3OzwAILpOfjftJP2xgmGxTtDz744GEmqbRGlAAfhMFNZsc9iDY7qH5qVPqBUK/jchxEG2k7m7Y8n3mcaq0KPProo93MM8+cF772NQSz6667zpmeVRqG0as//OEP/rcN5zmb80/vjeqJDSGmWR+H8qSFsRPKxmgcqzKzI1RVZWXUM/6yjePNnuPXFBJrj3LVbUesLP3gBz/oy5FNs+h3N/m2aWDfhqtYxGlRTpwt0Egv8yHDC8qmz9NrgzppIv26/AdVhjrx0na7qRfijP1Tt006VtOZroibb775SvvWXtpsnXz200/10w+EvPXyrBAWgZD055hjjhBV5bEu66KISPPVr361Mx3jIi+l13tpe6URZm720ka66dcyybXm5yCfz34LWWsIavHFF0+H3XpNkKk8W23jg2M24Z3vfKebccYZ/bJJlk7ysmZ584MPPthVEnTq6667rrNVeBP+Pvaxj02IC9MHu+yyizNlav/iJl2Gwk2HYoLfXi502wHbChx32GGHOdMb80fSvOqqq9x2223nGO5EGFlmmWX8tZAfHnTMVrzlLW/xU6SmyOc+/vGPuz//+c/By4RjP+W+7LLL3AYbbOBMidd3aDCD+c9//vMJ6cQXbOGB40vq/e9/v++YykYrWe7NdDFlQYhnibut/nA77bRToR2sbtrRxRdf7N773ve6Z555Js2iLTLwS3hZxhubE+km34SjnWFuYqaZZvLlXHnllX2+77vvvjSt+ATBCVMctijE87TVWX6K/OSTT3brr7++fxZgvfnmmzuGuZt2TaXfDf9QhmG1d15mtmrNbbLJJm6eeebxdUPbsgUX7pFHHgnZqX3s9rnOi5jnFlMGPD+vfe1r/TPPFPkiiyziDjrooAlBummzEwJXXOilPL32AyErvTwrhKW9Yv4BYYo/+gX+Nt54Y8ezlveMdMs65DEcTRfJMRUc+jzqibQ+97nPOdMpc6bj4/sShDbaWuyabntx3NnzbtpInX5tWM9nP++jLAN+99Ke8+Jp7Jo1gr6cNepUicwylau8HifAKkH88XfiiScmf/nLXxLTS0pMePDXzIZMYtDjIP4cPyFcVnndbLEk9hD4+yjJsyrPbCb51YlxRJdeemmC6QOWa+LHXlyJdXBpvCbY9W0SIF4laZ1onHzHuQlP3iQDCv2hXLCxEZX0d7jO0aTzBMXDW2+9NV1lGd/nfMUVV0xMeOlIhx/9lPsrX/mKT5tl5zaFltxwww3J6aefntg0Z0c+yXdwrDjadtttExOOOvxYBxm8pEd7IJJDDz3Urzidd955/XJ3Vq98+tOfTsOStglxaRhOum1Hph+Y2KhpGie8Vl11VX+N63DtJt8s8f3Sl77kzU6YQJV88Ytf9G1/yy23TEww9OmYUOyXr5tuYZr3/fffP2F1bFx3KA9bp91xLdw3gS3J45ZG2OVJU+l3y3+Y7R1zJ/Yh4HnC1XT8ElalBqb0AfZCqiRHmwhhtt5660r/ZR7MSG4y99xz+/jM9k5y5513+pW1X//61/2iHtKxl3ZHFHXabEeALn7Yx0RaNnhVuV76gRBnr88K4ekfQl2+733v86vNf/Ob3/jV56FuzKZhSMofe2EdR8DzSL/M83vsscf6trLRRhulvEK64cgK+OCaanshvqpjnTZSp18b5vPZz/so5oGphVAHNiAT35r0c6Ttvlw3gpUpgKYg3v3ud3ekG6/6sxGAjnv8KBOszjnnHP8gLLTQQgnx5LmLLrrICwj2ddixdBohDkErVNDnP//5vOC1ryF0hLgwEVHkbCTHm5BgKXfwz5GHmZeWjeAk11xzTYIQGe6bsp6/z8v2hBNOSOhQsCWDGYzg56yzzupIsp9yIywQLy8ihLrY2ZdNYl+PabqxYPWzn/0s+eY3v5nYaEF6n3jyBAReJtx761vfmrCMNjg6VFP+T8MjBAXXTzuyIf00zuzD2E2+ERwDc4TN2LF0Pba9Rn0GhykSXlJB+ApxwHLffff1L45TTz21w76QjWSF4H0fm0i/F/7Dau82gp28/e1v93WTXaEcC+sI/aaGUMoTu1ahfvjo6sfZ6EoaF6ZqYhcEBz6e8vJU1mbjeLo5jz+MbFqoNGiv/UCItNdnhfDhQ5U+zkbkQ5T+GPqObJ/fD2viCh+78WpJhMOscE574u/RRx/1+Wmy7XUUtMaPsjZSp18b1vPZz/soiyGYgeIZtdHQ7O1J/T1Uweqkk05KOxebFuwoOMvxQydmSmkd9/hRJFgx2kGHZNN5iQ3LTgjHBV7ooSPJvgS5v/vuu6dpm25LgrDYq9t5553TuHhBVrlPfvKTqX/MM9x+++0dQfiyDVw4IsBkR6V23XXX1A/xBddPuRkFZPSPNOlY89yee+6ZpsvS9KzD9k+c96xgxShU6MRuuummbHA/6hjCU3/B9dOO4g6IF2eeq8r3tddem5aLhzvPmV5i6gchi/YbO5uWTO8j7D/88MPx7SRe6l828tkRqIsf/aTfD/9BtneKH/L2rne9awINU0Dv+AhhJKvMIdwHARhBjN+9urnmmiut76zNKEYdQjs///zzJyRRp81OCFRywabJ0vRMx6vEZ5L02w/0+6wwKgwbniHbuaIjrwih9NfZj75+WAchlzSzzyyjnKGeGHWOR6LJWJNtr6OgNX7UaSNV/RrJDPL57Od9lIfAVGjS+sDuXJtcLR0ra0yNOBTYMUePsxGIjjjRTwmO+fEqZ52cMyHGmVDkzGipM6vmXr8lLxxbqdiLyysfMlfO0un4D32H4Ii3Snco+M0e77jjDmfClL+MjhB6SFUO/YrgbLjZ61OF3xzNGrIzu1jpJRvtmKDUvPTSS6f3bWo1Pe+n3CZMOebkURBk64A8h85KcPjLujjf2Xv8pv4wwWFTmF5/Ievnox/9qK9bdMnManB6u6l2lJdnEqnKN3oywWFKIs+xFQq6NDj72nV77LFHh7fwHHDR7MS5+W3xRuzQ+woOfYSmXT/p98N/kO0dhVyWnOPQC42fcc5NkHb20k1R2kdLep53QvuwDxl/yz78nL3k87zVumZTif5ZQmcnXs1E4G76vqI2WysT5slePl7HNPi3qetwmnvstx/o91kJqwx5htBljFdnojvHavOYH4Xoh7VN66Uc0OOKHf1UcM8++6xj+5/gmm57Id5ejkVtpKpfI61BPp/9vI/yONjUsLPZFH/riCOO8O/4PH+Tcq1fKa+bqUDSYrQlO9zNMJ4pa6fSJ1+JWRePWJmyexLmvPnqrPqSjOdiDXKaTtE5ukR1HWljrOyQQw5JDYPyFciXWh133HHHpfnZYYcdcoPYSyL1wxdk1jFtGMqCvlBwvZabOgojSeiFFDnmykO6png+wRtD4+E+x3jEitHFcM8U1CeErbrQazuKv+xM2M5NpizfjHqEfHO0zjU3Di7GW0HxFR07prtDPHmWg3/wgx+k99ETatr1m36v/AfZ3mOdqMC27Mi0e5Wjza611lppXTBCyfNWNX2WFy9T3XE4RmDQ4VlwwQXT+POMMNdps3npxdeYEWBLLQzjwoQRIPob+3iKvXWc99sPNPGsmMJ8yoZ8wwodzCrXC2v68jBCSVpMoWUd757QpkxYT28Pou2lkdc4qdNGyvq1kMQgn89e30chb3lH2geqKtQJqjLobWfli7xwg77W2/pRK0WvjiXkfGlYh+XOOOMMZx2LM6HJr8CoGydfnvzhTFHRf4UVSen4CV/8Sy21VK3Vf8HwGGGrHKuOTMDwq/P4umWlijWgjuXzVXFU3c9+kWX9x8vyGQEKrtdym/DmR5KIxxTKQ3SlxzL+eQFNoTK9THvo1jXRjrrNM3mM883y67K82wvZ2YPui8bSelNsLRxVzZa/l7xl4+jnd1X6TfAvyl+/7Z144Y6B3jIXPzdF/ljNzEbqjEbznF9yySV+hNU+PPzoSVVe43jZ3BnHBvKm/+VMN9SvTDYBL/ZWel5VL3mBGYE3vTPfT66yyirOpk38akn7AMzznl7rtx9o4llhlSyryW361OeLVeMmHPprvDtYTZ3nemENW1amU88425LNxbMBXLMPTf/uoc7ikcfQ1+KnqbZHXL24XtpIN+lUtfn4uWrifVSWN5u69SabWLHKKmVmCnDMEBx44IFlQQd6b+iCFaVhuswUev2yZ5bYn3feeX6ZfTd2QvBrErgzBW9nSr+OKbI8hwAXhmwZRs4+KHlhurlG520Kj75yTTHPT/+QRl2BpE5a3XAJ8fVT7riTiB+MEHfesduHOe50bS/IvCgrr/XbjrrNMxlCQAoONkxRFO0KkBXQ+RjgBTcurl/+RRx6ae/EZavF0igx5dLUs/700097S/103qb8723x2cq+Cbbc0sQLTvgItAUtzvSo/JSkrQh0pkvnvvrVr/q/gmAdl3tps0xJYyqAaS7TZfRtlrZJHxWm2joS+d+PfvuBJp4VyovJFtQ9eHEGh6CFiRPMVGACIet6ZY1JliBYYa7DdI7SKX0bwUs/0jHbYaN+abKDantpAl2c9NJGuoi+J3te/byPqvL2y1/+0vHuNf1p73XhhRf2qgBV4QZ5f6g6Vugvbb/99n6LEx46W3XhzjzzTG+PqZtC8pVCZxQc51deeWX42XGkkw4dNQIWFdykQzLmITalcy8c8jWIXS5bHdhkMl3H1U+5w5Y8JBqE0q4zUBEgfvhtL8kK3523m2pHcR46Uyj+hY5McDacXGoTKdZjIkys3xPiGMVjU/ybLjvCVHCxUBCu9XLEXhF6J/vss48ztQf/XNsUnh/FKhKo89JhxAt7dHxE0n8h5KCf100cxNtLm2VkylYieuOattjH/eQnP/G25RBM0BUqcv32A009KzY950ePmOGI9Z7QAbVV3A77b7HrhzWCrq1i9NHxjkLQ4iPQppe8rikfgXwc2ZRtnKS3yRguNNX2QnzdHntpI92m0a3/ft5HZWnttttuXl8bu4CMbCLg8seAzWS6oQpWtmoifQgYsosVG7uFgNI6w8Q4XnCApOPLOioUQQfHC8HMEWS9dPzmqwRFaZRVu3F0mljARdmckTQMWw5KKKmTr37KjWHS4FCGr2O0tduHOR5GZ9SxyJhmyAdfI0Exv6l21G2eyQuK9LHja6nIxW0IxdGsoFUUru3Xm+LfdDn5Ug0OAYYXb5mj3TEaUuZ4yWI0kZEd03vzitHxVEdZ2HAPxWYWKNB+iYepRaaUenG9tNmQDoq+vIjCRx9ThIygFbl++4EmnhX6HoQaHErpCLqUganY4DD4HD6Y+2XNFB/GojG4jMNQKIIwI3wYbmZ2xPSpJuwiMYi2F8rX7bGfNtJtWnX99/M+KkqDBWtBwEWR/cILL3RxPRSFG8b1vgUrhJq6jjnx4MLegeF3t0caD18wQU+Ar0hW1eV9gcWr13gwePjyHGVhiJch4PjrN89v3jW+rMIqoueee86ZAnuet6Fd67XcrKiKndnMin82ch7njSk1LMkXOSw2o1fBCw7XVDtiGq9bh4AUjzwx4lrkYgvfTU1LFaU1zOtN8W86z3GbYhVw0G/LS4cVgfQXjDYXOV7ovFhxSy65pN+tochv2XV0dcJHH6oDQf+nLEzRvV7abDYuptVYHY0rEyz77QeaeFYYjQovT/JLvhl1Y1qW/haHUBXqqQnWCNxnn322X4WInhk6cWFbHEYu4ylAnwH713TbC/H2cmyijfSSblWYmFET7+ELLrggTZLR31jYTm9M0knfghX6B7ErElrwE3diZlMjDubipc+MGtUR2NAdYDuQ8AXJkmpGrrJhw9cHCZoxNz8MzoOSdTw0bFdgdqG6HqIPccXKlLEeUbjfyzFm2s1D02u5X/e61zmzA5Rm1Yx9+gUG6YX/ncR1FoSe2A8jd7GLfzNNwJYRwVGPmFeI/XCPDpMFAoxwsvgA1087Cp0x8dAW8lw2D9nfsRBIRx5G0rJxxS+tYAYg+Mm20XA9HOvqtgX/3R77Sb8f/nXy2Wt7R3hl5Dg4zCPwFZt1CEwovTKCQ5srcnGbzo6+FIXJux6PXDOVxMh57OLnKC578FOnzQa/dY68gMKIMXUZb/MUh2+iH2jiWWGaJ/s88KEVm4EJI1b9sqYu+OinH6ffs1WI/txW3cVoJpw33fYmJFBxoU4byfZj2d8VSaS34zY6jPdRmnDmJNbh6+f5zETbzE/rYPty9vLwSx0tN/5ojb0wPrarCf7sxZrYy9RbSjcbFEl8Dz8sqbWXVrotTWxSwFZidRhnO+aYY9J4CctScuu8OvIRW/HGj410JRi4xCAfVszZZoLrbI1jjaUjbDc/WNJMPPzZEHVlUKxwB//2QOf6j9lgZT7rbAoyjcM6zI7bvZbbOhhveDXkDev0pjDq2bAMGwu68dYsGFDE6nu8vYM1/DRfxGOdXkfebC48MR2TDj82/eDrD6OtbGFhI5N+Ga11/mnYmEe37QjDkaFMWE3GYW0Za/YsD8dV5ds6+WT55ZdP48Eqd7bNmH5KYoK/92MjBD7e+N+mm26ahje9w/iWP4dlyCftvWnXT/r98B90ezcF55Rb4Gd7VSZsHWPTg34rFJZn29REgkmLMhf3OUWGYMvCh3s2ctaRJyyRm55TwlJxttUK+eTIjhQm7CSnnHJKCJ7UabOp55onbH8V0qWtFrl++4F+n5Vg9T22gh7yGowx24d1+uz2yzpYbac/M6E7MbUQv7vFt771rcRGsRK2frEP5lwzFU22vVDGusc6baSqXyOtQT+fvb6P8jjEZlBsYVCel0m7xuhOT85GqhK2ZrDNlNMHlAeVTosODCuvWYcF6fAwx0denjZv3vGy4j7XsZRuXyPe5kocBmEodmaMsyNu07/qsKCOHSybJ+/wE8fHuY2IFFpvj9MqO7dh5DSNKvtMvMjtSyf1z4s4u2+XDXem98kjwldsewYhJ7YBhh8ecDo0XD/lxpqt6YR0pG9fRul2Ldl79iXs92AkXQSNeD858oW9ppAv/ODosGzatSMN/IY/6syUUf/r+X//e21HBM+GZSsZ2hlCNq5uvrEnZtNDaT55WYaHmy0uwnNBh2ejFD7u8I+XahC6KCdCK51ecGy1wxY+gQFHXsLZj4Xgv9tjv+lnGYZ8Vj3Hw2jvsGBbqpCnvCNCFVayqxz29UJ4nrFeHYIS/WKIKz5ilym2IB3u8YEXXJZ3ts0Gf90c470pbcS1NGg//QAR9/OsBMGKtgUn+kcbafECTrDdhA3B4PplnX2PhPrIHvmgy/vIbarthfLUPVa1kTr92jCez37eR1kWfNCGerGp9uztSf3dk2DFCyQUqOxoQ/EdhTO9o8Sm6jrCIsHyFYCzId8EQ4rEafOxvuHyMi568dJZYaTNVubl+uFhpMEFx8trNdv6JisQMGpi04ATtooJ4bo5xqNHRQY/iY8RGQwUZvkhuLCRL4JrPDIQ++NryvTL/GhbXhz4jQ1S9lNuW22ZMIoUpz///PN7QZgRR64z2mN6N+leXnR0RXXGKBejXbEzBXAvVMf1QrnYa5DtN7Kul3YU4qBjpm2F8phNlnTj8G7zjcDPqBcCZYjPpk/8OQYYEdZ4CcSOD4jgN3tEEL3uuus6RgpjP2wc3q9rIv1e+A+zvcOITdjjDdYDR/YRZBSmjuPDMYQz3cs6QQr9sOdd/DzznNM3YbiTl14YnaXdM4oVb99S1mYLE6y4Yfas0rLlfQRng/fSD8Rx9PKsEB7BCuEzsKOPCM8bm7azN2vW9cPaFtEksRHQUP9FR0bIsq6JtpeNs+p3WRup068N8/ns530Uc2B0N9RLdjYk9jcZ59OQqGVuqA49A2z6sNLCHpiOtFnJgw4Ec9uDcugUsCQXPS90DfgLelr9pol9FRul8NGgv5FdCtxv/P2E76fcbDPEMlZWtoW6oR75yyq59ppH8ofpBXRAUBbOUxKN4+61HdHkUUi1F5qzzZ/7rnsWKrDCCv0M8s4ydvTBul1KH5dtFM575T/MsrGKzCxoe8OstKluVmY2/Syj08JSfNofq5ey7YN+j+217ONjAqKm2yxL04PdH9ItM3QbZ6bffqDbZwUdXlaUmcDp+xrqExasquT9YYJWnL30vFfWLJRB/w5laLb7YdEBZifIN7pFHFkoxcpA2hXGoItM/fTT9tKCdHHSdBvpIumevPbzPiLBXttwT5ntMtCkCFZd5nGkvLM8OCxTZr8309MYqfwrsyIgAv8lwN5mGIjEsYrJRrX/e2MM/mO6IJiewfwDuwRMdUdfzT6YCLd8+PORVOb4cGbJP4Kp3PAJsLiChUPUE0JaLyv5B5XrfHF/UKlNgXgZzWHFG45RMR5QORFoggCjHTb93dcfy8flqgmYLqC35hx8LrfccuF0LI5xebAEP9Wd6Rc506/yL2hWIVcJVfBitIwtgnp1ep57Jecco8lhNTajv20SqijVtL0XTSGLCLAjPCYbmGqyeWDHcuFgKqAojK6LQBUBXvZ8mfXjiEOunIDpq3gDv8EOna2gc6abWR5oxO5isPToo492CNq2gMRbNGdErm0vqGFh5UWNcIVD5QGVlCL1EKbc2GGDLZ3YSqVXp+e5N3IY6qX94phOx+5k25ymAgdUI2yyuv/++/v5eJKgc8ZuE3skojMgJwIi0C4CF198sd8YGQvbGBrmOcWiMy/QYFCzXTnuLzcYsMWgMfsH4hhpZ9SGbcf6GYnpL1eTExqbZeydGD482MYI/SlGQxZaaCGv44VOLrqUbJ5tCtjOTGL4vR4nJ8dTK1V0+w4++GC/a4GtLPSFR8eObfEYYWybk2A1wBrBaJ3Z4/LGNfkyRPkRi75FX0IDzIqiFgERqCCAhW+M+qLgbitfndk06tibriL4yN5mSgpr4/RRGAxlNADF7anmEKwRNDFQXebY0JqXPBtxyw2HAHpszAKxVyTPJ/rLLBKzlf/DyUCXqUiw6hKYvIuACIiACIwnAUaijjvuOL9iEivu7NDBikn2m2VV6XbbbZdarR9PAipVEwQkWDVBUXGIgAiIgAiIgAiIgBHQqkA1AxEQAREQAREQARFoiIAEq4ZAKhoREAEREAEREAERkGClNiACIiACIiACIiAIwqJUAAAUB0lEQVQCDRGQYNUQSEUjAiIgAiIgAiIgAhKs1AZEQAREQAREQAREoCECEqwaAqloREAEREAEREAERECCldqACIiACIiACIiACDREQIJVQyAVjQiIgAiIgAiIgAhIsFIbEAEREAEREAEREIGGCEiwagikohEBERABERABERABCVZqAyIgAiIgAiIgAiLQEAEJVg2BVDQiIAIiIAIiIAIiIMFKbUAEREAEREAEREAEGiIgwaohkIpGBERABERABERABCRYqQ2IgAiIgAiIgAiIQEMEJFg1BFLRiIAIiIAIiIAIiIAEK7UBERABERABERABEWiIgASrhkAqGhEQAREQAREQARGQYKU2IAIiIAIiIAIiIAINEZBg1RBIRSMCIiACIiACIiACEqzUBkRABERABERABESgIQISrBoCqWhEQAREQAREQAREQIKV2oAIiIAIiIAIiIAINERAglVDIBWNCIiACIiACIiACEiwUhsQAREQAREQAREQgYYISLBqCKSiEQEREAEREAEREAEJVmoDIiACIiACIiACItAQAQlWDYFUNCIgAiIgAiIgAiIgwUptQAREQAREQAREQAQaIiDBqiGQikYEREAEREAEREAEJFipDYiACIiACIiACIhAQwQkWDUEUtGIgAiIgAiIgAiIwLS9IkiSpNegCpchMM0002Su9PZTddIbt3EJ1VQ7GhceKocIiIAITAaBaexlXFtCynoNv8NxMgowqmmGl2A4hnJkf4frRccs+/A7HIvC6fp4EAjtJRxDqbK/w3UdRUAEREAEBkugtmAVXtTx8aWXXnL8DtfIanw+2KyPXuzxy45z/l72spf5I6UJ98OxqoSBdXxUnVRRG/37cfvgnL9+2tHoE1EJREAERKA9BGoJVvGL+z//+Y/j71//+pf797//7c/Dy5xi4Tf4b08xJz8n4QVITsKL8OUvf7mbdtpp3XTTTec45497wY8/KfgXGHNUnRRAGsPLTbejMUSkIomACIjApBKoFKyCoMQRQeqFF17wR4SAGWec0U0//fSpMDCpJRmxxOH54osvun/+859eMELAmmGGGbygFV6eQcjKFk11kiUydX/3046mLjWVXAREQAQGR6BUsKLTxjEiglD13HPP+Rf/q171qsHlaIrG/I9//MNzfsUrXuEZI7jissKV6mSKNpCaxa7bjmpGJ28iIAIiIAJdEig0txBe4BwRrJ599lk/QiWhqkvCNb3DlRErOMM75h+iiK+pTgIVHWMCddpR7F/nIiACIiACzRIoFKxIJghVzz//vB9FmWmmmZpNXbF1EIAvU4LwjoWr2JPqJKah8zwCddpRXjhdEwEREAER6J9ApWDFFCCK6hqp6h92nRjgHBYGhBGqOBzXVCcxEZ3nEahqR3lhdE0EREAERKB/ArmCVXihc0TBmlVrWV2f/pNWDHkE4AxvuMf1EJ+rTvLI6VpMoKgdxX50LgIiIAIi0DyBXMGKZHiRY0aB0RNW/8kNjwC84R6bsSB11cnw6mAcUipqR+NQNpVBBERABNpKoJZghVJ1290f//hHd+aZZ7rvfve7bc9qZf7gXSVYjUKdVBa0ZR7GqQ2BtqgdtQy7siMCIiACY0WgcK/AMDqCPk+/04BPPvmk+9SnPtUVuG9+85tdjZQ9+OCD7oADDnALLLCA22CDDbpKq22e4Q33ohGrJuqEMv/5z392u+66qy/+nnvu6RZbbLFCFEcffbS744473Oabb+7WX3/9Qn+DuqE21D3ZonbUfUwKIQIiIAIiUJdAoWBVN4I6/jCC+ZOf/KSO19SPpiBTFAM7YfVhqJfddtvNXXzxxd7ga16C9913n/e78sor593u6tpjjz3mPv7xj3uB/ZJLLvErIasiUBuqIqT7IiACIiACbSBQKVgxatKvm2OOOdxZZ53VEc1f/vIX97nPfc5fO+GEE9zMM8+c3udL+5WvfGX6eyqelHEvu9crqwceeMAdeeSR7otf/GKvUdQOh5BEejjMSmBiosqpDVURyr8/iLaSn5KuioAIiIAIQKD0jcZ0IH/9Ol6c73znOzuiYdQiuLe//e2V5hx4AQdr5CFck8de4+81XFXei9gXXa+Kr879008/3a2++upu+eWXr+M91094kbMpcJOuiTYU2DWdt1DOXttCr+FCumXHUOYyP7onAiIgAiLQHIFKwSq8KJtLsn5Mv/rVr9yxxx7rfv3rXzsUi1//+te7xRdf3H34wx+eIKiVxXr44Ye766+/3mE48etf/7pj9APHyMlFF13kbrrpJnf77bf7UbMVV1zRrbHGGm7NNdfsiPKaa65xX/va19zb3vY2t+222/p8oXP01FNPuTe+8Y1uiy22cFtvvbVr6qUNd16KWce1QdTJKqus4jkwYnXZZZdVCrpxvuB4/vnnu9tuu83rYXEPQXq55ZbzOlnxqtKNNtrIPfPMM2lwfiMwb7jhhm777bdPrzd1gj4a+nrXXnutu//++320Cy+8sM8ben+YtqjjmmhDpPORj3zEMVp76KGHuptvvtn94Ac/cPfee6+bZZZZ3FJLLeX22GMPN//889fJUi0/Re2oVmB5EgEREAER6JpAqWDVdWwNBrj66qvd5z//ea/ETbSscEK44g9BCGXqd73rXZUpHnLIIe7UU0/1QhMv2CBUIaDsvvvu7vvf/76Pg5c7eyFeeuml/u/AAw90m2yySRo/AhTTV4TjhUg+GEVhtOHhhx92Bx10kHv88cfT6c004IicfPWrX/Xl/dOf/uT2228/d8QRR9TKOeVnShfBBRcES37zh7CFcBxGGx955BEv0IbIH330Ua9rBd+mHXnbcsst3V133eWjpr4QNH75y1/6P66fdNJJhXplIT9NtSHie+ihhxyMmXalHQVelP+GG25wd955p7vqqqvcbLPNFpLXUQREQAREYIQINDtf01DBefnx4mG0gdGj6667zv385z/3ytWMgmAgEyGpyjEqgFA166yzutNOO82PNoUwRx11lBeq2PSYF/9Pf/pT96Mf/SgdNdl77739Sy74D0dWH04//fQ+L7yg0R1bbbXV/G3SYhPcUXSzzz6723///X3Wr7jiCsdfHYcAigAFE0Z1EKT445xr3MNPcIzyMSIWHMrzv/jFLxzK8027yy+/3AtVCOXHH3+8r89bb701zQ/n5KfMDaINkR5C1Wc+8xlHHmh3X/7yl71e4dNPP+2+9a1vlWVJ90RABERABFpMoLWCFWYAEHgYOXnDG97gRzWYBtxxxx09TkYbXnjhhUK0hOMF9drXvtadccYZbokllkj9IrgFZXpenEz7MV3FKAGjZOuss44X6ngx5zlGOcgLow1MeR122GFeiGAlIyMSo+re/e53u80228xnn1ErRlbKHCNCTKXi9tprL2+GgSkt/jDJwDUcfvA7bLfooov6NnTOOef40U0EPbZ6YSQy6PyVCVaDbEOYBNlhhx18fl7zmte4D33oQ350DUZMfcuJgAiIgAiMJoFWClZM2SDsBIEnoEWXZ+655/Y/EWJiXZ3ghyOjUYxo8cLCaOgiiywS3/bCD9N+CFMIE1kX9Kvuueee7C2f/nzzzddxnZf1XHPN5a+hPzPKDh0fdMYYeeM8T88rlA8hkjpBTymeNg33ucY9/EyGwEm9U5dvectbQpa8gEfZGKHDPfHEE+m9+GSQbYh0VlpppTg5fx7siI16G5pQMF0QAREQgSlEoLU6VoxwnH322e7GG290KLH//e9/T/WtyuoHfacTTzzRe1lwwQUdf1l39913+0u88OOXbtYfghX5CPpB3J933nmz3vxvRmlwZYKI99Dyf0yNMgKHbtItt9ziR/tQ1s9zgSNGWWNGwS/XuIcNLPwutNBC4dbQjoz+nHvuuX7KjxE4BOqqOhp0G6Lw88wzzwQGweRIVf4mBNQFERABERCB1hBopWCFwMMKsWC8Eh0ZRh8YGWI6ByXfOo5pHoSzrbbaqsM7hjGDW3bZZcNpenz22We9ovrSSy894SXcrxX6NJEWn7A6jSlXVlCi65Y3ukL20XXDUSdFLqy6C36L/A3iOgsT0N0KU8aMdoZ2dL2tEq3jBtGGSHcqtKM6fOVHBERABMaNQCsFKxR6EarQYWL1H6YAwpJ9tjZZYYUVSusBwYupQPSoWK3HyzTo1BAQ/Sjcq1/9aj8i43+07N9kv3h32mknv/oSBX2Ek7CaMsYUOIbVktk8o8uGsj+ubGQwjrPJc0YuEapYXMCWPfEULor6CN1FbhzaEGXL1klReXVdBERABESgGQKVOlaT0TGzQg+35JJLTtCz+vGPf1xacqaeXve613kL4ssss4yfPvz0pz/doYiNUjN6XCxxZ0Va1nEdu1ZhmX72/mT/HkadMI2HYj8CLVOxTMlmHQJr0KHKu49ZjKCDhd88xxTvIBzpYh8Kt80223QIVVxjmrPITYU2VFR2XRcBERABEeiPQKlgNYwXeF72g14UejnouwTH6AkbLddxCE4Y9MSoKPaldtlll3TqiqnFYCLhk5/8pNcBCnFin+oTn/iEfxmz+m8yXbBxFOdhmHWCoUoU2IscU4Crr766v/2FL3whFWS4gFDDNRx+wpQgvxkpDA6zDoPQKUIgDAsdSCOsSsSEB6sV6yjTj0MbgnNeOwr8dRQBERABEWiWQKVgNRmdMlN/2J7iJbjeeuu5jTfe2K211lreFAB6VnUd5hOOOeYYrwPE6NM+++yTBmU0hlVYf/vb39z73vc+//JnCTzpMIqFmQZML0yWK+KOYFV0bxB53XzzzVMhNC9+jGcyzccoH6sAEaL445xr3MNP7GDLykMc99jYeRBCLCYfcGwuzfQx1vEZxfz2t7+dpu89lPwb5TZEsYbZVkow6pYIiIAITBkCpYIVFAY1QhLHG5+TJi8ztkh561vf6tNnKur3v/+9f2HzAg7+w5Ew4QUSjlzDMZ0YBKpLLrkktbvEJs/Ehd0mXvKsGGPLE/SC1l13Xb+SLN5aJMQbp/nfFP77P9wPx/heL+dF6RBX2b1u0grxhGNRWAx8Igzhsn7ZJihwRIcJjvxxDlvu4SfrGE1k1BBejCgi4Hbr4rzE5yEeDHDuvPPOXkjHxAJGZhnJQr8KW2W4uL7CeTiGeJpqQ8QX8plNg3vhWjhyrV8X0us3HoUXAREQARGoR2Aam4ZJsl65hIDBSi5eethoarKzz6ZX9pvl8UzPzTnnnN7wZJnffu5hO4jVgkwfMQU0mY5pK8qMgMl0W2DfljopY/PXv/7V385Tds8Lhy4UNskQvvJMNuSF6eUam37DlfoNPHuJpyxMm9oQ+cxrRxK0ympQ90RABESgfwKlghUvPAwoYmgT+0ZywyGAMIlSN9zRTQqCAIKV6mQ4dTAOqeS1IwlW41CzKoMIiECbCRROBdIB80JnxIT9y+SGRwCL8kGgil+EqpPh1cE4pFTUjsahbCqDCIiACLSVQK5gxQs8/CFYMUWWM2PY1jKNdL7gDG+4hzrIHlUnI13FQ8l8UTsaSuJKRAREQASmMIFcwSrw4IXOyAl/QXcm3NNxMATgHJjDP+tUJ1ki+p1HoKod5YXRNREQAREQgf4JlApWTAWiyM0KOrZ5weq53OAIwBfO8IZ70K2KU1SdxDR0nkegTjvKC6drIiACIiAC/RMoFKzC9BMvcgxqYj+KFYKsrtK0YP/g4xjgySpA+MIZ3nAPdRD8ht+qk0BEx5hA3XYUh9G5CIiACIhAswRyVwXGSdBZs2yb1Wjo/rBajdVGs8wyi1+1xugKL3q57ghg/BSOGNFkcQDmBjCKyupLpgIxPYAgledUJ3lUpua1ftrR1CSmUouACIjAYAlUClYkj2CFQ7hiU1sELIQC/vjNff4wB4DjxS/XSSAISQihCE38MTKFQIUwxZHfCFW4KptOqpNOvlPlV9PtaKpwUzlFQAREYFgEaglWZAahKYyU8FLnSxlBi2O4x30JVcVVF6byOAbhCkEKfarwm3t1RwAD9yDYqk6K2Y/Tnabb0TixUVlEQAREYLIJ1BasyChCUxiV4hhe7LFAJcEqv0p5GQYXvxgRooIgxTH2F/yXHVUnZXTG717cPppsR+NHSiUSAREQgckh0JVgFWcxCFXxNZ13T4CXYxCsug/dGUJ10sljKv1qsh1NJW4qqwiIgAg0TaBnwarpjCg+ERABERABERABERh1AlrON+o1qPyLgAiIgAiIgAi0hoAEq9ZUhTIiAiIgAiIgAiIw6gQkWI16DSr/IiACIiACIiACrSEgwao1VaGMiIAIiIAIiIAIjDoBCVajXoPKvwiIgAiIgAiIQGsISLBqTVUoIyIgAiIgAiIgAqNOQILVqNeg8i8CIiACIiACItAaAhKsWlMVyogIiIAIiIAIiMCoE5BgNeo1qPyLgAiIgAiIgAi0hoAEq9ZUhTIiAiIgAiIgAiIw6gQkWI16DSr/IiACIiACIiACrSEgwao1VaGMiIAIiIAIiIAIjDoBCVajXoPKvwiIgAiIgAiIQGsISLBqTVUoIyIgAiIgAiIgAqNOQILVqNeg8i8CIiACIiACItAaAhKsWlMVyogIiIAIiIAIiMCoE5BgNeo1qPyLgAiIgAiIgAi0hoAEq9ZUhTIiAiIgAiIgAiIw6gQkWI16DSr/IiACIiACIiACrSEgwao1VaGMiIAIiIAIiIAIjDoBCVajXoPKvwiIgAiIgAiIQGsISLBqTVUoIyIgAiIgAiIgAqNOQILVqNeg8i8CIiACIiACItAaAhKsWlMVyogIiIAIiIAIiMCoE5BgNeo1qPyLgAiIgAiIgAi0hoAEq9ZUhTIiAiIgAiIgAiIw6gQkWI16DSr/IiACIiACIiACrSHwf06E2ccBG3e1AAAAAElFTkSuQmCC;" vertex="1" parent="1">
          <mxGeometry x="331" y="325" width="178" height="69.06" as="geometry" />
        </mxCell>
        <mxCell id="_oLkYh-6_BTDg69lf94G-4" value="" style="image;sketch=0;aspect=fixed;html=1;points=[];align=center;fontSize=12;image=img/lib/mscae/User_Health_Icon.svg;" vertex="1" parent="1">
          <mxGeometry x="340" y="201" width="46" height="50" as="geometry" />
        </mxCell>
        <mxCell id="_oLkYh-6_BTDg69lf94G-5" value="My Health App" style="text;html=1;align=center;verticalAlign=middle;resizable=0;points=[];autosize=1;strokeColor=none;fillColor=none;" vertex="1" parent="1">
          <mxGeometry x="400" y="211" width="100" height="30" as="geometry" />
        </mxCell>
        <mxCell id="_oLkYh-6_BTDg69lf94G-6" value="" style="shape=image;verticalLabelPosition=bottom;labelBackgroundColor=default;verticalAlign=top;aspect=fixed;imageAspect=0;image=data:image/png,iVBORw0KGgoAAAANSUhEUgAAAlgAAAFYCAYAAACPjoJBAAAKs2lDQ1BJQ0MgUHJvZmlsZQAASImVlwdUE+kWgP+ZSSehJBABKaGGIkgngJQQWgAF6WAjJAECIcRAUBEbIq7gWlARwYquiii4FkAWGxZsi4Bi1wURBWVdLNhQeRM4BHffee+dd8+5ud/cuXP/+98zf84dACh6PKlUDKsDkCHJlkUE+jLi4hMY+D5AAghQA1RgyONnSdnh4aEAlXH7d/lwB0AKe8tGkevf7/9X0RAIs/gAQOEoJwmy+Bkon0D1A18qywYAOYz6TRZkSxXchrKmDC0Q5WcKThnjTwpOGmUMeTQmKoKDMgMAApnHk6UAQJ6C+hk5/BQ0D1mxBzuJQCRBOQ9lr4yMTAHKTShboDFSlBX5WUk/5En5W84kZU4eL0XJY3sZFYKfKEsq5i36P9vxvyVDLB9fg4kqOVUWFIFaKtqzZ+mZIUqWJM0IG2eRYDR+lFPlQdHjzM/iJIxzljiSO84Cnl+IMo94Rug4J4sClDGibG7UOAuz/CPHWZYZoVw3WcZhjzNPNlGDPD1a6U8VcpX5c1OjYsc5RxQzQ1lbemTIRAxH6ZfJI5R7EUoCfSfWDVD2ISPrh72LuMpns1OjgpR94E3UL5SwJ3JmxSlrEwj9/CdiopXx0mxf5VpScbgyXigOVPqzciKVz2ajL+fEs+HKHqbxgsPHGXBAJhCjKgMMEIpe+QGQLVyYrdgIJ1O6SCZKSc1msNHTJmRwJXzbKQwHOwcnABRnd+zVeEcfPZMQ/dqEL/8xAJ7xIyMjTRO+ULQfJ/oAIA1M+JjVAFDOAHBlFV8uyxnzYRQ/WPRfQQ1oAh1gAEyABbABDsAFeAAf4A+CQRiIAvFgLuCDVJCBVr4A5IEVoBAUgw1gCygHu8BecBAcAcdAPWgC58FlcB20gU7wEHSBXvAKDIIPYBiCIDxEgWiQDmQImUHWkAPEgrwgfygUioDioUQoBZJAcigPWgkVQyVQObQHqoJ+hU5B56GrUDt0H+qG+qG30BcYgcmwJqwPm8NTYRbMhkPgKHgOnALPh3PhAngdXAZXwofhOvg8fB3uhLvgV/AQAhAVhI4YITYIC+EgYUgCkozIkKVIEVKKVCI1SCPSgtxCupAB5DMGh6FhGBgbjAcmCBON4WPmY5Zi1mLKMQcxdZiLmFuYbswg5juWgtXDWmPdsVxsHDYFuwBbiC3F7seexF7CdmJ7sR9wOBwdx8S54oJw8bg03GLcWtwOXC3uHK4d14MbwuPxOnhrvCc+DM/DZ+ML8dvwh/Fn8R34XvwnggrBkOBACCAkECSEfEIp4RDhDKGD8IIwTFQnmhHdiWFEAXERcT1xH7GReJPYSxwmaZCYJE9SFCmNtIJURqohXSI9Ir1TUVExVnFTmakiUlmuUqZyVOWKSrfKZzKVbEXmkGeT5eR15APkc+T75HcUCsWc4kNJoGRT1lGqKBcoTyifVGmqtqpcVYHqMtUK1TrVDtXXakQ1MzW22ly1XLVSteNqN9UG1Inq5uocdZ76UvUK9VPqd9WHNGga9hphGhkaazUOaVzV6KPiqeZUf6qAWkDdS71A7aEhNBMah8anraTto12i9WriNJmaXM00zWLNI5qtmoNaVC0nrRithVoVWqe1uugI3ZzOpYvp6+nH6HfoXybpT2JPEk5aM6lmUsekj9qTtX20hdpF2rXandpfdBg6/jrpOht16nUe62J0rXRn6i7Q3al7SXdgsuZkj8n8yUWTj01+oAfrWelF6C3W26t3Q29I30A/UF+qv03/gv6AAd3AxyDNYLPBGYN+Q5qhl6HIcLPhWcOXDC0GmyFmlDEuMgaN9IyCjORGe4xajYaNmcbRxvnGtcaPTUgmLJNkk80mzSaDpoam003zTKtNH5gRzVhmqWZbzVrMPpozzWPNV5vXm/cxtZlcZi6zmvnIgmLhbTHfotLitiXOkmWZbrnDss0KtnK2SrWqsLppDVu7WIusd1i3T8FOcZsimVI55a4N2YZtk2NTbdNtS7cNtc23rbd9PdV0asLUjVNbpn63c7YT2+2ze2hPtQ+2z7dvtH/rYOXAd6hwuO1IcQxwXObY4PjGydpJ6LTT6Z4zzXm682rnZudvLq4uMpcal35XU9dE1+2ud1marHDWWtYVN6ybr9sytya3z+4u7tnux9z/8rDxSPc45NE3jTlNOG3ftB5PY0+e5x7PLi+GV6LXbq8ubyNvnnel91MfEx+Bz36fF2xLdhr7MPu1r52vzPek70eOO2cJ55wf4hfoV+TX6k/1j/Yv938SYByQElAdMBjoHLg48FwQNigkaGPQXa4+l8+t4g4GuwYvCb4YQg6JDCkPeRpqFSoLbZwOTw+evmn6oxlmMyQz6sNAGDdsU9jjcGb4/PDfZuJmhs+smPk8wj4iL6IlkhY5L/JQ5Ico36j1UQ+jLaLl0c0xajGzY6piPsb6xZbEdsVNjVsSdz1eN14U35CAT4hJ2J8wNMt/1pZZvbOdZxfOvjOHOWfhnKtzdeeK556epzaPN+94IjYxNvFQ4ldeGK+SN5TETdqeNMjn8LfyXwl8BJsF/UJPYYnwRbJncklyX4pnyqaU/lTv1NLUARFHVC56kxaUtivtY3pY+oH0EXGsuDaDkJGYcUpClaRLLmYaZC7MbJdaSwulXfPd52+ZPygLke3PgrLmZDVka6JD0g25hXyVvDvHK6ci59OCmAXHF2oslCy8schq0ZpFL3IDcn9ZjFnMX9ycZ5S3Iq97CXvJnqXQ0qSlzctMlhUs610euPzgCtKK9BW/59vll+S/Xxm7srFAv2B5Qc+qwFXVhaqFssK7qz1W7/oJ85Pop9Y1jmu2rfleJCi6VmxXXFr8dS1/7bWf7X8u+3lkXfK61vUu63duwG2QbLiz0XvjwRKNktySnk3TN9VtZmwu2vx+y7wtV0udSndtJW2Vb+0qCy1r2Ga6bcO2r+Wp5Z0VvhW12/W2r9n+cYdgR8dOn501u/R3Fe/6slu0+96ewD11leaVpXtxe3P2Pt8Xs6/lF9YvVft19xfv/3ZAcqDrYMTBi1WuVVWH9A6tr4ar5dX9h2cfbjvid6ShxqZmTy29tvgoOCo/+vLXxF/vHAs51nycdbzmhNmJ7SdpJ4vqoLpFdYP1qfVdDfEN7aeCTzU3ejSe/M32twNNRk0Vp7VOrz9DOlNwZuRs7tmhc9JzA+dTzvc0z2t+eCHuwu2LMy+2Xgq5dOVywOULLeyWs1c8rzRddb966hrrWv11l+t1N5xvnPzd+feTrS6tdTddbza0ubU1tk9rP9Ph3XH+lt+ty7e5t693zuhsvxN9597d2Xe77gnu9d0X33/zIOfB8MPlj7CPih6rPy59ovek8g/LP2q7XLpOd/t133ga+fRhD7/n1bOsZ197C55Tnpe+MHxR1efQ19Qf0N/2ctbL3lfSV8MDhX9q/Ln9tcXrE3/5/HVjMG6w943szcjbte903h147/S+eSh86MmHjA/DH4s+6Xw6+Jn1ueVL7JcXwwu+4r+WfbP81vg95PujkYyRESlPxhsdBRBU4eRkAN4eQOeEeABo6FxOmjU2W48KNPY9MErgP/HY/D0qLgDUoEYxFnHOAXAUVfPlaG70WjESRfkA2NFRqeNz8OjMrhAc+vWy20dBndqC5eAfMjbP/1D3Py1QZHUC/7T/AqgHDBuHvzFvAAAAOGVYSWZNTQAqAAAACAABh2kABAAAAAEAAAAaAAAAAAACoAIABAAAAAEAAAJYoAMABAAAAAEAAAFYAAAAAArA0gwAAEAASURBVHgB7J0JvEVT9ce3aE6lQlGGQoYMFSFlCpVEUTKTUlISJYmQyCxKqEwNMoTMopAhhaIBZYpSSaU00KA6//Xd/fexz7ln2Ofe++69773f+nzeO/ecPf/2tPbaa689R2bkREJACAgBISAEhIAQEAJDQ+BxQ4tJEQkBISAEhIAQEAJCQAh4BMRgqSEIASEgBISAEBACQmDICIjBGjKgik4ICAEhIASEgBAQAmKw1AaEgBAQAkJACAgBITBkBMRgDRlQRScEhIAQEAJCQAgIATFYagNCQAgIASEgBISAEBgyAmKwhgyoohMCQkAICAEhIASEgBgstQEhIASEgBAQAkJACAwZATFYQwZU0QkBISAEhIAQEAJCYC5BIAS6IHDaaae5Sy+91N16661u7rnndi996Uvdu9/9brfEEkt0iUZ+h4CA6mIIICqKWgTUvmqhkYMQSEJgjtSrcn70ox+5TTfdNCnSOk8bbbSRO/TQQ+uch/J9l112cd/4xjcGiuu8885zSy655EBxjDrwfvvt5xgQu9I666zjPvvZz7YG+9vf/uY222wzd9FFF/X4ffKTn+yOOeYYt/322/e46cPwEVBdDB/TfmL83e9+59Zcc033n//8p5/gtWHmmmsud+2117p55pnH++m3b9cm8P8OdX1f7asNObkLgUQEYLBS6Jvf/CZ3Fg7095SnPCX74x//mJJcX34eeOCB7AlPeMJAeaSM11xzTV/pjzPQlltu2Ve5X/Oa1yRle8cdd2yM3yaF7Pvf/35SXPI0GAKqi8HwG1boO++8s7FPDDJe3nfffXk2++3bbenX9X21rxx6/RACAyEwp62O9rOO2EpPfOIT/Yrq+c9/vvdrzExrmLKHRx991D3nOc9xr3zlK8tOQ3k/6qijnDGCfcW11FJLufXWW8+99a1vdeuuu6572tOe1lc84wq0wAILuBVWWMH//fvf/3a//vWvk7Lywhe+0G2zzTaNfu+55x639dZbN/r573//6+69995Wf42RyLEVAdVFK0Qj84Ck6RnPeIZbaKGFvBQLiVa/ZAtDh0Rpww039DsFr3rVqxzfoKc//elukUUW8X+2QHV/+ctf+k3Gb+uvv/76Pp1NNtmkR1Kv9tU3tAooBHoR6Jc9u/nmm7OVVlqp8wpu0UUXzUyk3m+yteGMecuM+eucn8UWWyy7/PLLa+Odrg6f+tSnkrCoW8XG5T7zzDOT4nr2s58dB9PvBgR+/vOfZy9+8Yszm5yzr3zlKw0+i06qiyIek/R2ww03ZM985jOT+oqNxLm/l7/85dmDDz6YVBRbyGRf+MIXsjnmmCMPH8fV9Psd73hH9ve//70xnZnQvvrtW43AyFEI9IFA36cIkZZYZ3S27dfLtTV8YYV04YUXNvjoz+ncc891v/rVrzoHPvLII93aa6/dOdykB3jve9/rHve4vqu3ULx//etfhfe6F2Owhq6PUpfWdP7+j3/8w73lLW9xt99+u/vlL3/p7r///uTiqC6SoRq5R1twulNPPbVTus997nO9zuiznvWspHDGWLl3vvOdbs8990zyHzyttdZa7nOf+5x70pOeFD5VPqd7+xqkb1UCoo9CYAAEBpqBEVsvu+yynZP/zGc+0zlMWwCUrLvSggsu6N74xjd2DTYt/D/+8Y93z3ve84aS16c+9alJ8fz5z392c845Z5Lf2exp5513djfddFNfEKgu+oJtZIFe+9rXOtQpUunVr361V5tI9R/8sZXYhThglNI3p3v7GqRvdcFTfoVACgIDMVgkYFtsKekU/HzrW99yP/vZzwrfBnn5yU9+4q666qrOUQR9ss4Bp0kA264YSk5XXHHFpMF5lVVWGUp6MzmSk08+2Z1wwgl9F1F10Td0IwkIE4M+Zyph5qQfYmHbRUK9/PLLJyUzndvXoH0rCSB5EgIdEBiYwep3Eu9H4lRXrjgulEORTKXQsCQ8KWlNZz8wonvssUdjETDVcMghhzT6me2OmDph63YQUl0Mgt5owrJVnkrzzjtvqteCP1Qz6HOpxOGiFJqu7WsYfSsFH/kRAl0QGJjBihPjdGCqiPmLX/ziQKdhQroPPfRQQe9hp512Ck6tz1S9h9aIZoGHfffd1+t+VBWVwfuMM85wprRd5axvhgDbp5zaMiXjgfFQXQwMoSJoQGC6ta9h9q0GWOQkBDojMFfnEA0BMIzHkf/jjjuuwdf/nDBmd8opp7j3v//9rX6bPCAWfvjhh70XFEaZxHbfffemILkbCqOiNAQ4Mm6nl9xWW23VY8mdb/PPP39aRLPQlx0+cdtuu627++67h1J61cVQYFQkNQhMp/Y17L5VA4k+C4G+EBgqg0UO3ve+9yUxWPjFgjhKif0yOnSuY489lqg8cbom2I4J3/QcLgJrrLGG40+UjgBtnNsBhk2qi2EjqvhiBKZD+5qqvhXjoN9CoF8EhrpFSCaWXnppb6gzJUN33HGHl4ak+K3yc8kll7i77rrLO6Fcyp14IiEwSQhwdVPKVUSTlGflRQhMBwTUt6ZDLc3uPA6dwQLOLtt+sYJ616qIw3JseaafCuyKj/yPF4Fdd93VffrTnx5vJpS6EJiBCKhvzcBKnYFFGvoWIRhxFcOLXvSiJJ2Tiy++2PvDfxdCchVf6jzo6awuacd+7T4yv/1zyy23uN/+9reO6zI44UN5uIYGOzfDMmTKVUOU+dJLL3V2V5m/Dgd7V2Yd3195sd122/lrO+L8DfL7T3/6U6fgHHAYZIv2pz/9qTdC++Mf/9hxFRN/GEZkKxgsKScSUox0djlBVS4EulDXX3+9N/KJoU+w/M1vfuPzzgnU8Mf1QyuvvLJbfPHFy1E0vnP5L+0Rw44phJJuFdZc10T9QlXuTXEPUhe0s29/+9uOvolh4NCuqVt07dB1fMlLXuKwrbTccss1ZaPHrWs5uCambL/pF7/4hTv99NMdEnDqkqtjFl54YV9P1BUXMHets56MzrIPXesltX3Rd+2OUnfbbbflfxiEpg0tueSS+R9mJMKJdK7cYjeCvn/WWWflfYAqmYq+lVrVU9kvGAO4biyVqvCnn3J47NZbb/V9AzMejJdvfvOb3Rve8IZC1F3ruxDYXqirWLUnJT6ulpp77rnLUc3sd+sAA5FNJPmVDVaJeVxmIT3/bgg2/rbVSB4u9QdhQrzWUQvBbILM3YKfqidXR/RL559/fmaTS1I6yyyzTGaTbfbPf/6zr+S4Wujwww/P7Eh3Y3o2EWVbbLFF9vvf/96nQ7pV5Y6/1V2VY3bFWsPG8fD7Pe95T+fyccXR0UcfnRlDmpyenVrM7KRTXs6URMHwggsuyF73utd1vmbEmOTMDlNkdjCjNSk7cJFtsMEGyWUpYxi/m7Vun96o6oKL2D/wgQ9kdr9ecv65+oq2Db5t1E85aBuBzPK9b99cLB7jVP5tTGm22267ZXbCOAQd6ZM+Vc5T3TvX3vRLNskmp2O2AmuT6adeUvo6l2GbHldSHhm7zI5etv3222fGHOdh/vrXv+b5noq+lUfe8GOq+4UxlHl569pJ+XuMP/PKPvvskzW1BzOAmz3yyCO+lP3Udzl90ynNEUuNj35p9+Tm4WbDD6QDA1Edg8XgZivwpIZj3HDS5BUyykRHmFDp8SCMn6lksOwS5axpAKUR2cohz1vII89VV101M0lJKEbSk3u1GHjieNp+v+AFL8h++MMfZoMwWHZpdqc0yVNXhtUkcRnMcVV5TFqSLbHEEhnPKne+0b6uueaaVhztaqYMRqAunrYJO4QjvQMPPDDjPrg66ge3EH/5+cEPftAn00+cXevi85//fMZdkuU8hPf55psvg7EN7+WnXZ2VcRdfE/VTjsMOO8xH+fWvfz2z1W9t+uX88E6eTbLclKUpcWsaH8r5nAQGq596aWpf9A/qzaTMneqrjA3vMYPVTz6r4uRb6FttDWAU/QJGtC6fdd8D/uBjl4QnhYd5hYaB49e+9rUcui7xsaCeTTRlDBYgmk2qpIqnEZlph2Tcjz/++DxeuPbySnWqGCzbuspgXqoaPWna9p2XUrHiOeKIIyr9mXHTzLankspq2zP+MuCq9Nq+mY2vyvTL4eokWFwKi8Rnyy23TIqHeEOnTymcKX7XMqJ2fVFm23Y+GuoWaUQ53+GdSfe6666rTfLggw+ulFiZzbbsy1/+cmZbTD6sibiz73znO43Mc0jzbW97Wy2T1WWwCfHVPcMkMJV1wWSI1KouD1xEbEYcc3ztYElGG67yz4R60UUX5X7LPyiH3eKQmRmVzK6TqYyjHC8TNX3JtiOS/JfDw6T3Kzku5z/1fboxWMNuX3YVWmVdmepExiX0tsXrF9Tf+973/HsTYz8uBmuU/QKm49prr80+8YlPFAQH5bYcvzPWMjaa5f1KrGO/8W/bRvQXfl999dWZbfF3CssO1Ve/+lW/kEKaGMjuf8yQLl922WWV8wV9fccdd/R9P4SZLc8pZbBs3z15YETakkqm/5E3jHe96109waaCwWIlbPogebpxo+U3E0+ZTCeq0r/psbRub9ER7K7HyvBx2qankG222WZ+kqQDpEoNQxx1DFZclo997GOt+SC+VAZr//33r42P7Ti7cDZOPmMAahJ/Uy+mw1AIw8vZZ59dmQ6SGAaFOoqlsgGn8rNuQcCEYPpB+V85XNU7A10cJvxmZVumYdYFk8jmm29eiRH5pB/94Q9/KGch+8EPfpCxpVNVFqSBZnS2J0z5w2mnnVYZvhyn3cyQPIaUw4b3r3zlK+Xkp/R9ujFYMRiDti8WhVV9FQaZraQqMl3LzOwXVraHmMGa6r4V8jbOfsHiO7TbpqfZm8zWXXfdJL9xPOwaBGKctauakuOoGmNDXPGzPP+edNJJsfOs+j2lDBZIrrfeeskVeMUVV7SCb8q3hfji1XUIXK7guIHFv1MZAjp23VYW8dkJxpB04YkUJk4v/m2KhwW/5ZeNN964NmyIh9U5TGxMSGSQzgQ/bc8UBsvujUyKLwXPtom1bpupCX/KiE5cTOgE1TGoTAB2SCL2XviNDlsbowpTx8q/jaomm3KdhG2wtrhwH2ZdfPKTn2ysVzMEXJslpHjlcoR3JFlNOj9Eii5G6tZsiBfpMfpebAuzddPWJkI49E9GSdOZwRq0fdVtV7GIaCPGxFBn4RkzWOXww+5bIf5x9gvy0KTOEHDp92n3oIZi+meq/hTpoWqRQnY4KK9H9JRnM03JKUKrjJww2WCiw/y96YeJlt1aa63V5MXhJxD3DnY9xRTCdnlib6Xpcuq6U4KYjeD0m+lR9SRnOiXOJCze8nzZ8cwzz3TnnHNO+XPhndNlnKQqXyxLesao+tOLN954YyFMvy/GsPYbtBAOHJpslVGXK620UiFM6gsXiNvWYu7dROCO00hVhOV/YxCcMXOVF+Zy9Q/XPjW1W06u2XZgIc2qtIb9bVh1YQOrM2lFbfaMwfSnNes8gB/XI1WRMZ4eX9ofJ2qriJOBnEg0ncYq555vdjjBnyizSdW70fdNgdpxObFNwj3+4w/D6gdxnMP6zTjQlv+6tGjHw6ZB2hcnqOmHVcQJ4DYyht5xGtskt21ep8x93P2CgnF62SSByWU0IYYzHUg/N9L3mmihhRYqOK+++ur+lDtzRhtRP+XTiOUwtlXoT2SH76bmEH7Ozueg3GW8nRKfIgzxIklYbLHFco7WUK79zbYD+/N1hEQoXvUiDamiYUqwUDKv2w4JZamTupA3M1lRW15We2VCPB2foglplJ9vf/vby0EL72wvpeitpEiw2KIrp1/13ibBMua5MZ6gc1QoyP+/tGGCuDymWE+vKq98O/fcc+Mghd877LBDY14Jj45hGw17lT2MuqBPGmPeWD4kz02ElK8O1/B9Xzvp2USpJ0fRA6s7wWmWvFvzQX66Hi5pynebWxcJVsBqqp9tEsVQpkHaF9tPdeVABYS42+jKK68sxDFKCdak9Isu7Yf5lzkDYjyrO2BFvSBZNia4pwpS9UY5cFQVPo4wlv4h5Q8nF2M/s+n3lBgatcrMCVscXJ+TQtbAC1fflMPYpOlsa8F/DvcOlv0M+93MTXjbK3XxIkli9VBHtk1V5+QlTdhgiomVRMoKbuutt46D9fw2ptbZFmLP93F9MAVyZ4NnY/LGcNa6t10kjeQuJtMdil8rf5suUeV3Pqas5LHnMx0J6Sg2x5qoqU0TDikffbCJMLLar3QmxEsapjhfe4n8K17xiuC18Zlip6cxAjm2ImAnl2v9YJsJaYZNrrV+cMCGWVkq3xhgiI7TqV9QbGwtHnXUUbk9KuzS2cGdWluEe+21lzNTPz2IMe4iCW4j09lyX/rSlxq9mRJ87o6U25i6/H02/phyBgtQMYDJlkMK2R6xMwXkHq92EshfNhwcuHcQ5mYqCYYPw21NxETTlA/c68hWHn6bKXY33ZL4tfI32y5sj7SRSfvavIzM/aCDDmpNC6OsdWRSjDon/x1L/jFheLKNbEVd64UtrDZiS2Q60iGHHNKa7RT8ykxtOVKYmpT2XA4XvzOJNF0kbifQYu+1v9nSFU0tAuHasrpUYLjtUIUz6WedF//dTpz5J4Ys+RsVTad+ASYf/ehHXXmMNzuI3hi1ScE8cwN+GN1FOAGDVUcf+tCH6pwK30888cTCe/yCgWi2eAMx7892GgmDZYYLPZOVAvaDDz7obOuvxyt6SWFCY/Jr0uXpCdznB1ZkbSvwtgF+nnnmaUy9vOqr02GIIzHl3krdodjPJP1mQMUqeBPRRoJ+TZU/M9Xg7MRLlZNjQOb2gJiQbCA9baJU6UddHG1toy7cOL9jsR7L2m2EHkgbmdJ5m5dWXcLWCFo8pC7cguS7JbqRO++3335e3wadm65/be171IWpko6U84DeHhO+HexwdfpC9GewQELcNCaU4x7kfTr2i9VWW62yyOgxM49gHd626LxV97b50g5VOTO/Uhlf/BHJN7sRVRRLr6hj9FhnOzXPQENEh23C1NVIrMgesjCOewdRlG6jNgarTUR6880350mwAjQbWvl73Y9xidDr8tP2na3Btq2BJkkf8dt+vlc6N4v2DoVnrmqxo91e0d9MJvRkge3Rvffeu+d7+EDnb1PYDH5n0vPyyy9PKk7bwoBIUvxwkGAqGdHUMSWp0GPwxFb0IqZG0M9f29gy6uKkqiQw8X/4wx/2ZUZqVG4fXMkEHilM/rDKON36Be2+TcrMzgrXDaUQftuYsBAPu0xlYnyPGSxJr/6H0MgYLHRo7Lh0uV4q32E6Yi6ZQZq/QKbYF35O6bMsXapKjFMn7DXX/R1wwAFVwfJv8enEuIy5h4ofDD7TiVIGrzYGi/LiBz0OsznmTGnXnyoD9zr6+Mc/7pB8IqliJRwGpY985CNejM5AXkW0PzOCWOU07b+lLBooZMqdYSkMFpKjuC9PewBVgFoEll122Vq3Kgd2JOiLMAr0VRivcdF06xfcBZjKPKViajYlG9VdQjxmxd3f/xneeZrpFH+nK7+RrLbpCONvNtBIlXQw2RBf0NwEMFKsIAI1q9+5V7bH2F8eBaUoSpMPJvF+iS1RdL3Y9kQsnkKjEpun5CXFT7wvn+J/mH7e+ta3Ov5YYTHZV+nLgT+Msp3CcWZPy3GZ8EylVLMIKW0sdXuOC7VFMx+Bl73sZV5J3WwVdiosunpslTLO21VUzk4jt27vd0ogwfN06xdTsT3MFuGb3vQmBwPVRJgHQY0nlnideuqpeRDm5xT1gTzADP4xMgkWGLK1w95sCnGig31x9Hdiezt2yWVK8KH4SdmuGzQhJv6wcrOrD5Kiq7MtlBR4DJ5SGNX7779/SnOG9KrMXJmRWi8Rw14ZgwJM/UxmrgC4TcE4VEJZeTZ8j59lPGO3+HdqmnEY/Z6eCNgx/b4zTjtBisJhF8b+UVJqG53p/SIcMGjDPt4m5HRhzJRpe/Ax9EYqwWKSM7s1DklWG3HCy6w2O7vHyHGCEGLFvO2227YFHZo7DSeFMBbYL6FHYfcG+uAzlcFKGbwYUDlVORUrs7huUKy1q1P8ahkGq4rY+pqpx/pTjVNSF22UMtkQRwqD3ZaW3KcHAnahvbP7Bt2uu+7ad4btblHHqWG7n8+bIug7og4B1S/+BxYK8ujS3XHHHY3ocVCG8XP55Zf3KhthvERX1izyN4adTY4jZbAAFgaJ46JlxcYq0GGw4lWyXTzsOG02KoIhbCMYApSl43y2halzT40jJV91aYzje8oRebbv0Mlos63Ub/7NUKXDphlSqroJHz1BmH/a6B577OGZsH7Tm9RwqW2MbdM2Sm2HbQcc2tKR+/RCwC4P9/pBZoi39XBLXcnsLlZnxpQd241TvegiD+oX/6sJ+jRSxBSzDUixGE/j7UHZviq26JFuEZI0HG6qCNEuAfVHdUOW6bCjpJQVOiv91P37trynMJ3EUXe8uS3+cblT5yk0VYY7GQiwp2SWxSuZK/SN0CngCDJtLEX/KKU8k+gnpU2T75QJp8mOWFz2lAMMsX/9nv4IsNXE4Zall16678KgOI3trFGQ+sVjKDM/s3PURjBWLIovuOCC3Gvq3J4HmOE/Rs5ggWcXkw0B/1HdOxjS4xm27uJvVb/jk4BV7qnfUhmR6cZgpU6wbdbFU3EM/jBYizTKrr3JbagFt/AEcwbyzTbbLNmMSAg7HZ8ptoooV4oEK9W2VGr9T0c8led6BNhu4iQ2plVSTqVWxcR9mSltsSpsl2/qF4+hhekhDga1EduC7CoFw+CyfdWL2FgYLPZ4UXjvQqMyzRDnKeUYOv5TzBDE8db9Tk1vujFYqYNXm9X8OtyqvjMo2/2ErVc7YGm8zoBpVbzT/VuKMUHKiIHCNkrxQxwcIhDNTgSQhGJa5e6773Z77rlnZ0aLrf02faBhIKt+UUQxPiFYdCm+xYaxJb0qYsPbWBgsEk5RdMcfNKp7B/+X2mP/264CCT7tsszwc6Bnaidn63Q6Ece3U4h7GO1y7RSvrX4wYIiSbBPBWDXZ0WoKO13dmq4jisvExNZGKYcy0J9B+iya+QjACGGj7vrrr+8pLIssThhySpet+tTFJBGl2CPsSbDjB/WLImD0WYw5pxL9XLavetEaG4OF0dG2C3xDdkdx72BIK36mdjruYEq1YRXHX/698sorlz9Vvt9+++2V3yf149prr52UNZShm+66SorEPGFeA8OFbcS9XbONUm3IBdMhTfikMFicBsMoomjmI8DdeFxZtd566+XbRuVSw1hh8+ree+/1fTTFlhoXRU81qV/0IpwqxSKkbF/14seXoTJYqToZJMxpBXSx2gjlwy4V3RZfF3eOHKdc+gtjkHJRaJw2+9a77767N3AZvq+wwgouxcbVKETmIU/DeK655ppJStOkdcopp3iDoIOke+ONN7oUExuLLrroIMlMy7BYzU5ZmabYJUuxVYThQtHsQoBTw0iymgjdx3322cfBPLVt0acoXDelleKmftGLEhKplPmIkNoe7MWPLwMzWLG9HI7WdiEUkNsUuzfccMMp0+FoW6WjmJkqxTr55JP9qiyl/Nj1wlYIyp8wH8GOFsxkykqK03Zt1rE54dW1PlLy3o8fVq1bbbVVUlAm7a7GCtkKPOmkk/L4YbBSKNX2TUpcg/ipqicYnE033dRblh8k7qqw3APXRiknOtuktvSfUZ/8bSuX3EeDwOmnn56U0EILLeTHv6Z5gIVnv9Slb01Kv0gxa5Lip1/MQjhMInH4p42oO9m+qkZpYAYrbsApg3KcDQZgbJ00UdcBmoaXsnVBmikr8JROR1xITDbYYIPWtNm+QowergxCz4vTNoEwxJpC8cWaVf65doJreNooFau2eNrcuXMs1Z7N/vvv77ggOoW4544DE1yvgYFDKMWwKf7q7hu888473XnnnYeXkRBbzGWiPFhH3mijjRxG/YZJm2++uWuT3nHXYxOh4N7G5HNUfzZuD6aaWwHfFBtxVfXAeBMMMFe5l7/1m045ntT3Cy+8sNIkSlV4pEdN2/WDMFhd+tak9IuUeqWNjYLJSrHsLttXVa36/79ZJQ1EJt7NLKr8z06LdIrPtrsy2y7Mw8dxLbXUUp3iwvN9991XGVccb/htHTspflPSTo5zxRVXzEyC0hOvnWrLjCnKbGLL47LLOrObbrqp4NckgtkyyyyT+wl5LT8XXHDBzI7JFsKGFzM7kNnpndY4iNOO5GbkrYnM1klSXCalaooms86aFA/5AhtbBTfGZ9uJmVnC93HaVm5m9li8f7tOKSkdu+w5sy2KQhrGWGQLLLBAUvjFFlusELbqxZR7W+OyhUZmyv15cDPel4ehPcU0rLoAq7p+B/7k26SgcdKF38YA53kst03eaecmIS6EKb+Y+YbGOIinXP5yHHaKqTUO4rGDKOWgU/JuahKZbask5Yl82TH3vvLBuEH41D/aVAoN0r422WSTQn5WX331zJiFlGSzAw44oBA2lMsO/tSGH3bfIqFJ6BfLLbdcJRYBk/C0BXQtNsN0aJv/bJE7zORmVFxwwX2TrQ4yk0oUGgOTW1cyS+iFOEIDMiNzXaPK7BqUyrhCnOWnWQpuTcMkCJ0GTSYuk6pkdiw5O+ywwzKTwmUwi+W0TaG7Mm0aLAxD2X/53cSymUkSCnHAxHUZ4InTpF2FOMovJulpzQvxmFmEctDCO3k1/Z+kuEJZTUE+O/vss7O77rorM4ljRl0ce+yxBSYUvGG2AtkNAMlpmBg8M1s7mUm/sm222SazbdrksOTRbKBll156aWb6dCH5wtNW30nxmSHUzG44yGwVXfBvuiyF+IZVF0RKngPOVU+T4hXSjl9MP6M2LBh+97vfjb33/LZTirXh47zYpbE9YeMPZuwwKR4zARIHm7LfqfUTyggjmsqExJk+4ogjksod0tl4443j4LW/U/Nf1dfLDBZp2w5FbVqxA4xmyGv8NNWL2Fvh97D7Voh8nP2CPLDgijGo+z0qxsZM2dTmx2xfBdj0rECgbwbLtgMzVijlykcq8IlPfCIzJe6K5Ko/MUGV47HTJa0r4HJst9xyS2ZbEj1xleOO3+2UU2ZHh8tR9byfddZZjSv+OM6U33YysieN+MPee++dVA6zKZbh18xeZHZ6JylMVf5M98vXGwxDmeoGv3I8ZgE9s+25cvDCOxIjM+Dadz7LafJuV+AU0kidJKri6voNRjgww1UMcxepXTltmK0yDbMukFA1tRmzwt3DwJOfJqkRzG4bw04chx56aHIbKEt5CR/ItieS4jFl+xBkyp6MI2bzKyk/cV2bnmlmW37J+WK8ZJyN40j5beYRWtMYpH1VMVjky/R4Mjs1WJu2mXXI+1BcjtVWWy1Dol9Hw+5bIZ1x9gskaDEGTb9NJaV19yGUaZCnbUdmpmdVma8DDzxwkKhnfNhkBguGynRC/GRGw26TkrAyg4mw03XZOeeck5lxzFow6URLLrlkoQLt5GCt/+Bglr8zVrAHH3xwZnpMfTNADFZsbzHow0jVbW186Utfyrekmhp+kxsTkOl1tQ6obNuZHk4Bk6Z4y25s/dlFnJ3Dh60EJAxIjlj5luNuemfbFWlQ04AKI8wWZ1M8qW5In8rEAGmHE/qOn7aE5Cg1D/hjSzZsUcb5ueGGG/pql0g8qQNoKuuCid30X2rLauZUMvo+RB8+//zzM6RtVdjAaDZJHCgHUjEkhfSDqjiqvsGQm9mNjO3bkA/GIiaYKv9132BkzjzzzMzuovTxDPoPPEzXKDvuuOO8pMYOc3TKT5xPFkpITpDE0vZiqRaLkjPOOCNDakV9dJWyxumsssoqfjsOSXdgXIfVvuoYLNK3k4CZXQCdmVHmjG1ItlLvueee7KCDDqqcvBmTzf5VYxUNo2/VJTDKfkFabGHb/acZi9S4vtp+I0GCyaFfmj50XXEG/l6ldsHulelhDhz3TI4gmcGK9ULaKr3K3RSHG3Fk1RuHs5u6G/3jOAgDEqdV/o0OUx3R6RkMy2FS3tEn6KILAuNpVpA7TUbkAx0umM8u+CCWNrtknomm7OQzpUx1fszyfh2E/jsMGCvUuvBt39FTaNreZbDpysQxcYE3DBrYt+kehDyiB3bRRRfVlpeBM/hNeSJtiZmAqa4LymoHC7zeW1X+mBxh+JoWVXYarBEDwBm0HEhZIXQcq/KZ+i0sInxkA/xjTEtNs6s/dEkDpUqVuqYR8By0XkJfb2KwuuSNxXZg/gIGdc9B+1ZdvHwfVb8YVjtCxWCqiPm4XIdV28RTlf50jTeZwbJj8D0AlwGve2dlGw8YVWAhhkQfhjjMimyVl55vbIvVpTnI97bOzYqDQXr++edPSp8Jiu2etu2zngL+/4errrqqUoerXEa2R+20Xr6tU2awUByHqdltt90y9JTYarjtttsyO2HUk/R1112XVLZyHsI7UroUQgKJ1CuEa3siJTjmmGP8CrgtfrY77cRma9wwDrSl8lYxEhNWiE15WmeddbK2xQDSSHTxaAdNcZEP6qVMo6oLys92ThcJCX3W7BllZvKinO2e90HLgQQKQqLTRQJWxpyxbBjEmBa2h8tpDPIO/kh5Ar3rXe9qbDf9phXwHLReQl+PGSzURC677LKMnQgWlql5pKwpbSlgM2jfCvE0Pae6XwyrHZl5m6ZiDOxmdiEL9cjYLWpGYA6crfGL+kDAGC1nUhRvq8gYFW/2waQZziQgzk6i+T/sWtlA5rApMghRTVxKbFsc3jgfJjGwP2KidGdbNs4YJ2dbL85EzHkyGD810bG/k88YAYeleO4GmzSibNiuOvfcc52J/b39Lsx/YAqAi0fnm28+ZxIrh/V/TDJ0PfofcKOOsH3GXY4m5fMGNzG6ucYaa/h0qnCx7RNnWzPOmG5/nxp4m+K1s+1Xb14jNrFRFT7+ZpOmsy1ob4ICEyFclrrIIos4rJ3zh2FbY9rjIGP5jSmRiy++2P+ZpNHXB3mn7XBtFX+mn+XbNeUHE5EQ2GWXXfz4xDUrmBgJRP/muhuMj9LPafv0QZMQOTuJm/dFzDGYpDQE6/QcRd+a7f3CVGicSQx9vTD3MEYz34nqERCDVY+NXISAEBACQkAICAFDwLaqXbC/aJJGZ9J24dKCgBisFoDkLASEgBAQAkJgNiOAoVok10geIXYaVlpppdkMSVLZ50ryJU9CQAgIASEgBITAjEHA9Nf8NUVs37L9ya0iXM/F9UVlQrUhMFeoa4i5KiNU/S4GqxoXfRUCQkAICAEhMCMR4Jqr17/+9Q691JjMVprXhbUTgvFnZ8ZG83c7uJD/1o9mBLRF2IyPXIWAEBACQkAIzCgEONhz9dVXV5aJQzzxPaN2ytQfosIzB4w4YBUfpqqMRB89AgNf9iwchYAQEAJCQAgIgemBgN1hWMtcUQIzG+EeeOCBvDBmIy//bcbDxVzlaLT/EIPVjpF8CAEhIASEgBCYEQhgJqONzGaf92L3ATuzl+h/mx1FZ9b424LKPUJAOlgRGPopBISAEBACQmC2I4A5hoceesjF0iu7Lsfbdpzt2HQpv3SwuqAlv0JACAgBISAEpjECGMjGUKjdd5lcinnnndfZ9Wu1BpmTI5plHrVFOMsqXMUVAkJACAiB2YsANy/svPPOyQDYdVDu2GOPFXOVjNhjHiXBegwL/RICQkAICAEhMOMRQIq13nrrObvntrGsSK5OP/10t/baazf6k2M1ApJgVeOir0JACAgBISAEZiQCSLGuvPJKd/zxx7sllljC2QXjeTm5X3DFFVd0O+ywg7+DVcxVDk3nH5JgdYZMAYSAEBACQkAIzBwEHn30UcfF7hAW3dkWFA2OgBiswTFUDEJACAgBISAEhIAQKCCgLcICHHoRAkJACAgBISAEhMDgCIjBGhxDxSAEhIAQEAJCQAgIgQICYrAKcOhFCAgBISAEhIAQEAKDIyAGa3AMFYMQEAJCQAgIASEgBAoIiMEqwKEXISAEhIAQEAJCQAgMjoAYrMExVAxCQAgIASEgBISAECggIAarAIdehIAQEAJCQAgIASEwOAJisAbHUDEIASEgBISAEBACQqCAgBisAhx6EQJCQAgIASEgBITA4AiIwRocQ8UgBISAEBACQkAICIECAmKwCnDoRQgIASEgBISAEBACgyMgBmtwDBWDEBACQkAICAEhIAQKCIjBKsChFyEgBISAEBACQkAIDI6AGKzBMVQMQkAICAEhIASEgBAoICAGqwCHXoSAEBACQkAICAEhMDgCYrAGx1AxCAEhIASEgBAQAkKggIAYrAIcehECQkAICAEhIASEwOAIiMEaHEPFIASEgBAQAkJACAiBAgJisApw6EUICAEhIASEgBAQAoMjIAZrcAwVgxAQAkJACAgBISAECgiIwSrAoRchIASEgBAQAkJACAyOgBiswTFUDEJACAgBISAEhIAQKCAgBqsAh16EgBAQAkJACAgBITA4AmKwBsdQMQgBISAEhIAQEAJCoICAGKwCHHoRAkJACAgBISAEhMDgCIjBGhxDxSAEhIAQEAJCQAgIgQICYrAKcOhFCAgBISAEhIAQEAKDIyAGa3AMFYMQEAJCQAgIASEgBAoIiMEqwKEXISAEhIAQEAJCQAgMjoAYrMExVAxCQAgIASEgBISAECggIAarAIdehIAQEAJCQAgIASEwOAJisAbHUDEIASEgBISAEBACQqCAgBisAhx6EQJCQAgIASEgBITA4AiIwRocQ8UgBISAEBACQkAICIECAmKwCnDoRQgIASEgBISAEBACgyMgBmtwDBWDEBACQkAICAEhIAQKCIjBKsChFyEgBISAEBACQkAIDI6AGKzBMVQMQkAICAEhIASEgBAoICAGqwCHXoSAEBACQkAICAEhMDgCYrAGx1AxCAEhIASEgBAQAkKggIAYrAIcehECQkAICAEhIASEwOAIiMEaHEPFIASEgBAQAkJACAiBAgJisApw6EUICAEhIASEgBAQAoMjIAZrcAwVgxAQAkJACAgBISAECgiIwSrAoRchIASEgBAQAkJACAyOgBiswTFUDEJACAgBISAEhIAQKCAgBqsAh16EgBAQAkJACAgBITA4AmKwBsdQMQgBISAEhIAQEAJCoICAGKwCHHoRAkJACAgBISAEhMDgCIjBGhxDxdABgX//+9/urrvuqgzxz3/+0/3yl7+sdJv0j+Sb/IuEwExCoKm/zqRyTueyTOdxczrjnpJ3MVgpKI3AD0zHwQcf7DbccEO33HLLuWc84xlu3333HUHKU5/En/70J3fWWWe5t7/97e65z32ue+9739uT6G233eZe8IIXuIUXXtjttNNOPe6T/IH8ku/nP//57qc//ekkZ1V5GxICm2yyiZt33nl9X11vvfXcoYce6v785z8PKfbBohl0LEnpr4PlUKGHhcB0Hjd/9KMfuac85SnuhS98oXvlK1/pttpqK/ed73xnWNBMRjyZaOwIfO1rX8ue/OQnZ9Yi/N9LX/rS7PDDD8/uv//+sedt0Awcd9xx2eMe97i8bJRx/fXX74n2wAMPzP3MNddc2d///vceP5P4wVb42ZOe9KQ873vvvfckZlN5GjICP//5z7MjjzwyW3PNNfO6f/rTn55ddNFFQ06pW3SDjiWp/bVbruR7qhCYruMmePzrX//y/eXd7353Nt988+X96HWve1326KOPThVkI43XjTQ1JdaDwK233prNMcccvnHBZH3729/u8TOdP8CA/OEPf8hMepV3oI022qinSBdffHHuvvLKK/e4T/KHV7ziFXneL7nkkknOqvI2BQjAaIXF0XOe85zst7/97RSk0h7lMMaS1P7anhv5GAUC03ncjPH5zW9+ky255JJ5P5opC1VtEY5ZkHj55ZfD5PpcfPKTn3RrrLHGmHM03OTnnHNO9+xnP9uxjRLIJFThZ/58/etf77773e+6E0880V122WX590n4cemllzZuW5LfE044weffVl+TkGXlYYQI7Lrrrm7LLbf0Kdpiwn3jG98YYeqPJTWMsSS1vz6Wqn5NJQL/+c9/3Bve8IZavdVJHje74PK85z3PXXDBBXmQr3zlK/nv6fxDDNaYa88kVnkOZhpzlRfMfph0Ln9lEK+iVVZZxW2//fbOtlqqnMfy7de//rXXDfj9739fmz76cu94xzsc+RfNTgRe85rX5AVHt2QcNMyxJKW/jqOMsy3Nj33sY86kVI0HaCZx3OynnhZbbDG30EIL+aD33nuv+8tf/tJPNBMVRgzWmKuDFW+gRRddNPyc0U/TyZoW5TM9ALfpppu6uI6mRcaVyZEjsNRSS+VpjmtiiNvpMMeS6dJf8wqYIT+Q6HDwaTbRJPSjYeI9PWa6YZZ4wuIK24Nky3SxJix3/8tOnMfUDBKGAR8Rd5naymkK7uUgte/47TqhcUrK9FXc3/72t9p4OfoMc3XdddfV+qly+Mc//lH1ufJbFTaVHqOPjzzySPT2v5+jPL02jPRT8O8p5IR/iNv0f//73+TcVuGZHLjkMe6ncX5K3ipfB+mvIULKHechfG97Mk40SYirwg/ahkgTExT9Uj/l7JIW271bbLFFJzy7jJtd8jJKv3G77dKPRpnHLmnNSgbrm9/8prPTMv5vXPoSoZK6NCI7VegOO+ww95KXvMQ/iYP8b7fddg7xKmL9lVZaqaADwkBiCoNumWWWcU984hOdKRK6d73rXe6BBx4IWeh5MniAz8Ybb+xND3CUlnCYWfjVr37V4z/+cP7557s3vvGNzpR9/TH2eeaZx6En8MMf/jD21vPbTpT4Pfi3vOUt7pnPfGajSBymhyO95OlpT3uaN2lhp1C8nlSdHS1w+MAHPuDIz7Oe9SyPIVuRL37xi91BBx1UyA+MF3k+99xz8+/oWa266qr+D7xjshNl7oADDnCLL764+/jHPx47FX4zANqpH7fBBhu4BRdc0D3+8Y/3YTjyf/zxx7u6tnDHHXf4PK644opuhRVW8HHCIO62224+PHgtv/zy7thjjy2kN6yXYaTfBf+Qb/Cgr6LfRP1CTKxgvPbaa/u6xzQG7fmvf/1rCOZ1+Kg/wsw999zuta99rWvT6fjZz37mdt55Z2cHLPwWNe2ELftTTjkljzf1R109xuHvueceX2fU3bDMkqSkG+eB3/321xDPtdde6975zne6l7/85f7IPeV51ate5ctEu6kjFiLUI6Yu+KOu+Hvzm9/sw7NFVKZ+2lAcBzqebOWGsYn+T17pR6eddpq78847/aKLNlZmoAYZE+M8pPw+55xzvN5VvABksRfGHzAPlDJujmreGGYfonz9tOeAy8Q8reHMGrKJObMOnJ9UsErwJgRsUs+uuuqqseBgnSbPz0MPPVSZB2OisnXXXTcz3aXc7z777JPZCid/pyzhz1YBmQ0m2fe+973C8dfgztPsjmQmpelJjzwYg+TjssEnM52ojFN9IaxNWJkNAD3h+LD//vv7E5EcVzfRtsf0i1/8YmbbFXl44iHfgTj5tO2222amx1TwYwNw8JI/rcNlZm8ow4yD2czyx+Q5RbPLLrvkYUnbmLk8DD+M6cqMofF+Vlttteymm27yJxs/+9nP5pjaIJuH+cEPfpDZpJwZ05rHu8ACC/hvfH/f+97n/R511FGZMT25H8r2kY98JI8n/nHzzTdnJv7O8/DpT38646SMMUZ5eOrEBqk82H333ZcZY5y7Ez95OvnkkwumIULd8OSY/rBoWOl3xf/hhx/OTHE8rzPKhSkMY3Izm4wLeISyh6PdNtlXutMnjJmohMYY6Yx2bRN8ZhNZ9ra3vS0zJjyPZ5111mk1G0JfC3nZeuutK9OJP+611165f8IZQxE79/U7ZSyJI+6nv4bwHKOnDJhgsQWYb/f0h8033zyzRY8vG6eiMTdjktoQzD/px2GMMbt/2fXXX5/dfvvt2e67755j8pOf/KQQpmsbKgS2l0996lO+r5Onz3zmM34Me9Ob3pSnF+ouPMlToEHGxBBHlydtn3Em5IXn6quvno8/tLWUcXOU88Yw+hAY0Y9Due++++4usE2kXzj1WUE0SBiGUHnlJ/ZsyhPzKICJmQ+TcFQmaXvx2R577JFxBDzON4MFjBaM47e+9a3MJFu5uykLettatrLMTDqSMWBh4wbmJMRhq/pCehzRftnLXubdGSxjipkYmCEm35hgLIiXiQrmLibsecUTY8xgwXh84QtfyExalueLeKoYLJgg3JZddtmMY72BGLBjUwkMRjHFTPXVV18dO+UDPRNwuUxgELCqmjRNYpQdc8wxmZ2SzP1VMVhmfDRniGwFnZHfQEw+8aBCXL/73e+8MwwwzCzlCfkITztZlJ155pnZDTfcUBiMTaIToh74Oaz0u+JvK3fPrJcnGRYYYHHqqadmpkju/QQ8eHLM26S0mUmivLkTM1pYsFMFc1qms88+2y8KTJJZMK8AowvDFeL/4Ac/WA5aeMcuVvALQ9ZGtJvg/wlPeEKhPbeFrXNPGUtC2H77awjPoijkv7w4xdSMSWdzd8aomOxUrndjLDJJeuyUhT7OIiemrm0oDktcYXEKoxUIJrG8eGSc488Ot3hvg4yJIZ1+nyYNzDEsMxsp4+ao5o1h9SFw2mabbfIym6SuX+gmJtysYbDi1VEYGMrPD3/4wyOtGBN5543JLIG3pm0W0HP/ZhHdT65xICQzcZlgZMpSqg996EO5H+KL6fOf/7x3W2utteLP/rfpORWYMyRbgcxydMYkQdpVDAb+PvrRj+bp2pZPCJo/sR0U573MYMH8hkHymmuuycOFHzA7ITwTTUxIn4Jb2c4Yq8XgdsYZZ8TBspjBouPX0Y477pjHUVX+YIwSjGIJVYiPFXI8OcYMKH5uvPHGPH7yaluaIah/2tZGwb1OEloI1OFl0PT7xd/0cgrlwiAhk2JMSEBC/dm2XlZmoMEiXlQE5pU4aGMB9zKTgDvjQYgbSU2TlAmmOUhuWIDETDRxlQkmEgmQmS/J7JaDsnPn9y5jyaD99YorrshxqesXRx99dO4HZuuWW27JyxSkd3z/4x//mH/nB4scsC4v0vptQ8QZpGXUZZwP3FjAhDp+6lOf2iNt63dMJO5BKWawYOCrqG3cJMxUzhvD7EPk1VRg8vrAvtx0p1mjg4UuRxtdeeWVbV6G5m4Nx+t8hAhNtB5+1j7RFwpk4m2vbxXeeZoFeG9zKnyzLQBnk3p49c+gw8OLTTa5G/pBHAmGll56acdR8/gPPSMb5HL/xszlv42pcOgCoKD4nve8J/8e/0BfKhD+yoStrCaybTmvMM+VCuhNlAkzCZtttpnXNUPPKSaTPvm8oXsRn1LBD/plgdDxqKOqPAe/TXn/+te/7oyp817Je1yHITxmHoxJC6/uq1/9qovx5XqhmGyxEL96/Tv0WAKhCzFMGjT9fvGnvtCXC4TOjjFL4dU/bes8f8de0Ktf/er8nR9gu8gii+TfYmVqdNbuueceHyf6OHF753ectjFMjXqEtA9jjH06HDowJiJPs+qHTeZebw8ba+jgDUJdx5JB+yu6jIEwq1JFxgx7fUfcjCl2e+65Z+4tnErkO/pb8SEVdOrMEHGhXxKw3zZEWNvu4+EJPa+Y6JOBbGva/eIXvwivbpAxMY9kSD/qxp+msSckHY85w543htmHyC9XxaE3CR1xxBG+f/qX6fpvunOIqflndWJ11PiH/s5Ukw2+XpeE62LID6s4JCBcG9BG8bYCYarImKO8jKxUy8R2YsCBLZhAsQ5JcG96sj0JISELkiX0nOqIPfoQnymo93hDFB/cecYSLFM6zd1MIbgnbMoHthTjLVhWzuhivOhFL8rjRl8kpliCxZZIHaFLFfJelmCxtRTcsGZfR3Z4oHClECvnQLiFOHiCVZnQLQt+2C4eJg0j/X7wpwzxtniVhXS2SUO5q9oVcSAlCn5iyUi8NRvcm57oFTYRbTZOC+kO/S1ud03hu7r1M5YM2l+RZMcYGUNSm20kjsEvEqhA6MKF7zzpg+hStlE/bSiWLJIWW2tlsrvw8vwYY5079zsm5hEM+COWYNlCoDK2pnEzBJjKeWPYfYg80z5QNaG+UHX53Oc+16O+Eco26c/ictBKNFNp/vnnd0hhmqi8umny248bJ+lMx8mfUGGlbSJQf1LPtgf7ia4yTCyRqfIQS7RiMwGx1MMatDOdpqrg+bcQDxfLhni4rDmF6lZjdWE5MReIFW4/hKVgyHTRnDFOXkqE1MIYxaTouuY5RGpbEuFnQZKSf/z/H5wq5KQn+YPiMv+/l8ZHv/lrjLSDY1v6g+Jfl5W29k640Fb5Hdoqv0Ob5wRmymnBYASRsFXEKV0kUt///vf9CVSkl0hIbAHipTQpea2Kt+pbv2PJoP01bpdIE5v6I7c3MJZAxhw52671J4Q5RWvb5rlk1/SLnC04/Tdb9PgTvlVl7qcN0S5NJy4/EXzhhRfmJ3FDGvQ95gbGgljCHdoH/rqMiSHeYT7b+tegabW1zVH1IcrBKXTbKvYnXO1uT4c0FEIKym0n04lmDYPF9gGdt4no5FNJHP1mewuRtekRedE5gzaMSRCbD5p+eQslNT47xZN7tRNbPYNQ7lj6EQ9C8eRV8lZ47TpYxIN6vMVTiLTlBfMNdlDAmZ6V3+q0E4T++D/mFfhro655DvExsQQy6UH4WfmkLQQGq20xUBnBBH8cFP+6ovXb3k3alG8HsUUVb53XpZXyHXMRWN7G/IEdbnBsBZp00TNZKeFT/fQ7lgzaX+P2TH9nmw/GsorKDCltmgUmfQkjmmzpM4EGYisdcw+YTcF0Qpn6bUOM/cHkCuZnTCcp376kTwZMMENjOwp5sv2OiXkEQ/zR7/iTmoV++tFU9SHy/OMf/9iZ8rwz3UhfhCWWWMKrrqSWZ1L8zRodLDpz0yCK/SjsPk0lIakyJVxvgNPMDThTHnbYfWJQYf9/nARTFSgMOOG96fnggw/mzrH+Qv5xCD/iweW2227rHCMSBer39NNP96tjGFx0R+omhqoE4jxUudd9Q48oEBNEE8W6TrG+W1OY6eA2DPyHXU4mlDCp0G6ZLAYl7Cih77Lvvvs6U4h3ZqLE2Va0l2p1aWsp+eh3LBm0v8bt2bZnGu3ixe2ZMsVtGvt1SJO+9KUv5TbO8IMup22r+7s9eQ80SBvCjppt8fuoYBBhuFi0ISVBZ5RFG4yfqQiE5Pyz3zGxEMmQXvodf4aUfGU0U9GHSAgdUzst7M477zwv1YTR5Q/bh9ONZg2Dhah+v/32q7xMGaOFKH5iWHAUhBIfjYgBGELcj3RlnMQKIRCMCANdE5mej1+FYuA0EErziPvbqOtgEYvtSbfJgCFps+oJCvwoqr71rW/170gJ2cJhS6Ardc1ziJ9tv0Csypootsgeh2sKM+luw8J/2OVkcjDdGx8tCuxthkiRdHB4Iq6jcp6YxDHqSDvjUA2K2fHWStn/MN67jiWD9tdyu2xq0zFWKGMHhosxAuYGAiMYU8ZDtlIDYfQ1ML2DtiG2/tgCxiAtZHp4fqGFhA1DzcwLpm/Voy7Q75gYyjDMZ7/jzzDzUI5rKvoQBp0Do4vCu52wdXE9lPMw6e+zhsGiIjidAvNw0kknOTuC7f9OPPFEZ4Ybp1x6VdUQkKqhBwQhMh8nxaf8OFkVdCeq8sQJN06jIJHhxGFMWCQfNsV5Y1sCy/R1hJVjtnqZ6CBWyUgTIPTKgh6H/9DhH1sh/dByyy2XB2MyapqQYiv5nAidCTQs/KcCi7hdMckykVcRkhq2j9heiqUasV8YBiZuiDrHIvwoKXUsGbS/wijFkqgvf/nLtcWM23O8e3DCCSfkkyiBGQOR6LOtimQLgrkKeA6jDbEwM/tp/tQiemhsxWOxHYkWEsd4a9BnwP7F7aPLmBjCD/PZ7/gzzDxUxRVjNGgfIn47tJInwy50s5rTAABAAElEQVRDzHTnDtPox6xisKgXVlEMlocccoj/oxLLugKjqj8aT5DOwKzEVyP0m4d4kujSKRkA2UYLxDFzVg9lYiJBCZGVM6YRODxgdrNyb2Y01MWK3cEhNjsQmJ/gxtNOw8SvhXe2JbjiIpBZK/dpl8MwILPNi1IkistQvG3JVgDSipjifMXY4ScM9vw2w4M8KinOR/wbz2xPLLLIInk4mPsqshNyfssYN/CMTVEwwbdRqv5bWzxV7oOkPwj+VXkpf4vrrEt7J54g0eA39ct2PZNumZiAuUrFbMjVbivHbbos5SnHxzv1hTkOM2rpzFhslZdO31LHkmH013iBA/MTpMXlDMeLxmACJvhh+6fcZlkYxWZeggRr0DZEH2dxzRVjjE92atH/5lqfJup3TGyKs4tbyvhTHm/K76np9duPhtmHyGus45fSj1LLNzZ/NniKxoiAbV0ye/o/049ozAlXWwS/NmBU+jUJTe7HBvAeP3aJaO5uzF3B3RROc7eQDtcIcaWMSf78VRYcnzXRcGZbIHlYG8C8NewQBgvYprDqjUJyLBxLv7GZDAwxYkU+vo7COlYhbRtU8/j5YXvw3kp3SIMnlrm5GgWDkBicNDG6P9aLEcdAJokrxIu5BQxnchSYK1Hi+Gyr2F+rY1JNHxzjk8GdcpMnG8C84T6u7Alkg0zur8oUA0fQQzxgV2VGAWvX+MG9bAzRVtt5ePwEK9MhfZ5gEdIwCUHsNPDvQdIfBH+wti22vFy0szLF8dtWQtnZv9uJ3TyOsjHZ+AYA8DPdJm8UF3/cgBDMX2CB3xi4yvj5GJs/qTO+GQemb4b6MqlYbr0/9tP1d+pYMmh/NcYoW2WVVfL8Y7m+jA1jGYZfKaNJ1wpFwZQJ32Or6sED11DhRr1jEgKK6xi3Ln2Y8MEKPOOOLQoz2+r1t1rYYsffCsCVMqaTVWkqp98xkXQHJQw+U17+sC4PYZWe2zkCNm3jJmGmet4YVh8ir7GZEzsUwadpTbPGkvuk1lJ8fY+tBGuzSYeyFVXe4Ri8yha7Y5tAdEqYsNi+FsyOXVScx4EfBhAGzECx3abQueMnDEBsoymEw+qu6Z4U4rYVWH5lRtnNVtz+3jfCMzgHBiOkhW2pOF/4Y0BkMgp+yk+TRGamDIvXnEwymNtUKfvH/k5sOTi4M5lC1Ad2ysJ30maQJh2sp0PYGuN6muAHez9VNmvseHFuUZy6s5W/t/VF2WGIwAfbYqb06+MN/7B1FFtiJh0GzDChUb+mX5KnjzsTHpa9h0GDpj8I/rb9VCiXGRotFAlbZoEBCvjHTDueuQEAXIM7dntMkpnHAzNLfQb3qif3RWKLrYm41iOEpY+1UbgSJoSJFyxtYevcU8cSwg/SXwlPu7et0LzMMD1hQmQBEO7ohEmI8SZsYLBYENH/GMdgpmF0gu0n22HAq6dB2hAR2MXfeT4D3lVPbK5VLUr7HRP/l/v+/5tB10K+uW4MzLgVA0oZN0cxbwyrD1Emxq5QN6bawadpTWKwxlx98eq6ypAi2UNCE08SoQHCwHC5qh0Nz2LJVXDnCUPApM2KvCoO/MAUxMS1M/FltyE+7imskiKEsJdccklBkkI42x7zki8uIead1RcGPsMdZAykdUwTUi+kXzGZDpNfPccMG+XiLsM6poK7z2J8wI3BC+aBQSpIv4gHqVZ8fUd8ITT5t21UL0HiQmIMqwZs4ieDIHeclQkpR2zY1GzP5MwfBmIpW0yUp67OMIrLpL+m3aEZpx1+wwjHRhPjeFN/Dyv9rviDA5d5h7LET9oTdwxi9JMyxm78pl3AEEG017J78MO9nIGQAtgBl54Fgp38y/bdd9+e66ZCuPjJFT0hrSopZuyX3/Qj2iFhTN+u0nhsOUzbe8pYEsfRT3+Nw9sWnpessFgKZbctSP+bhQmMAIxTmWCw6AehT1JnIQ7qnQviy9S1DcV92A7FZLEx0ZDXuicSszL1OyaW4+nyDuNpOk45towXGD+GUsbNUc4bw+hDlItdhFAv5V0M3KcbzUGGrUCiMSFgE2Ru6wP9pibDfaPOIqd7zPKxNw6I4m44BdSWD5uY/bFa/KPvAKH/xF9ZybYtrjp39NUw2YDuCXmrUlKNw9pA7+3d0Nw5lVI+Ng/2XI2C3aIyYSCRY93o6qUaUy3HEb+jMGuifm/ckLzYan+i6j3O67B+D4L/sPLQFg9tCnMA6MOhG8lf6ilAbDgFXUR0E1HkbiPalU1MQ+sT/Y4lg/bXRx55xJ+ENqbR90fMzqADWe5jAQ9shRlz7E/tMSYwztAvOd1LHzOGK3gtPPttQxx8QW8UfVuuJOPQC+YqyDe6Rzwxp8FJQsY7k3I6Yz4LaYeXfsfEEL7rE1xQyLeFoLNL7pPbY9d0huV/kD5EHvptw8PK/7DjEYM1bEQ7xscx5XBEHBMCWD8WCQEhML0Q4E42DFhCnKYyydfIC6CxpBdykxo7uxLML54wdMqCrIlgjjEVwIJLNHoEOITBoQnqCWbNdjdGn4khpli9VBhiAoqqGYH4ODdWxkVCYFgImLK1P+3Jic9+/ljxi9oR4DQcVqcDxX06fBvFM05XY4nz1xOZ/pWfqDld3MZcUUdIz7jGrF/CSHM/fS0OgxmJ2UhIgcOJVCT70525og7nmo0VOUllxgjm0Ucf7ehUHOHnPkRWvzOhcU0SzrMxL2x/sArsl+Kj2/3GMdPDsc1nF5C7K664whcVg8amzzWWYmssKcLOhG1K3v4jlsAxnly35ctWHHfDnmw2EWNmuRhj+xvM9iB9jhSIY7YRhnlpvxBby9icmwmkLcIJqEUM8m2xxRb+fkKyg90nVl477LDDQKupCSiasiAEZiQC55xzjrdjhSVwrrlCpwjL00zQwXjwOAquseQx1LFNhs5kYFi4xgj9KqQjiy++uNcBQ9+OmzSwSYY+HIansV0nmnoE0P2zwyr+do1gOxEdPDPfMRbD31NRYkmwpgLVjnGi2M4dhYiXsTiMNAvDo7El5I5RyrsQEAJTiAD6PGzrcKULhmTN1lLhTr0pTLoxao0lj8FjpxS9ZXAWr1x1FO60e8zHY78w7ItVei7mFo0GASTk6Lqh2M5NBKuuuqo/KGKnsEeTgRGkIgnWCEBWEkJACAgBITAeBJBMHXPMMf60NlbhsdYPI8pdlJxA3m677fIbNcaTQ6U6UxEQgzVTa1blEgJCQAgIASEgBMaGgE4Rjg16JSwEhIAQEAJCQAjMVATEYM3UmlW5hIAQEAJCQAgIgbEhIAZrbNArYSEgBISAEBACQmCmIiAGa6bWrMolBISAEBACQkAIjA0BMVhjg14JCwEhIASEgBAQAjMVATFYM7VmVS4hIASEgBAQAkJgbAiIwRob9EpYCAgBISAEhIAQmKkIiMGaqTWrcgkBISAEhIAQEAJjQ0AM1tigV8JCQAgIASEgBITATEVADNZMrVmVSwgIASEgBISAEBgbAmKwxga9EhYCQkAICAEhIARmKgJisGZqzapcQkAICAEhIASEwNgQEIM1NuiVsBAQAkJACAgBITBTERCDNVNrVuUSAkJACAgBISAExoaAGKyxQa+EhYAQEAJCQAgIgZmKgBismVqzKpcQEAJCQAgIASEwNgTEYI0NeiUsBISAEBACQkAIzFQExGDN1JpVuYSAEBACQkAICIGxISAGa2zQK2EhIASEgBAQAkJgpiIgBmum1qzKJQSEgBAQAkJACIwNATFYY4NeCQsBISAEhIAQEAIzFQExWDO1ZlUuISAEhIAQEAJCYGwIiMEaG/RKWAgIASEgBISAEJipCIjBmqk1q3IJASEgBISAEBACY0NADNbYoFfCQkAICAEhIASEwExFQAzWTK1ZlUsICAEhIASEgBAYGwJisMYGvRIWAkJACAgBISAEZioCYrBmas2qXEJACAgBISAEhMDYEBCDNTbolbAQEAJCQAgIASEwUxEQgzVTa1blEgJCQAgIASEgBMaGgBissUGvhIWAEBACQkAICIGZioAYrJlasyqXEBACQkAICAEhMDYE5kpN+aqrrkr1Kn9CQAgIASEwQgTWWGONEaampISAEEhBIJnBIjJ14hRI5UcICAEhMDoEtPgdHdZKSQh0QUBbhF3Qkl8hIASEgBAQAkJACCQgIAYrASR5EQJCQAgIASEgBIRAFwTEYHVBS36FgBAQAkJACAgBIZCAgBisBJDkRQgIASEgBISAEBACXRAQg9UFLfkVAkJACAgBISAEhEACAmKwEkCSFyEgBISAEBACQkAIdEFADFYXtGax31/96lfub3/7WyUCv/zlL90///nPSrdJ/kieybto+iAwKXX273//2911113TBzjlVAgIgZEj0MkOVsjdpz/9aXffffeF1/z5nve8x73whS/M38s/GBz32Wcf99///rfs5N8XXnhh9773va/SbTp8PPHEE93PfvaznqzOMcccbt9993VPfepTe9yaPvzjH//w4arwmmqssixzP/zhD92ll17qzjvvPHf99de7a6+91r3yla8sZHmnnXZyxx13nHvOc57jrr76arfUUksV3Cf15bbbbnNrrrmm+/3vf+9ot8cee+ykZrWQr5/+9KfupJNOKnyrenn84x/v5p9/fveyl73MvfSlL3VPe9rTqrxNq2/jrrM//elP7vLLL3cXXXSRu+CCC9zLX/5y3z+mFYjKrBAQAiNDoC8G60lPepL7xS9+4b72ta8VMnrZZZe56667rpaRYNJm4L/mmmv8ZBwCw4C87nWva2TOgt9Jfj7lKU9xjzzyiPv617/u7r///kJWn//857v3v//9hW9tL1/5ylfcoYceWvD2xCc+0b3lLW9xL37xiwvfh/2y4IIL9pSBuovpP//5jzv55JP9pz/84Q/uq1/9qvvEJz4Re5nY3+eee65nrsjgF77wBXfkkUc62vWk01xzzeXA/cILL3R33nlnUnYf97jHuRVWWMHttddebuONN04KM4mexllnxx9/vHvve99bWBxSFyIhIASEQC0CxvQk0be//e0ef1/60pcyG7wzizz/23TTTXv8VX14xzvekYcxRqLKy7T99rvf/S4zZisvH/gsssgimW0rdCrTMsssU4iDeM4555xOcfTr2RjF7KabbsqMqcrzcPPNN/dE94pXvCJ3v+SSS3rcJ/XDxRdfnOd75ZVXntRs1ubrX//6V2ZSzLwMtA36kUnkfL19+ctfzvbYY49s7rnnLvgxiWNmEtHaeCfZYZx1Rt+1RUT29re/Pcdzo402mgi4qsbmiciYMiEEZjkCLrX8dZ14nXXWyQecwGgdfPDBrdF+97vf9eGe+cxndmY8WiMf0AOD6frrr5+ZhKDvmFZcccUeXEzCkxyfSQN7woPvgw8+mBzHMDyapCzPx09+8pOeKB966KHshBNOyKjPSaKUOiTPtq2b/fnPf56krCfnZfPNN8/rhrbx17/+tSfsj3/842yhhRYq+JvOC5px19lpp52WY7nJJpv04D2OD3Vj8zjyojSFgBB4DIGBldyrxOQf/ehHHduFTfSCF7zAOz/vec9zc845Z5PXkbt97GMfc7ZaHkhx+9nPfnZPvg877LCeb3UfjjrqqEqnZz3rWZXfp+rjk5/85Dzqqnp6xjOe4Uwa6VZZZZXc3yT8SKlD8rz99tu7pz/96ZOQ5c55KLcFttrLtOyyy7pjjjmm8Ln8XnCc8Jdx11lbf5hw+JQ9ISAERojAwAxWyCs6HoFQyrbVtfv5z38ePvU85513Xv/NJFg9buP8gPKqSeAGzkKY7Oabb748Lttic9/61rfy97oft99+u7PtNq84Pkk6M+jyTAcaVh1OellDG2vL56te9SoX1x2K8qLBEYgxHTw2xSAEhMBMQ2BoMyYK75xsC/THP/7RvelNb3IPP/xw+FR4BmlIeBYca15M8FbjMpzPnBDaYost2DYdToQWywc/+MFCXClSrKOPPtrngdNtKM6PkjDFUGeOoW1C59RjCoGvbXUWFIbbwnGC69Zbb63NWwjfTx3+/e9/D8FbnyiYdyUOPpTJtiXLn6bs3fSw3BOe8IQ8ftLu0sa7+M0TmeIfbXX26KOPOv5ion2a7lr8qfU3ZecAR1W9t/WHEHkX/ChXnEdOXsfvIU49hYAQmHwEhsZgIZHi9FwsQjedHb8F0y8MDEyYAECKwyk8mI0ll1zSmaKpwy5TTGzprbvuupV/HMG/8sore9xe//rXO9PV8dGY8rh7wxveUJjATWHfrbrqqv4PEwX90LbbbuuPy4ewbJ3+6Ec/Cq89TxgJOzzgOC3IqaUuhImInXfe2ZnStt/2mmeeedwaa6zhTjnllMZomHB32WUXf9KMLT+2zDC38PGPfzzHpy4CpJQHHHCAW3zxxb3/On9MFPvvv79be+21HVJLzDrQVlZaaSV3+umnV074TGwf+MAHHOVgO+wlL3mJzxsnKA866KCepLrUIZMWki5OZJIf8ldFTHgHHnig22CDDRwnKzlJSVlN/8ZxsqzKhAbx3HHHHT6PpovnceUbDOJuu+3mw5Pm8ssvPxLzEDfccIOLmV8WQk3MQZd+R7kgTs2yeKCOwiLiG9/4httuu+3cYostltc13wJRv3vvvbezwxy+vdO33/Wud7kHHnggeCk82+qMMmJSZJtttnGMRyz66N+mI+jrj3ZEu3vb297m7r333kLc5Zfzzz/fvfGNb/T+iYuwjBeYLmmjfvCzAyW+7z73uc/1Um4w4NQx75jboAwiISAEphkCNhgkUZ0ipZlX8EqfKDtDKHIbBIW/KqV3lJDxZ9sXlekTnw1wuR/Tlck47RXi5nRUfKLOpC7ZVVddlZnNn9wPfjlJxekf3G1Szt3e+c53ZsY05Wnvuuuu2Wtf+9rcnbCrr766/8b3733ve7nflB8xLsaAFOLdcssta6M45JBDvF9OWUJbbbVVIWxdQDvC7k+M2ZZkxklOm0QyY0rysBxGMGahJ7gxAplNbN6fTSDZGWec4XEEH5uE8/Dggd9ApiOWlRX5P/KRjwTnwtMMMub1svXWW2c28fl28qIXvSiP3ybFQhgzAJoZQ+PdV1ttNX8yjnr87Gc/m5nU0383ZqUQJqUOjcnJjOnNjJHM06ZsNjkX4uKFU5PGaOZ5MPtvmTEEmTFGeVizC5YZY5uHNftwWfn0pzEY2cknn5yZGYg8HGmGP/Doh8xmXB4HcdHGy0Q/A9uQFk/C1VHXfmcMU2YLm7xOiN9s3WUmCS6kGdKnTaGoTn+irYbv8RNMjeHNs5hSZ2YeJDM7c4X4PvWpT/nxJY47/DYbVpV1TqK2EPBt3xYaGWMX48oXv/jFbNFFFy3ETxnL1BU/Y97zNhbyxhhqKheFtDioUEd1Y3Odf30XAkJgNAggOUiiuk4cMxIhot13370wOJiuQmYGK4OzfzYxWLiZgUQfBxN5TCZpyeNmkmRCi8lWpoXJk8k0kK2mfVgGtToyyUIe/913313nrfV7jIttl2Zm6DGP1w4GZGZHrCcO29LITPnfD+5MKlAKg3X22Wf7MJz4++1vf5vHy8QfT2K2XZm78ePXv/51zoRtttlmPac5TVE8zzODf8xgmVQwM2XpzJT5cz9VDBaMUmBm8B+TGWzMwxL/FVdckTu/+c1vzt3MgGn+nR+B8WayLtc/7k11CNNkdq8yk4rm8ZN2mcEyPaWcIXrNa15TMG1g20VZqF/CggGmOSAYAxh/mHPc4j+TkGZnnnlmZhKlAjNv0lkftuu/NgYLkw3lU74wCTCqVdRPvzMpoF/EmGSoUFaTTnpGy+ziZaZ3mJlkK3eHWcAdJsekgBmnU01SndEvAl7xSceUOqO+YIzifkZcJn3K9ttvv8wM5Xoml3RDGpx+LRNtGHcWcOWTsSal8/GF8GUGqx/8GIvM4G2epxD3EksskXFKlLGTb7SnOqobm+v867sQEAKjQWBKGCwGmvXWW68waJiIPYsZFvwwcFRJsD7/+c97t7XWWqsHhb/85S+FgRjJVplsSyxPO6yYWWmTHqvtJjtA8eRs21/lqJPfwwQcJHu21ZXniXzwXibbKvN+kCQFamOwYAzCypqVdpk+/OEP5+kyWMOABgI78oLNLpjAMiHxCgM8/qrMVuy44455/FUMFkfZCQuTUiYYygUWWCAPj5QgUPy9PIEgqSJO/pC4lSmlDmFEQxw8ywxWmPRMd6kgoQppUa8Bd8KXJ9sbb7yxED/S05jAMk4/tJPYT9vvMoNlunvZJz/5yYxFiG1tF2yYwby8+93v9kx1XbyD9Dvbzs7LY9tanomM08GmWlxe8IqlVPj90Ic+lPshvjK11Rn+YWJDOiw47rnnnkI0SI+De7kPImmlvnGvastEZCek8/BlSfQg+MXSXCRxtkXo8007YWESL5wKBbKXcv8ou+tdCAiB8SAwJaaIUVxHrwb9GmOqbLxyDt0ilN5tVVhr6R1/6LxwxB5aeumlK/WVbPLN75BDd6FM6D2ZpMCbWjBY/YlGm0C9HsXJZnncmK5ykMr3VH+VgUsfjSnwx+WNsfQu6FRwbRC6HYGCaYayYnxwr3qiX2aTiMNcBrpTZf2u+Cg/+kLokKCDg35c0M3ixGecj5AOls3NQGp+GrQKjypzFCE8CucmXfOvtlUbPudP8vy5z33O7bnnnl63bsMNN8zdbCvRW7En/vL1O7HiP3o8TVSVZ/w35RtdQpu0fLRcDYTOV5nQVTPm0oVyYcWeeuNqGgjdmZhMqhu/er0kdHu4qgdCfw7duUEIPboyob+DLh91jC5UHQ3a72KM6Of0/Zi4rgfMOdwAoY8XK97zLT6JbBJBPhWoqc6Cxxj3t771rb79Bjee6FSeeuqp/hOYx2RMlVcop81wwKSK0BMLFLetQfEziVU+VqK3Fk4fU2dN9RbyoqcQEAKTh8CUMFgUkwkbhVPs1oRTaUHp3aQOtUiYYcRcydX0bRx/TYRJgypi4kbhFgXuoNDKJIii8jjItkWcbcM52/rwyYMJCvzYDIO468/0UvwkY9Ie/y3lX7A3BuPGJNZGTCpmgdorAAcF7SYbVm02ouJJppw2SuSB4skzfOOJ8jh/ZcJUBgwD7ShcYQOTzuQI8x6Iia0fasr3d77znTxKk1Llv8s/TILhmcOA4w9+8IOcwWqKP8TDpBoYrNBHgls/T5hC7ghlgRHyxAlGDom0TdKD9juTdLZmGWYvMFhVnuN7TE1S3eMlBdM2PzEjGGOOAj2MNcQCjv5aRXX9YVD84kWDSe6rktY3ISAEphkCU8ZggQOng2zbx5/UQpIEIVlilW/bAf69/C9eVcIk2VUsZS+F9/IqODhy6vDwww93O+ywQ/jkONHVhdoG6y5x4ZcyBwaL98985jNe6sGJwSC94pRZFwp4cSItSKSawoeJI4TDbzD62hQOt654cGoOonxIa7oSRmghGHPwgUFmguP0YSp1zTPx3nLLLXn0SPDqCGadNk7+oFDeOv/l7/3krRxH/E775tSobXXlJzrNurtnqDlJGEsz43D8jtvDIP2uHG/8HjMR8ffwO+7LVWYRgr9BnnWYg1lIs5/+MCh+dfkapKwKKwSEwHgRmFIGi6KxeuYodnwJMFIbLExXUSyRQnJRJ/moClv+ZvpLXgoS7BBhtdv0lApGF8th4vdhD3owQXYi0ZnCv0/G9Cqc3RnnL7o+66yzvHQNKVcqse3JpdsQK/4uWMUTQphY2tLtikdgODCBQP7qVv916ZqCvN+CQ+KJVAFpJlIjzELwl0Jd80ycv/nNb/KoyXsTwbAGBqvJsG5THMN2Y+sZaWhoZ2zTY5oAEwl1dueG2e/qysOW8KTSoP1hFPhNKnbKlxAQAtUItMv1q8N1+oo9pVi/hu0LdEKqKGwH4RYPelV+277B2AXmCr/YsupyTUg/k3NbnkzpvOAFKZsd//f2erBhhZ2lVGLCCpMWjBYMVyrFWzWBSUsNm+ovxu+2225LDeb9ff/7389tZLHVyxYqDDLSsC4U5yE1HLaSAsHkNVGs8wMTOAnEdh1bqUFaSZ64QaCsBxbndZj9Lo53uvwetD/MdvymSz0rn0JglAiMhMFikkNSEysrV+lYUHD0UgKha9NmxZiJI9b1CWHtaL8zOzgOfYZYYRWF6lRJQz+Tc0i/7omhTTuenjuz8sUwox0vd3bKK/+e8gPmKuitwLTG249V4ZHGYDQTvbRYJ4eDBynUFY+4vlHGbyL0YbgeCEKvCgVlFJ1hFpDE9Ks71zXPpM+2XyB0a5oILAPF4cK3cT1RCEcqGjOk9Ae27KtoWP2uKu7p8C3uD7S7cDinKe9x25rt+DXhJDchMFsRGJjBChIidD2aiO0hM4bpOH3VRPEpHU7HoQ9SR5wg5MRSWcpAXjiJw+RiR6c9A2PHoH005JfLiYNOWF3cfC9ftdHkt+zWhEtZikVYpDNmXqAcTet7jNd+++3nmZOqQJQXC/go1rPa5oRmIPTi4hV8+D7oM84b+lNhK60cL8yhHdt3J554one68MIL3b333ut/o4MXdLHK4VLe+6nD5ZZbLo8aBquJyYpvFEg5ZJBHPIQfbW2Yk3xcuxQTTDz6WGWK66rffleOczq9x/2BfGOlvwvNdvy6YCW/QmC2IDAwg8XJLqjueosYSFZ5TLRNJ47QI4qPeO+1115+JR7Hw29OS3GVBfeswTDFhEkEJgkYDlamZlemcNUEp63qBlAkSYHMEGf42fnZhAvXrATJExGjF8OVMFVUZlzLOkFcLRKI/HL1S0g7fOe57777utNOO80r2sN4xlu0xMkR9TIRT2B0cOM6lDIFsxN8j3/zjt5PWOWj54X0jq2+mGBEkTBSJ0HRP96y5JRdOBEXwsWmOapOEabUYTmv8Tt6XrFy+0knnRSSLjzRoTN7V/4bklIuVQ7UxvzgL1X3LcRZfsan4HCrwgKGiqtjAlHXZsS1py6H0e9CGnXPOH/9ML5xHZFG+Z1vbbjXYc4Jx/j0nhmjLRx2IG4obntxfxgmfm1l+F9O9F8ICIGJR8A6cxLZBNjjD+OUNll7w3tcS5FKGEM0YPxflaHRsoVv/Brj4K9JwRgnluKxtGxbZNk3v/nNQrJYNce/DXgZhixjwrhhSBeLz1WGM22Qzf1gsBGy4/fe6rRta8bR1f5OwYUrX0JeKFsdUY7gj6dtKfZ4NSlPwY/ZufIGETHCiaVsrpohLMY+Y0xM+lcIt9NOO+UGDTG6yJU7cdrGlGW2jZdhITyQMXi5H5OQhc/5k29xHCY981bMsSpvd615y/W4cw1NIJNaFsJgjR/DnXY/nL8CKI7PmLYMa/Em/QrBs5Q6NEX2QhrG1OXh+WF3W+butDOskZeJK2HIC+528rDgbNK6PDx+sJpfJmP+cz9VVsXL/svvwRhqwMP01spe/LsxsZlJ5fK08E+bKRs3HaTfYUU95MPMgFTmwySRuR9baPX4MbtpuTtXFJWprc7wHwzbkhc7QVyOIsNCfMhn2YK+MU+F66G4BYFxjz5jjGnG2BJfx8MNBcSHlXhoEPwwgBzyhcHYLlQ1NncJL79CQAhMDQKs+JIo7sS2Es24AiO21o71ZrMj0zNo10VuOjZ+QKlisAjDBBwGnKonkxqWk2OC2cIqOf5tmyl28r/twudCnKYzk8FIxFS2uM5VGyaF8QxL7K/qdxdcmPTC9SLlKzmIG6bBdLMK+aVc66+/fmbGQjPTTcuzwORuCs09fmPcuD/PJFJ5GH5wzYyd5uwJFyyhx9eKhLi4HzBcaQN2TFLBzZS8M5McFtLgWhbulgt+qp5YJDfJQh6OssNAV/nF4nUVLrGl+LY6ZMIMzFFIgzsG4zyQGRYCtDP8mD0u36aw+E54GCKTxPorX+xy7jzv/DC9rCy2bE54GJDA3FJ3ZlKjUD6utKm7wqYQub2Y5MRfLRPuZAxlgLGEESWPZWIxEa4sCv5humBqYB4C9dPvWHjECwGwKjNvXBEU0uUJExa3YfJg2/oFPzAsoU5S6oyyk3ZIBwYJpiwQN0mUrzCCaTcJafCSHXnkkYXbC4iLxZgdPvHxUuchfp7UAQuRQF3xo3yMrWHcIk4s0F9zzTUFfEL8Vc94bK5y1zchIATGg0BfDFa4JzAeaMJvBiDb1motjW1v+FV1HYNFBNx3F19YHNIgfVabMSENCe48YQ6QtgRiwDI9sIKf4D+WvjExmD5F7o+Bz7auQjSNz6642OlKz3yUIy1P/iGf8RMJRExMJGussUbP5ICEcd999y1MonE46oHreOKVOWGQDMFEM3GCG5c/cxUPk9HDDz+cX8Qc54nfMKNcyh2TbeX4PMSTH35tGy6zbcvYa/6buytjiQeTHIwTzAuTrZ1K9WlRz1xsHV/101SHXKaNFK2cb97BAClFTGAQX2NCewjMn+ntZKafFXv3TFIVY0r84AiTW5Y8hbzAzJkl/kJ85RcYguC/7gljUUUsgKifcjjboi1479LvuIqpqrzUFxJPxoK4HuO0YfhgTpG0VsWBX5j2lDor338ap0N/YnFVVXb8xQwSQDBuxNJF/NBWSYOLuXnnHkWzY5dfaRMDmIofC7K438V55jcLMPpOG4nBakNI7kJgPAjMQbLWmVsJ+1E2gbf66+IBPSpO0dnqvTGYrb6dXfjqlcBRQI6PxjcG7NMRSFDItonc2+uKDSD2GeXIgqGXg4kD9IM4xcdfSv5tJe0NZaInA8Y24fk8oxCNmQRjLIZSBgw6oruy+OKLt9YjOjaY6qA+0N9Ddywm2g/GM22Sij/738OuQ5PMOSy1cwKVvGDUE2O2M5lG3e8mDUuuYWJ8YrwJh2TQCeSvrBRflfdR4TcVY3NVefRNCAiBbgiMlcHqllX5FgJCQAgIgTICYrDKiOhdCEwGAgOfIpyMYigXQkAICAEhIASEgBCYHATEYE1OXSgnQkAICAEhIASEwAxBQAzWDKlIFUMICAEhIASEgBCYHATEYE1OXSgnQkAICAEhIASEwAxBQAzWDKlIFUMICAEhIASEgBCYHATEYE1OXSgnQkAICAEhIASEwAxBQAzWDKlIFUMICAEhIASEgBCYHATEYE1OXSgnQkAICAEhIASEwAxBQAzWDKlIFUMICAEhIASEgBCYHATEYE1OXSgnQkAICAEhIASEwAxBYK4u5eBKBpEQEAJCQAgIASEgBIRAMwLJdxE2RyNXISAEhIAQEAJCQAgIgYCAtggDEnoKASEgBISAEBACQmBICIjBGhKQikYICAEhIASEgBAQAgEBMVgBCT2FgBAQAkJACAgBITAkBMRgDQlIRSMEhIAQEAJCQAgIgYCAGKyAhJ5CQAgIASEgBISAEBgSAmKwhgSkohECQkAICAEhIASEQEBADFZAQk8hIASEgBAQAkJACAwJATFYQwJS0QgBISAEhIAQEAJCICAgBisgoacQEAJCQAgIASEgBIaEgBisIQGpaISAEBACQkAICAEhEBAQgxWQ0FMICAEhIASEgBAQAkNCQAzWkIBUNEJACAgBISAEhIAQCAiIwQpI6CkEhIAQEAJCQAgIgSEhIAZrSEAqGiEgBISAEBACQkAIBATEYAUk9BQCQkAICAEhIASEwJAQEIM1JCAVjRAQAkJACAgBISAEAgJisAISegoBISAEhIAQEAJCYEgIiMEaEpCKRggIASEgBISAEBACAQExWAEJPYWAEBACQkAICAEhMCQExGANCUhFIwSEgBAQAkJACAiBgIAYrICEnkJACAgBISAEhIAQGBICYrCGBKSiEQJCQAgIASEgBIRAQEAMVkBCTyEgBISAEBACQkAIDAkBMVhDAlLRCAEhIASEgBAQAkIgICAGKyChpxAQAkJACAgBISAEhoSAGKwhAalohIAQEAJCQAgIASEQEBCDFZDQUwgIASEgBISAEBACQ0JADNaQgFQ0QkAICAEhIASEgBAICIjBCkjoKQSEgBAQAkJACAiBISEgBmtIQCoaISAEhIAQEAJCQAgEBMRgBST0FAJCQAgIASEgBITAkBAQgzUkIBWNEBACQkAICAEhIAQCAmKwAhJ6CgEhIASEgBAQAkJgSAiIwRoSkIpGCAgBISAEhIAQEAIBATFYAQk9hYAQEAJCQAgIASEwJATEYA0JSEUjBISAEBACQkAICIGAgBisgISesx6BX/3qV+5vf/tbJQ6//OUv3T//+c9Kt0n+OF3zPcmYDjNv//73v91dd901zCgV15ARoN/Tj0RCoCsCc6UGuPrqq90FF1zQ6H3BBRd0H/jAB3r8fPGLX3S33HJLz3c+rLTSSm7TTTetdNNHITCVCGRZ5n74wx+6Sy+91J133nnu+uuvd9dee6175StfWUh2p512cscdd5x7znOe4+gHSy21VMF9Ul+ma74nFU/yBUNEW6HN/OxnP3P33nuv++Mf/+h+//vfuyc/+clJWf/Tn/7kLr/8cnfRRRf5MfXlL3+5jy8psDyNFIHbbrvNrbnmmr5+3/Oe97hjjz12pOkPktiPfvQjt+qqq7rnPve5/u+FL3yhowyrrbZap2iZv5nXn/WsZ7mLL77YvfjFL+4UflZ7tkkmiWziyTbeeONsjjnmyAywwt/jHve47P3vf392xhlnVMb1ta99LXvf+96X4S8O+9KXvjT76le/WhlGH4XAVCPwvOc9r9AeaZs33HBDIVmbULMnPelJub+999674D6pL9M135OKJ/l66KGHsnXXXTdvC3PPPXe2zTbbZJdddln23//+Nynrxqj3jIPrr79+Ulh5Gj0CBx54YF7fc801V/b3v/999JnoM8V//etfmTHx2bvf/e5svvnmy8vxute9Lnv00UeTY11++eXzsO9973uTw8mjreC7gvD1r389o6HFjNKrXvWqpGje9KY3+XAwWp///OeTwsiTEJgqBB555JHspptuyh7/+Mfn7fnmm2/uSe4Vr3hF7n7JJZf0uE/qh+ma70nF0yTteTvYZJNNMtpPV4Lx/cMf/pC9/e1vz+PaaKONukYj/yNCwCQ2eT2tvPLKI0p1+Mn85je/yZZccsm8LKkLRZi0OeecMw+HkEWUjkBnBouojzrqqBxwGC0YpqqJKc6G7WFnT33qU324T3/607GTfk8AAt/4xjcyEx9PQE5GnwUTeeft+Sc/+UlPBpBcnHDCCdl3v/vdHrdxfmCyRvpx5513VmZjUvNdmdkp+NiGT5ckkVA9+9nP9u3Etlz6Yq7i9E477bS8zcGsicaDQEobod+feOKJ2Z///OfxZHJIqTJOBMHIIosskhTrf/7zn4LEVdLWJNhyT30pue+yyy7OpFFWV/8jG3zcdttt50zsGD71PE206B5++GFnHLDbeeede9z1YXwI/PrXv3ZbbbWV1zMYXy7Gl3KsO2OrtZ6MPOMZz3DveMc73CqrrNLjNs4PH/vYx7xORJ3y/aTme1SYteHTJR/okD744IM+iEkGk/Wt6tJoa3N14fR9uAiktBH6/fbbb++e/vSnDzfxEce22GKLuYUWWsiniu7gX/7yl9YcmPDEzTvvvLk/U6vIf+tHOwJ9MVhEayt6F4ONQt0nP/nJyhRNB8src6JsRzjR5CAAU8whA9u2mJxMjTEnDCjTgThwcvDBB0+HrI4lj8PGJ+4fiy666FDLNF3a3FALPQGRDbuNTECRWrMQH9BJYbCI0KRdebwLL7xw/ls/2hHoezYxcbk76aSTCimYQqCD0YqJEzOmAO8/cRJrnnnmiZ0rf5tYsvL7VH607ZRC9H/9618L711eTDejx7uJl3u+jfsDkg+Yq+uuu27cWRlp+phiqDPHYIc4GvPyj3/8o9E9OJqM2Es8kO6mEn3l1ltvrc1biIcTaFtssQXb++FT6zM130TUT/8bRZufSnzaAIyxbmsjVXERHiatCtvU+GhLcT6q0qn6RrqccuxCqVhXxWl6O47wk0z99CFTcJ/kIiXlLW5rqWNTvKAIErCkxOTJFKgGJE4oGI753worrJChGBfone98p3d729veFj71PFEWPeCAA7I3vOEN2QILLOBPKpo4059a5NQN+8AxnX322V5hD6W98LfXXnvlXqrcX/KSl/TEYxx8ZkxihjKwmYvw4c8666zMjun7PNsR1ww/KXT77bdnJsHL7Mh1tvjii/sgtq2Q7brrrhllAaPlllsu++xnP9sY3U9/+lN/4pI8cUrpmc98Zrb66qtnJ598ck+4zTbbLFtnnXV6/tZbbz2fb9u27XGzI7c+HmMgs7XWWiuvN/JnIvDMxOH+b9ttt+1Jr+4D9cNJKpv0MxMne292dD3bb7/9fBro3pkJj2yHHXYo4GlH3TNOtBDmaU97Wka+v/zlL9cl4793wSeOCH0kTrpyIgadQRtofNshj7SN0IapxzLdfffd2Sc+8Qlfjx/5yEfKzvm7MTHZxz/+cV9msCTOJzzhCdmKK66YoXNjA1ruN/ywiS+zLXdfzyEP5G2JJZbw7Sn4C0/a9hOf+MQ8v4RZeuml83q75pprgtcsNd9d+19IYFhtPsRX9ZxKfKrSq/v2zW9+M8fcjqzXeev5biYdsg022CCzI+4+PH2aNk+7C/W9+eab94QLH6hP257OXvayl/l6p13ZMXuvL1nVVkM4TruRhpkWydOhn3HQiPD33HNP8Jo/u2KdB7QfpLfHHntkJiHJD0Gh58PBgMMPPzz79re/nTEmoMdkqiJxUP+7337dE1HChy59yBah2fnnn5+hJ0dfpo/HNB3Gvji/tL3Q7qraQOw3/P7oRz+ah7nyyivDZz0TEBiYwWKiNvsaeQVQeXRsiE7FZEEn/93vfleZHZTj6ZSEo+OjAM8Jh/hoKAyP2ZzJw9Oov//972fLLrtsnq7pEOXudAKUlbfccsvcnfhRaIRIk45vehC5O5MgzEdofOEJA9ZE9913X7bMMssUwsFQwRDFx/tDfDwxW1FF5557rmeqOFJL/mBKw8BMOJip+JgwE6htExVMZ4D1j3/8Y89M3nHHHZmtPnzeXvCCF/g8MYhCP/jBD7LXvva1OfNH/DC3fOMPsxptxEAJAwnzFMpHmWG2GMzDt/gZjggHxjt24zfthQGtirriE+IAh3CC5vWvf703J3LVVVdl5IH04jzgNxCHOWgXsXsdg2XGIjPMjuB366239nWMCZIXvehFeXiO9MfEwY+AHW2fE40mbfBMeDi5s9tuu8VBPN7UT5wnGPBQb9/73vf8IZTUfPfT/4bZ5guFK71MFT6lZJJeWQwEzFMZrP3339+3L5gi+iltjjEm9MkQHwuTMnGMnkUji4GnPOUpGe2O9ggzxmKEsIxfMC/lBSiM/Bvf+EbvZ8MNN8zMvlsGM7b77rvnZSgf5ugH65BnTqiFRQr9G6byiCOOyA8FhHKGJ30wpn77dRxHl9+MWW19yCTJGYtM02PMMSP/gcGaLmNfGZeYwWL+SKEvfOELOQapYVLinQ1+BmawAMmMLxZOGnDsnYGeVTiNss7WFauWwIS85jWvKazwGTTixsAJnjKTdtBBB+UVHzNYoeJ+/vOf5+7kIzBY3/nOd7IPfvCDnpkJnZ4nKxQ6VcwwXnHFFSG6yicrnHPOOcdLmeK4+I1E7swzz/S2leIO/fznP78nLlZVTPacaPvtb3+bu8NYxjZMyHeZGPBD2mAfmAQGVcrEStIU2cvB/Ht8IhTGoAvZNlvGJBKXjXzAHDDpn3rqqZltGXs/IX88YXaQwthhB8+EUx9mzC8vAwxqmfrFh3IHJhWJX2gDIX5Tcs3TJW8BO9zNqGB2zDHHFCaKKgaLySkMxPiPCTs0cdnj9vTmN785d6MPxRQmSNoEDE2ZkGyGeMuDXmq+++1/w2rz5TKV36cKn3I6Ke/x4gtJTRvRTqgfJFbl06f3339/YQFSxWAxDoX6hTGLiYVrbFpkn332iZ2zwAxiTueBBx4ouMGwEy8LrJgGwTqY32FcY8EdiIVSKANP2jTSWk7kBeq3X4fwgzyb+hALDxgLzBLEZQgM1nQY+6qwYZEXyoNtyxT61re+5cMwFtH3RekIDIXBIrnQcUPlhScrqDoKkypMQCyhCv7Z1olXe+WB6Pjjj88bSxWDRfiQD57lyZXtqNidFR7E6pEtHWygpNKNN95YiAvmL6b4iCxpkrdAdNpQzvJgip8Pf/jDedysaO0ESAjqn4QPEhriZoUIg4p9MvyXJ+84cMxglSUssb+m30jFYhzZNgbDmGgHwY/p4fXkCTxi+2oxMz0IPnb6x6eLFIAtijIhEQSjkLcqkwc77rhj7l7FYLF9QHgWCWUCBySDIf6wRYu/+DuTZkysskOYKgO+8eTAQqKK2vI9aP8bpM1X5bf8barxKafX9I5EN9QH0ukmQprJmIb/qvZC2HjbBUl7TDDhIa26Pnn00UfnfmC2UEcIhOSL8Hwvt3mYddp7menrF2sYtZDXt7zlLSEL+RO1iOB+yCGH5N/5MUi/LkTU50tKH2KxG/LPkzzHNMljX5zP8Puwww7Ly3PkkUeGz43PIKjAMLOoGwJ9K7lbYysQCu7xCQUcrQE7Y4IK/sKLGSx1Nqn4V64mqTK/zzFzmyRCEGeSMGfbKPn7oD9MwpZHYYORs0nNv9tE70za4YxRyd3bfnBCMiZj1uJXZ1KZwnFXrtkIxPULth/uSNe2E/xBAQ4LhD+uKAiEYiLXu8Rk0iBng76zgdN/NmOY/joErn0xiZd79atfHXuv/W0rlFq3JgeukInzaHpIvixxGLOAnb+aZK8nT9S1SdpyPzZw5b/7xce2Qdwpp5zi47GtlcoDFiZBLaRbhQEHOuoIZVlbhXtnk2z0eKNOP/e5zznbQnE2ATljNHM/JjF0pAd+5b5jDGHuLz7Bln+MflTlGeemfA+j/w3S5qPs1/6canxqEy45mDqC7198pp22jQvGVDkUvakXriapIlsQ5Z/L9ce1JIEwD1BFtojJ27Mx8W7PPffMvYVxgO+2DV44jm9SJmeGTV3cvgjYL9ZcLxXIJO3hZ/6Mr53iAEdM/fbrOI5h/S7XQYi3qQ/hZ1LHvpD/8pPxx6Sq/rNt4/p5p+yn/E6bAR8puJeRaX8fGoPFRFVmpujcsSmHODu2LZS/mvQm/13+Yau7nHHAzVZMZS99v8eDDAxeXV5TEqjroHHYmKGLT7GZzpL3ZhI2Z3o8zg4KFP4YsGOKmbPwHVst8cBsW7TOdNScHR4IXqb0GQb1ukTmn3/+Oqf8O3dlBYqPEPeLD+ZBwkmZJhtWMLVN1FS38f2c1FsVmZKzg9kjPyw6AmFmARtkJlVwYXLi9JVtM7rTTz89eHMmZct/d/nRlO9h9L+m+EM+69p8cG96TjU+TWnbOtVfwnzooYc6U1XwNvwWtiPqMKZNbRnGCj+QSYVqJ6W6NsfpZdOhzLNWNzayqOIEcKB4XOR+10CmvuBMQd6x6ArEN5MshVf/7BfreByjLZcpZrAoW0z99us4jqn+ndLGJ3Hsq8OF/miqG57Jor5Miu3sVhXHRfd1hPCBNi8Gqw6h+u/Jlz3XR/GYCwNQTDBddRRf/rxIJLko++cCaVMi9xMUbuVVUNl/l/eUztMlvja/dekFhskU+3OJS1NcdQ0dZooJ37a5fHBws62Kpqj+r71zR5LcRgIo91QyFTGeDqAryJAtf+YGMnQDhXQDGYrQDeSMN/bqJL35sJFUkiBZVURV/+YhopssEADBRwJMAonMxbG9+i0SnfxRhdm9ImpdY4pzTnaWT+ajoFDyn8s72rmVQT6PvPBCsf+o6M1jKdQjgMV0bRul5eVbDVFuZiyRt9aZrM/V/s7UrVza/NHz3HwwiBzK1xP3NVQTptBRaoIWL5ujENODsymGM89cPk+cg9FPRg/2Qqy6baOjHA9F8ymm2ZsAj0DPizNnCEJHbwoL3C3ul19+aaOpW2WeeRapQ6gwtOI4H8akY9XwXDz9dwacWteQ7XO036tlnt0ffU6PzvsSfd9RfUIXrn3UhY5cczjOaCiBUdA9W5aMVu+9d47O9bUfu6uAdQtMOoQMoTiXu5tbbiwdLCHmgzfTvNXImNOf/vnnn1Z9Rm32RkGuuT5eylhk//jxY0vOKEj4PJvoBK8Jj+xkeFmcCSN8sgPnvFVgO6rHrQzyhcgzzP3bG5nYO2coyE9MLYaeVRvxCDMeE6O2CMvXjj7eWmfq8lba30vxwVo7o0KMLjIFjP0+2uYloWn0mav3hWeWaT6EvK2wfuHRNzJaxfPAhxZqDrHIYs6KAISQE/qhU+jMzvG5c4Y1whFCFKMh2Ppj9LVOladdxFj52ATVPNdIu84y7rk904auPf9L9H2X6sYoKc916Py2pIxshbmX3WyMsF969nczf8UH7jZFeCtD5q4z0LCPQtX1YNj9PQUaXzZABC06nrOBYd6ff/55kT1sT03roflFgvLjkZ1MOc1NuyN80rUJJ0wh9qaTX5G4Mvvy5csVOf5Ngm4P0zkIwuhooc+Czs3eC/XfnMu9Woflkf1fb6H9vSQfvubpl/7+++8JfalQCJ6Ywo5FCvtQ48joM1fvC9OUR1M3tV+kUrVvRKD5448/pl9//XWefiYNU5joZa49aoywjsVC87RpKO83VRGmumM14xT241r/hvpIne4caddcx73DmTZ07zqsy3sUI/SDY5X3FOY02qhmrDaf+OPjfC84RbhH5jj+xQQspq8yVJ2DjKvbagW95qtp3uo+jSh1j9AX+u233w4vhZESFhRUJmSgM2a0ivhYBj3RwRJ4SeQQfos4+PdaO5mzfFhYkCFWTeXu4fZWBlU5HaXdo4C+SurCoFf1/fffT7FasukY8jKq0ylH5ayP3Vpn8td29Brb30vzScYIwCxkQDcSHckff/zxUFivzxz3lum5S6Hev3pfyHd0b2ofgDJ2Clyck5E3AsrrqAzwUq1+NvEHmx9zo6zDYPEUK0rb+ejDUOxn0QvK9Hw4cIxR2Rru1e/VMkf26z0YKeeeeR/BCL23sJ3WqonCexjWnqqe5F798SUctvr2Dhu/Q+CuAhYv+WtDVbKkEznqSOpXHB3dVkD/4K2GuqLo06dPu0rNKUThcmit38bUUtgraU6JGQXJRgQTVrGFBd6LeJiOeI3hLJ865B32yBajC/e6zlo3VrnmVPa6fF486PIg/BIYXfhvOFwlMB2V+i8t4sZ/Z+7bvdvfjVW+mPyl+dQK1uktXAKFGYV6eLFfnzkOrBf+LBJv/EBQqiNRjA7thdovVtUCRqdq+2faGmV9dG7ywwvhKj86Rlnz0RdmLJq+GGWFLbkm1KGPFSZidtUeats52+/tsbk1/kwbuvUcZ9LfmxH9YAbeE1Xozvit7TfffLMYCd1KY1xP4K4C1noq6mj1E180Vbl97dcwqxp2SOavI76UwrZTHmpLpvPH1ost7Fjl4balrL1wi3C4VcY1+ff0gH744Ye5SHQZWM6/5csL3aqwzzX99NNPi2kkOjT0HnhJh52TVhaKi/AiULdwt9EUUFtE+ZcdLlFbq4BK0qHd+izc2pmd5YNphgy8BNarMTkG5xR0+B1GINksAiMXGeo+cWFtv+m8sM/9/fDhQ5vq43cGXsp81aMDgyI7oU5ZYpIiVztmnmqOpLLL49fct1rXuk8Z92h/I898Xsfe9jn47J17K56RmAypd5e/65aplGx3xIexysWCgkxb7+/6mQtPFpmsCeKMhG2FuoI1DOYukjD9s+5vUHSvZiNyBGuUdRhFbcIbpmIwwRKuwppZmksv77PtenGhAz9ubUOcat2Orjl9bb/P1fft1avq+K1HS/fyMK3MCujU19pLZ/wGgegk7xbWlnsxwHgUMOQZVWp/MRz6hMXYdcBKMWk4Xo3pkS7sQc35SYOVcwxUhvPi5uolls8ujmP0r1pJx4J4nh/jlyMhBLy5LMoMYaUrDgvleb74ylwcx/dgHmMbKzKbMUKMTMZXcHMjRDzGLKORgXwgkwAACwVJREFUznmjk2y+FDmGH8UasNSNVfUsFwOg64Bh0zyO1enobJtB1hgSfoqv3nXyzd/R6cyGFSkLly/rEKNo83liSHp9uP0Oe11zmrVxzbN80sp0XmNM8czPAAYhcUmUx9jiiiSm8Z4wIJghXgRzmpiGzeh5S1wtI0YXm3V7nkf8H4ZyaDuOG6gMlQd5sdyN4U7aEC6SankhtD3FVO/CAna8xOc0WMcmYPQRX5jpP/NSvUfb3+gznyy2ts/BZ+u8e3ExtTLzxgPBUeD5jymnOT2eGEK4bu02BP0nrJfjnzPvMV4AQjWgubSh3BCMmm/JPI6LrNrmSRO6Xk/0WaTBQ0EN9HPEhz5mjW77aTAVQ6j5nIywxlND1hPfraG71lz6YAUdo7q4BaM/rv1urdTZdl3LOLt/TRsKgWS+Pq6T/rGG19z31XrmPv5e837tGSjOtLkNwXzOszagnWncbhNgdGM4hC5As8y99n+GJWF8+fGQxhf65nlwkIzwxE2nw4gh5mYtlw4FIQQhCZ9boazZ5efhxlp5PjDrLX66YpRscTz0XFoHRgeFZfiaJ4apN92SdCdeRXD9CCS1LFzIZKcYXwBPYfBycZxOE79zGRAeY1XQIk0tj338M8aIS2Zp1uBDj6flgf1W+Pbbbxdl4iOM+mRAIOU+5bkQDujwqcuWVfPMV7dri/g4PK4Ba9L42stzsMU/Wg0Iy9znTIObpCrknOFD+Viurj4rs/y04lzPmcd4RtKlDUIYLkDyWEzfPIVR2Fr1dh/xl5lptra82HhxZkBgQqDdSov/wmpxOdNUS/HVPRLH8f3ISx0L4YRr6k26s+3vHs88598Lj+azd969+HQXAmuE9EsBK9nrD7wYMZnb2voYH0II+xm4f9UKOgJ4vhD5eMu+FiGhthPyp4DF88BzhJcE+so///xzdiperaqPsKYd5/N5aYvbGdwE1XC2Xdcyzu5fakP03/mBn9eGn9zajl9z37fFhfdOXkuM3G8lWcTxrsj3M/kQog3XExgWsMKo3nzD8sZtbWMOd7dWfOFUp7hhN2R++YROQ3NevJeZF2hYCV/UAeEg/R8iYDGCQKcTK4KaoIfws1XHjMN9zLUBIWnrJU1ZofvQBKKwSbN5Ph5cvgAzIIgiEK0731hV9vTx48eFHyjSEp91Zst5aqj+xWo6fPPVTiL0txYjXaHYuzkCV8tmn6+5HJ2p5bMPd0YIcXJbG2im4xoRGAmxtHxxHTVN6Ju1NPy7hc+cKXbwG4YrpTpqADtGhnj2Qn+l3SucPzOix8cAzlwRtLIudcuLa/088wLjHuWoQqaHA26XtgI+42Jadz4HL2A6fYQXOnfcC3Euni9GtarbE16aoZ8x56XN8NzeWm/qdWv7u+czv8Ul4x7BJ8u+dRuK7jNrXBBdExgJraPWPBM8D7jkYmSH34w4hm2qzmcg5TM6zehkHYWOKciWj48ihGmeu3Wgr6M/zWeLtpZl0F6ru6bMO8I6zInMbPK539vmB26el+3Zdl3LOLO/14YoCwGUj82t66AfYdTvLfR9ay70eXlN69G4ddr8na7AyHfLuzHzf83b/3DxAe5VhBgZaLZnsOfCyob4Sjs0tFcrTR6UPlm9gmJgvNTbYfQlWOkVnUxN/qr3WW3Gsml0xqg7f9UI5yMqzyIBWGFbJzqOR5zibmWe5RNCZbtGdCJQ8g7BpdWJpfjo2FxjEPCai4jRh6bLhS5KruzayxcvyAnbSTRDnvm1iQZWg/FMV+ONWRZ50D0MYaxZ7R99RkbaX9bp3tvXwgf9udStQp9xbebg6LpxdcQyeJ6FEHxaUvTu+FsrxW+Vgw4f7rHQ2wpBqdmywv7U+lnJvOjC0v/xfHMOVhHyrIRw09r3Xl94hjV5wl9iU/zHQjxtMwSmZhoGHS/qjrJ7vMybTS728TKB0vQ6nG3X63Ju+X3vNnTLuc+kHWUUH+GzLhV9y5Eh26wf+qGYkMELRV01ncfd7hN4VQLWfjU9IgEJSODlCGD6IE0wxDTJFKN+L1eZV3JmPlhYSIICNMr8uEY7CghZ2MIiLUKq4fkJsAiDRRMI6ghr69Xoz1+j933G/w/zvO9r9OokIAEJDBFg5AkjoIxGMbrMiHnaZxsq+A1nxogowhWhrtjduyRe6oRrnc9vlcNob/W1uJXmUtznz59nYflS2vd0nFHYXJHKaLnC1ePv7tuZN3s8C88gAQlIYJdA6Da1Y0zJYo4j3cDsZnjnB7CrlaGanci4usUUCj4SsdfFy/1sYNSMkZeRP8r42sJff/01xYrqdtlMLWNL0fB4Ak4RPp6xZ5CABN4JAeyYMXITCw7aFcXq0SlWd06x2mzW+3wnl3rxMnDDlbpojE6FMnTTZUT3MMzMNK8S6MVirwsPBkytxqKoplN4sXATDBNgtDUWGTWXRbFas5WHji3u1HBmbng8AQWsxzP2DBKQwDsigPI2Rox5abGggUUTv//++8MXorw2hLHadfruu+9mi/B79WORBvpZCKajCzH2zmF8TwAldoxS46iZBRYIuCzUiJXJfWJjHkJAAeshWC1UAhKQwPsnwCo8RqjwxMFqRV7q6Pagn8Yflt0Z2VLf5/0/C15hT0ABq2dijAQkIAEJSEACEhgioJL7ED4zS0ACEpCABCQggZ6AAlbPxBgJSEACEpCABCQwREABawifmSUgAQlIQAISkEBPQAGrZ2KMBCQgAQlIQAISGCKggDWEz8wSkIAEJCABCUigJ6CA1TMxRgISkIAEJCABCQwRUMAawmdmCUhAAhKQgAQk0BNQwOqZGCMBCUhAAhKQgASGCChgDeEzswQkIAEJSEACEugJKGD1TIyRgAQkIAEJSEACQwQUsIbwmVkCEpCABCQgAQn0BBSweibGSEACEpCABCQggSECClhD+MwsAQlIQAISkIAEegIKWD0TYyQgAQlIQAISkMAQAQWsIXxmloAEJCABCUhAAj0BBayeiTESkIAEJCABCUhgiIAC1hA+M0tAAhKQgAQkIIGegAJWz8QYCUhAAhKQgAQkMERAAWsIn5klIAEJSEACEpBAT0ABq2dijAQkIAEJSEACEhgioIA1hM/MEpCABCQgAQlIoCeggNUzMUYCEpCABCQgAQkMEVDAGsJnZglIQAISkIAEJNATUMDqmRgjAQlIQAISkIAEhggoYA3hM7MEJCABCUhAAhLoCShg9UyMkYAEJCABCUhAAkMEFLCG8JlZAhKQgAQkIAEJ9AQUsHomxkhAAhKQgAQkIIEhAgpYQ/jMLAEJSEACEpCABHoCClg9E2MkIAEJSEACEpDAEAEFrCF8ZpaABCQgAQlIQAI9AQWsnokxEpCABCQgAQlIYIiAAtYQPjNLQAISkIAEJCCBnoACVs/EGAlIQAISkIAEJDBEQAFrCJ+ZJSABCUhAAhKQQE9AAatnYowEJCABCUhAAhIYIqCANYTPzBKQgAQkIAEJSKAnoIDVMzFGAhKQgAQkIAEJDBFQwBrCZ2YJSEACEpCABCTQE1DA6pkYIwEJSEACEpCABIYIKGAN4TOzBCQgAQlIQAIS6AkoYPVMjJGABCQgAQlIQAJDBBSwhvCZWQISkIAEJCABCfQEFLB6JsZIQAISkIAEJCCBIQIKWEP4zCwBCUhAAhKQgAR6AgpYPRNjJCABCUhAAhKQwBABBawhfGaWgAQkIAEJSEACPQEFrJ6JMRKQgAQkIAEJSGCIgALWED4zS0ACEpCABCQggZ6AAlbPxBgJSEACEpCABCQwROB/GI4WGrg0xNYAAAAASUVORK5CYII=;" vertex="1" parent="1">
          <mxGeometry x="331" y="410" width="181.4" height="104" as="geometry" />
        </mxCell>
        <mxCell id="_oLkYh-6_BTDg69lf94G-7" value="" style="endArrow=none;html=1;rounded=0;exitX=0.065;exitY=0.618;exitDx=0;exitDy=0;exitPerimeter=0;entryX=0.95;entryY=0.618;entryDx=0;entryDy=0;entryPerimeter=0;" edge="1" parent="1" source="_oLkYh-6_BTDg69lf94G-1" target="_oLkYh-6_BTDg69lf94G-1">
          <mxGeometry width="50" height="50" relative="1" as="geometry">
            <mxPoint x="400" y="380" as="sourcePoint" />
            <mxPoint x="450" y="330" as="targetPoint" />
          </mxGeometry>
        </mxCell>
        <mxCell id="_oLkYh-6_BTDg69lf94G-8" value="" style="endArrow=none;html=1;rounded=0;exitX=0.065;exitY=0.618;exitDx=0;exitDy=0;exitPerimeter=0;entryX=0.95;entryY=0.618;entryDx=0;entryDy=0;entryPerimeter=0;" edge="1" parent="1">
          <mxGeometry width="50" height="50" relative="1" as="geometry">
            <mxPoint x="331" y="320" as="sourcePoint" />
            <mxPoint x="508" y="320" as="targetPoint" />
          </mxGeometry>
        </mxCell>
      </root>
    </mxGraphModel>
  </diagram>
  <diagram id="957Fo-nTwbfl_sMn_CUS" name="Connect Memory Health Services">
    <mxGraphModel dx="1178" dy="681" grid="1" gridSize="10" guides="1" tooltips="1" connect="1" arrows="1" fold="1" page="1" pageScale="1" pageWidth="850" pageHeight="1100" math="0" shadow="0">
      <root>
        <mxCell id="0" />
        <mxCell id="1" parent="0" />
        <mxCell id="22g5Y20l3YTHi43V3frY-1" value="" style="verticalLabelPosition=bottom;verticalAlign=top;html=1;shadow=0;dashed=0;strokeWidth=1;shape=mxgraph.android.phone2;strokeColor=#6c8ebf;fillColor=#dae8fc;" vertex="1" parent="1">
          <mxGeometry x="320" y="160" width="200" height="390" as="geometry" />
        </mxCell>
        <mxCell id="22g5Y20l3YTHi43V3frY-4" value="" style="image;sketch=0;aspect=fixed;html=1;points=[];align=center;fontSize=12;image=img/lib/mscae/User_Health_Icon.svg;" vertex="1" parent="1">
          <mxGeometry x="340" y="201" width="46" height="50" as="geometry" />
        </mxCell>
        <mxCell id="22g5Y20l3YTHi43V3frY-5" value="My Health App&lt;div&gt;&lt;i&gt;&lt;font style=&quot;font-size: 11px;&quot;&gt;Aging Services&lt;/font&gt;&lt;/i&gt;&lt;/div&gt;" style="text;html=1;align=center;verticalAlign=middle;resizable=0;points=[];autosize=1;strokeColor=none;fillColor=none;" vertex="1" parent="1">
          <mxGeometry x="400" y="206" width="100" height="40" as="geometry" />
        </mxCell>
        <mxCell id="22g5Y20l3YTHi43V3frY-8" value="" style="endArrow=none;html=1;rounded=0;exitX=0.065;exitY=0.618;exitDx=0;exitDy=0;exitPerimeter=0;entryX=0.95;entryY=0.618;entryDx=0;entryDy=0;entryPerimeter=0;" edge="1" parent="1">
          <mxGeometry width="50" height="50" relative="1" as="geometry">
            <mxPoint x="331.5" y="251" as="sourcePoint" />
            <mxPoint x="508.5" y="251" as="targetPoint" />
          </mxGeometry>
        </mxCell>
        <mxCell id="22g5Y20l3YTHi43V3frY-9" value="" style="shape=rect;rSize=3;strokeColor=none;fillColor=#D2D3D5;gradientColor=none;shadow=0;html=1;" vertex="1" parent="1">
          <mxGeometry x="330" y="293" width="180" height="117" as="geometry" />
        </mxCell>
        <mxCell id="22g5Y20l3YTHi43V3frY-10" value="Memory Aid Virtual Assistant" style="html=1;strokeWidth=1;shadow=0;dashed=0;shape=mxgraph.ios7ui.topButton;rSize=3;strokeColor=#D2D3D5;fontSize=10;fillColor=#F1F1F1;fontColor=#0080F0;resizeWidth=1;whiteSpace=wrap;" vertex="1" parent="22g5Y20l3YTHi43V3frY-9">
          <mxGeometry width="169.02439024390245" height="20" relative="1" as="geometry">
            <mxPoint x="5" y="5" as="offset" />
          </mxGeometry>
        </mxCell>
        <mxCell id="22g5Y20l3YTHi43V3frY-11" value="Memory Aid Services" style="shape=rect;html=1;strokeColor=#D2D3D5;fontSize=11;fillColor=#F1F1F1;fontColor=#0080F0;resizeWidth=1;whiteSpace=wrap;" vertex="1" parent="22g5Y20l3YTHi43V3frY-9">
          <mxGeometry width="169.02439024390245" height="20" relative="1" as="geometry">
            <mxPoint x="5" y="25" as="offset" />
          </mxGeometry>
        </mxCell>
        <mxCell id="22g5Y20l3YTHi43V3frY-12" value="At Home Dementia Assistance" style="shape=rect;html=1;strokeColor=#D2D3D5;fontSize=11;fillColor=#F1F1F1;fontColor=#0080F0;resizeWidth=1;whiteSpace=wrap;" vertex="1" parent="22g5Y20l3YTHi43V3frY-9">
          <mxGeometry width="169.02439024390245" height="20" relative="1" as="geometry">
            <mxPoint x="5" y="45" as="offset" />
          </mxGeometry>
        </mxCell>
        <mxCell id="22g5Y20l3YTHi43V3frY-13" value="..." style="html=1;strokeWidth=1;shadow=0;dashed=0;shape=mxgraph.ios7ui.bottomButton;rSize=3;strokeColor=#D2D3D5;fontSize=8;fillColor=#F1F1F1;fontColor=#0080F0;resizeWidth=1;whiteSpace=wrap;" vertex="1" parent="22g5Y20l3YTHi43V3frY-9">
          <mxGeometry width="169.02439024390245" height="20" relative="1" as="geometry">
            <mxPoint x="5" y="65" as="offset" />
          </mxGeometry>
        </mxCell>
        <mxCell id="22g5Y20l3YTHi43V3frY-14" value="Cancel" style="html=1;strokeWidth=1;shadow=0;dashed=0;shape=mxgraph.ios7ui.marginRect;rx=5;ry=5;rectMargin=5;strokeColor=#D2D3D5;fontSize=8;fillColor=#ffffff;fontColor=#0080F0;resizeWidth=1;whiteSpace=wrap;" vertex="1" parent="22g5Y20l3YTHi43V3frY-9">
          <mxGeometry y="1" width="180" height="30" relative="1" as="geometry">
            <mxPoint y="-30" as="offset" />
          </mxGeometry>
        </mxCell>
        <mxCell id="22g5Y20l3YTHi43V3frY-16" value="" style="shape=rect;fillColor=#F7F7F7;strokeColor=none;" vertex="1" parent="1">
          <mxGeometry x="336" y="260" width="164" height="20" as="geometry" />
        </mxCell>
        <mxCell id="22g5Y20l3YTHi43V3frY-17" value="Search for services" style="html=1;strokeWidth=1;shadow=0;dashed=0;shape=mxgraph.ios7ui.marginRect;rx=3;ry=3;rectMarginLeft=25;rectMarginRight=25;rectMarginTop=3;rectMarginBottom=3;fillColor=#FBFBFB;strokeColor=#B3B3B3;fontColor=#B3B3B3;align=left;spacingLeft=29;fontSize=8;" vertex="1" parent="22g5Y20l3YTHi43V3frY-16">
          <mxGeometry width="164" height="20" as="geometry" />
        </mxCell>
        <mxCell id="22g5Y20l3YTHi43V3frY-18" value="" style="strokeWidth=1;strokeColor=#F7F7F7;fillColor=#666666;shape=mxgraph.ios7.icons.camera;" vertex="1" parent="22g5Y20l3YTHi43V3frY-16">
          <mxGeometry y="0.5" width="15" height="9" relative="1" as="geometry">
            <mxPoint x="5" y="-4.5" as="offset" />
          </mxGeometry>
        </mxCell>
        <mxCell id="22g5Y20l3YTHi43V3frY-19" value="" style="strokeColor=none;fillColor=#666666;shape=ellipse;" vertex="1" parent="22g5Y20l3YTHi43V3frY-16">
          <mxGeometry x="1" y="0.5" width="14" height="14" relative="1" as="geometry">
            <mxPoint x="-19" y="-7" as="offset" />
          </mxGeometry>
        </mxCell>
        <mxCell id="22g5Y20l3YTHi43V3frY-20" value="" style="strokeColor=#F7F7F7;fillColor=none;shape=mxgraph.ios7.icons.microphone;strokeWidth=1;" vertex="1" parent="22g5Y20l3YTHi43V3frY-19">
          <mxGeometry x="0.5" y="0.5" width="4" height="10" relative="1" as="geometry">
            <mxPoint x="-2" y="-5" as="offset" />
          </mxGeometry>
        </mxCell>
        <mxCell id="22g5Y20l3YTHi43V3frY-21" value="" style="verticalLabelPosition=bottom;verticalAlign=top;html=1;shadow=0;dashed=0;strokeWidth=1;shape=mxgraph.ios.iKeybLett;sketch=0;" vertex="1" parent="1">
          <mxGeometry x="330" y="410" width="180" height="100" as="geometry" />
        </mxCell>
      </root>
    </mxGraphModel>
  </diagram>
</mxfile>
